<svg version="1.1" id="sig" xmlns="http://www.w3.org/2000/svg" x="0" y="0" viewBox="0 0 800 400" style="enable-background:new 0 0 800 400" xml:space="preserve">
    <style>
        .st0{fill:#231f20}
    </style>
    <path class="st0" d="M158.25 208.45c7.82-17.88 14.5-36.26 19.97-54.99 5.47-18.73 9.73-37.82 12.76-57.1 1.7-10.86 3.01-21.79 3.92-32.75.07-.87-1.58-.49-1.99-.3-4.82 2.13-6.52 7.15-8.11 11.79-1.92 5.62-3.47 11.37-4.68 17.19-2.43 11.73-3.46 23.73-3.41 35.7.09 24.85 4.92 49.38 11.54 73.24 3.8 13.7 8.19 27.23 12.66 40.73.93-.31 1.87-.62 2.8-.93-16.6-10.83-31.23-24.32-44.94-38.56-6.93-7.21-13.65-14.62-20.35-22.04-1.55-1.71-3.55-3.52-4.09-5.85-.58-2.49 1.17-4.13 3.15-5.24 4.56-2.54 9.39-4.7 14.12-6.88 10.88-5.02 21.98-9.53 33.26-13.55.41-.15 1.12-.55.8-1.05-.3-.48-1.55-.09-1.9.03a402.37 402.37 0 0 0-30.67 12.36c-4.95 2.24-9.86 4.58-14.72 7.02-3.52 1.77-8.78 4.38-6.55 9.21.98 2.12 2.78 3.82 4.33 5.53 1.79 1.98 3.57 3.96 5.37 5.93 3.44 3.78 6.9 7.55 10.41 11.27 7.05 7.49 14.29 14.8 21.91 21.71 8.52 7.72 17.53 14.92 27.17 21.2.52.34 3.13.06 2.8-.93-7.72-23.33-15.24-46.81-19.82-70.99-4.43-23.39-6.03-47.53-2.3-71.12 1.02-6.47 2.45-12.88 4.32-19.16.92-3.09 1.9-6.2 3.11-9.2.98-2.42 2.35-5.28 4.88-6.39l-1.99-.3a455.478 455.478 0 0 1-8.59 57.87 455.54 455.54 0 0 1-15.93 56.29c-3.67 10.37-7.72 20.6-12.13 30.67-.33.76 2.5.46 2.89-.41zM312.91 95.47c-2.4-1.46-5.27-.51-7.5.81-2.33 1.37-4.48 3.18-6.6 4.86a159.19 159.19 0 0 0-12.58 11.08c-8 7.84-15.18 16.52-21.47 25.78-6.35 9.34-12.05 19.36-16.27 29.86-4.22 10.5-7.11 23.21-1.96 33.92 4.65 9.68 15.17 16.99 26.16 14.18.49-.13 1.39-.59 1.22-1.24-.18-.65-1.2-.59-1.68-.46-9.07 2.32-17.81-4.31-22.08-11.85-5.4-9.55-3.62-21.31-.13-31.19 3.56-10.09 8.9-19.72 14.64-28.72 5.59-8.77 11.95-17.03 19.06-24.62 3.93-4.2 8.08-8.19 12.45-11.94 2.25-1.94 4.57-3.8 6.93-5.6 1.14-.86 2.27-1.75 3.47-2.53 1.23-.81 2.67-1.64 4.07-.79.94.55 3.56-.77 2.27-1.55zM303.61 148.16c.78.42 2.56.05 3.06-.74.84-1.36-1.81-.88-2.32-.69-1.35.51-1.85 1.67-2.54 2.86-1 1.73-1.99 3.46-2.94 5.22-3.61 6.6-6.89 13.38-9.83 20.31-1.44 3.39-2.79 6.82-4.06 10.28-1.03 2.81-2.34 5.71-2.65 8.72-.21 2.09.1 4.75 2.34 5.61 2.77 1.06 6.38-.79 8.88-1.89 6.52-2.9 12.19-7.48 16.42-13.22.32-.44-1.14-.28-1.16-.28-4.64.66-8.84 4.26-8.67 9.21.01.26.7.21.82.2 5.41-.56 10.44-4.28 10.95-9.97l-.34.43c1.27-.95 2.65-1.27 3.92-.07.9.85 1.25 2.17 1.2 3.38-.12 3.08-2.8 5.13-5.05 6.84-.67.51.91.46 1.04.43 6.58-1.36 12.73-4.11 18.04-8.24.67-.52-.91-.45-1.04-.43-2.9.53-7.3 1.81-7.65 5.35-.13 1.36.42 2.87 1.72 3.47 1.62.75 3.69.03 5.24-.59 7.38-2.95 14.2-7.31 19.95-12.79 3.22-3.07 6.09-6.5 8.58-10.18.3-.44-1.05-.3-1.16-.28-.55.09-1.36.29-1.7.79-4.49 6.66-10.3 12.4-17.04 16.77a58.09 58.09 0 0 1-5.07 2.94c-.95.48-1.91.94-2.88 1.38-.8.36-2.08 1.18-2.97 1.04-1.58-.24-2.01-2.5-1.69-3.75.48-1.92 2.35-2.74 4.13-3.07-.35-.14-.7-.29-1.04-.43-4.37 3.39-9.46 5.82-14.88 6.95.35.14.7.29 1.04.43 2.34-1.78 5.02-3.9 5.3-7.07.25-2.91-1.74-5.07-4.67-4.95-1.51.06-3 .51-4.33 1.22-.51.27-1.27.63-1.55 1.14-.15.28-.1.83-.17 1.15-.08.4-.2.79-.34 1.18-.95 2.65-3.36 5.45-6.31 5.76.27.07.55.13.82.2-.1-3.06 1.95-6.9 5.24-7.36-.39-.09-.77-.19-1.16-.28a38.707 38.707 0 0 1-11.3 10.29c-2.12 1.27-4.51 2.55-6.92 3.19-2.4.64-3.53-1.36-3.7-3.46-.17-2.22.53-4.28 1.25-6.35.95-2.76 1.96-5.5 3.02-8.21 2.12-5.44 4.45-10.79 6.99-16.05 1.4-2.9 2.87-5.78 4.39-8.62.8-1.49 1.61-2.97 2.45-4.44.38-.67.76-1.33 1.14-2 .38-.65.88-1.99 1.53-2.37l-1.74.54c.1-.01.2-.01.3-.02l-.74-.09c.03.15.1.21.22.17l2.47-.45c-.05-.02-.09-.05-.14-.07-.52-.28-1.35-.03-1.87.16-.1.03-1.28.56-.83.8z"/>
    <path class="st0" d="M374.13 140.58c2.71-6.52 4.8-13.26 6.21-20.18.27-1.33-2.22-.55-2.64-.17-8.87 7.87-13.5 19.1-17.02 30.16-4.29 13.45-7.73 27.18-11.15 40.87-1.8 7.22-4.54 15.13-2.25 22.55.34 1.09 2.79.44 2.91-.54 1.83-14.98-.15-30.37-5.75-44.38-1.56-3.91-3.41-7.7-5.5-11.35l-1.11 1.44c15.48-5.28 31.41-9.17 47.58-11.56.55-.08 1.55-.38 1.63-1.06.07-.67-.79-.84-1.29-.76-16.44 2.44-32.64 6.34-48.37 11.71-.59.2-1.55.68-1.11 1.44 7.32 12.81 11.37 27.51 11.66 42.26.08 4.2-.14 8.4-.65 12.58l2.91-.54c-2.04-6.59.12-13.48 1.73-19.92 1.69-6.79 3.39-13.57 5.18-20.33 1.78-6.7 3.63-13.38 5.66-20.01 1.71-5.59 3.58-11.16 6.12-16.44 2.78-5.8 6.36-11.18 11.2-15.47-.88-.06-1.76-.11-2.64-.17-1.37 6.75-3.38 13.34-6.02 19.7-.6 1.39 2.29 1.17 2.71.17zM433.72 135.35c-4.82 21.6-9.55 43.23-14.47 64.82-.47 2.08-1.06 4.16-2.03 6.07-.82 1.62-2.14 3.58-4.07 3.88.41.1.82.21 1.22.31-4.38-17.93 1.48-36.69 8.35-53.21 6.36-15.3 15.07-30 27.36-41.31 2.9-2.67 6.42-6.15 10.53-6.64 1.05-.13 2.17-.01 2.57 1.12.33.93-.07 2.04-.42 2.9-.81 2.01-1.81 3.96-2.76 5.9-3.94 7.98-8.48 15.64-13.02 23.29-4.5 7.57-9.02 15.14-13.01 23.01-3.84 7.57-7.61 15.59-9.17 23.99-1.42 7.65-.52 15.85 5.28 21.53 5.05 4.95 12.25 6.99 19 8.32 1.77.35 3.55.65 5.33.93.64.1 1.56-.1 2.05-.55.42-.38.39-.77-.23-.87-7.23-1.15-15.04-2.51-21.09-6.93-3.1-2.26-5.51-5.3-6.81-8.92-1.43-4-1.5-8.34-.88-12.5 1.3-8.71 5.19-17.04 9.11-24.83 4.12-8.21 8.86-16.09 13.55-23.98 4.62-7.77 9.21-15.57 13.17-23.69.94-1.92 2.07-3.91 2.68-5.97.5-1.68.22-3.42-1.62-4.03-1.81-.6-4.09-.09-5.85.48-2.01.64-3.85 1.66-5.56 2.87-3.44 2.41-6.52 5.44-9.41 8.47a98.568 98.568 0 0 0-8.14 9.74c-5.01 6.81-9.21 14.21-12.77 21.86-3.73 8.01-6.91 16.35-9.28 24.86-2.52 9.05-4.03 18.56-3.05 27.96.24 2.36.66 4.69 1.22 6.99.1.42.94.36 1.22.31 4.09-.65 6.63-3.53 8.09-7.24.8-2.02 1.25-4.13 1.72-6.24.65-2.92 1.31-5.85 1.96-8.77 2.57-11.53 5.15-23.07 7.72-34.6 1.47-6.58 2.94-13.16 4.4-19.74.2-.93-2.69-.47-2.89.41z"/>
    <path class="st0" d="M452.02 188.98c-2.82 1.55-4.53 4.53-4.15 7.77.04.3 1.04.1 1.16.08 5.22-.89 10.04-3.72 12.82-8.3-.69.27-1.38.53-2.07.8 2.49-.15 4.48 2.38 4.63 4.65.04.56 2.31-.25 2.55-.39 1.7-.98 2.94-2.48 4.54-3.59 1.03-.71 2.01-.52 2.8.4.6.7.83 1.57.42 2.43-.28.58 2.32-.17 2.52-.28 2.03-1.07 4.06-2.13 6.09-3.2 1.02-.53 2.03-1.07 3.05-1.6.37-.2 1.38-.96 1.78-.93-.37-.03.25.78.29 1.06.12.88-.18 1.87-.33 2.74-.17.97-.36 1.93-.47 2.91-.23 1.96-.14 3.87.87 5.61.38.65 3.08-.46 2.9-.78-1.28-2.19-1.06-4.66-.66-7.07.27-1.6 1.68-5.34-.96-5.5-2.39-.15-4.69 1.48-6.7 2.53-2.68 1.41-5.37 2.82-8.05 4.23.84-.09 1.68-.18 2.52-.28.52-1.1.17-2.23-.7-3.04-1.06-.98-2.55-.98-3.89-.72-1.5.28-2.91.9-4.15 1.8-1.41 1.03-2.53 2.39-4.06 3.27l2.55-.39c-.12-1.82-1.21-3.44-2.82-4.31-1.42-.76-3.91-1.09-5.27-.02-.66.52-1.08 1.53-1.63 2.19-.68.82-1.45 1.56-2.29 2.22-1.68 1.32-3.59 2.24-5.7 2.6.39.03.78.06 1.16.08-.33-2.78.96-5.63 3.45-7 .52-.28.33-.49-.15-.54-.64-.06-1.5.27-2.05.57zM502.15 191.82c-1.44.29-4.65.28-4.5 2.41.12 1.79 2.26 2.28 3.7 1.91 2.01-.52 3.89-2.08 5.64-3.14 1.8-1.09 3.58-2.4 5.51-3.26 1.05-.47 2.82-1.05 3.33.42.51 1.49-.61 3.16-.28 4.72.78 3.69 5.62 2.47 7.98 1.44 14.49-6.32 24.87-19.24 31.98-32.97 4.58-8.86 8.03-18.24 11.45-27.58.31-.85-.5-1.3-1.26-1.24-3.96.32-6.73 3.12-8.74 6.33-2.49 3.97-4.38 8.43-6.17 12.75a137.06 137.06 0 0 0-8.22 27.85c-.45 2.44-.72 4.92-1.23 7.35-.45 2.16-1.17 4.42-2.94 5.87.49-.13.98-.26 1.46-.39-2.47-.28-2.91-3.7-2.29-5.61.96-2.97 4.56-3.82 7.29-4.15 3.98-.48 8.03-.62 12.03-.91 4.45-.32 8.9-.63 13.36-.95-.17-.64-.34-1.28-.52-1.93-5.32 2.74-8.12 9.59-5.45 15.12.61 1.26 3.48.42 2.9-.78-2.11-4.36-.62-10.33 3.84-12.63 1.23-.63.9-2.03-.52-1.93-4.7.33-9.4.67-14.1 1-4.25.3-8.61.36-12.82 1.08-3.13.54-6.67 1.81-8.34 4.72-1.24 2.16-1.24 5.31.34 7.31.77.98 1.9 1.6 3.14 1.74 1.74.19 3.06-1.64 3.85-2.97 1.8-3.02 2-6.76 2.57-10.15a134.22 134.22 0 0 1 12.71-38.67c1.54-3.03 3.69-7.63 7.58-7.94-.42-.41-.84-.82-1.26-1.24-5.23 14.26-10.55 28.9-19.88 41.07-4.08 5.33-8.87 10.13-14.44 13.91-2.64 1.79-5.64 3.67-8.7 4.63-1.32.41-2.78.32-2.74-1.43.03-1.37.69-2.67.35-4.06-.84-3.38-5.22-2.56-7.55-1.52-1.86.84-3.59 2.09-5.33 3.15-.95.58-1.91 1.16-2.86 1.74-.49.3-.97.61-1.46.89-.22.12-1.27.58-.92-.18-.37.28-.75.55-1.12.83l3.16-.63c.58-.12 1.36-.72 1.18-1.39-.19-.71-1.14-.71-1.71-.59zM583.64 184.83c-1.9.65-4.15 1.46-5 3.46-.32.75-.45 1.62-.1 2.4.41.92 1.29 1.47 2.16 1.89 3.71 1.79 8.23 1.68 11.9-.15.43-.21 1.17-.74.74-1.29-.4-.51-1.45-.34-1.94-.1-2.44 1.21-5.32 1.32-7.9.28-1.21-.49-2.61-1.24-2.16-2.77.36-1.24 1.65-1.68 2.74-2.05.48-.16 1.39-.55 1.23-1.22-.15-.64-1.23-.6-1.67-.45z"/>
    <path class="st0" d="M571.63 170.41c.59 0 1.62-.19 1.91-.8.28-.59-.24-.9-.8-.9-.59 0-1.62.19-1.91.8-.28.59.24.9.8.9z"/>
</svg>
