<svg version="1.1" id="sig" xmlns="http://www.w3.org/2000/svg" x="0" y="0" viewBox="0 0 800 400" style="enable-background:new 0 0 800 400" xml:space="preserve"><style>.st0{fill:#231f20}</style><path class="st0" d="M182.4 211.97c6.72-19.07 13.41-38.16 20.17-57.22 6.49-18.32 13.46-36.41 22.31-53.74 4.85-9.5 10.15-18.76 15.86-27.75.23-.37-.71-.33-.8-.32-.61.04-1.21.25-1.74.54-17.28 9.43-26.76 28.44-28.96 47.44-2.8 24.21 4.72 47.93 11.22 70.93 1.64 5.79 3.23 11.6 4.6 17.46 1.3 5.53 3.12 11.81 1.37 17.44-.67 2.18-1.91 4.26-3.68 5.72-1.93 1.58-4.16 1.65-6.42.71-4.51-1.87-7.54-6.29-10.09-10.23a624.575 624.575 0 0 1-23.18-38.68c-.7-1.26-1.39-2.52-2.07-3.79-.34-.63-.69-1.27-1.03-1.9-.23-.43-1.24-1.78-1.06-2.31.13-.38 1.15-.9 1.47-1.13.54-.4 1.08-.8 1.62-1.19 1.11-.8 2.24-1.57 3.38-2.32 2.11-1.38 4.27-2.67 6.48-3.89 18.37-10.12 39.3-14.46 59.75-18.11 2.52-.45 5.04-.89 7.56-1.32.31-.05 1.69-.34 1.7-.79.01-.49-.85-.33-1.16-.28-22.97 3.98-46.56 8.17-67.46 19.02-5.75 2.99-11.22 6.46-16.3 10.49-.1.07-.14.16-.14.28a626.788 626.788 0 0 0 27.8 47.1c3.54 5.44 8.53 11.84 15.83 10.74 3.28-.5 6.17-2.25 8.07-4.96 2.22-3.16 2.72-7.09 2.42-10.86-.36-4.49-1.56-8.95-2.63-13.31-1.09-4.44-2.3-8.86-3.53-13.26-2.48-8.81-5.1-17.58-7.28-26.47-4.29-17.45-6.97-36-3.01-53.78 3.11-13.94 10.6-27.59 22.48-35.9 1.44-1 2.93-1.92 4.47-2.76-.85.07-1.69.14-2.54.22a338.626 338.626 0 0 0-26.39 50.42c-7.71 18.36-13.98 37.32-20.6 56.09-3.78 10.73-7.56 21.47-11.35 32.2-.18.51 2.6.22 2.86-.53zM345.19 111.58c-10.69 2.84-19.8 9.39-27.98 16.62-8.5 7.51-16.41 15.7-23.73 24.37a235.648 235.648 0 0 0-20.13 27.72c-2.95 4.75-5.99 9.74-7.14 15.28-1.04 4.97-.15 9.92 2.59 14.2 6.8 10.62 20.25 12.75 31.88 12.78.59 0 1.62-.19 1.91-.8.28-.59-.24-.89-.79-.89-10.27-.03-21.51-1.6-28.56-9.89-3.13-3.68-4.91-8.34-4.5-13.21.47-5.57 3.22-10.64 6.06-15.33 11.25-18.6 25.14-35.61 41.08-50.4 8.63-8 18.13-15.88 29.73-18.96.44-.12 1.41-.53 1.25-1.14-.18-.6-1.26-.46-1.67-.35zM342.29 162.96c.14-1.01.29-2.02.43-3.03.14-.95-1.95-.36-2.31-.12-8.33 5.33-15.22 12.63-19.97 21.31-1.2 2.18-2.25 4.45-3.14 6.78-.79 2.06-1.53 4.47-.95 6.68 1.26 4.86 7.43 4.16 11.07 2.97a33.86 33.86 0 0 0 14.28-9.13c.48-.51-.42-.69-.74-.7-3.92-.07-7.7 1.12-10.93 3.32-.49.33-.32.79.23.87 4.74.67 9.64-.04 14-2.05 1.64-.75 3.44-1.55 4.15-3.33.57-1.42.05-2.53-1.56-2.47-.14.45-.28.89-.43 1.34 2.31-.66 4.9-1.4 6.99.24 1.95 1.53 1.74 3.79.35 5.64-2.52 3.38-6.5 5.8-10.62 6.6-.4.08-1.64.34-1.67.91-.03.61.81.52 1.21.48 7.83-.75 15.45-3.27 22.19-7.34 1.05-.63.29-1.17-.65-1.03-2.95.45-7.5 1.43-7.71 5.15-.24 4.36 5.33 2.93 7.86 2.34 7.95-1.87 15.21-5.92 21.76-10.71 6.98-5.1 13.37-11.04 19.59-17.03a317.55 317.55 0 0 0 18.79-19.69c3.31-3.78 6.65-7.6 9.65-11.63 2.65-3.56 4.88-7.56 4.76-12.12-.02-.77-2.05-.09-2.32.05-12.06 6.72-21.61 16.61-28.84 28.3-6.84 11.06-11.76 23.14-16.94 35.02-2.94 6.74-5.97 13.44-9.48 19.9l2.79-.75c-8.68-8.82-13.02-21.53-11.51-33.82-.3.23-.6.47-.9.7 25.71-10.64 53.32-15.3 80.81-18.58 7.81-.93 15.64-1.75 23.47-2.57.4-.04 1.64-.36 1.67-.91.02-.6-.81-.53-1.21-.48-27.98 2.92-56.16 5.91-83.28 13.72-7.65 2.2-15.19 4.79-22.54 7.84-.26.11-.85.36-.9.7-1.54 12.56 2.81 25.45 11.68 34.48.64.65 2.43-.08 2.79-.75 12.11-22.31 18.52-48.26 35.79-67.5a71.249 71.249 0 0 1 18.33-14.63c-.77.02-1.55.04-2.32.05.09 3.76-1.58 7.19-3.68 10.21-2.18 3.15-4.72 6.06-7.2 8.98a316.416 316.416 0 0 1-16.03 17.53c-5.57 5.66-11.35 11.14-17.36 16.32-5.54 4.77-11.4 9.28-17.96 12.56-3.6 1.8-7.44 3.2-11.4 3.93-.92.17-1.92.42-2.57-.43-.46-.61-.51-1.48-.34-2.21.47-2 2.53-2.32 4.27-2.58-.22-.34-.43-.69-.65-1.03a47.334 47.334 0 0 1-19.99 6.62c-.15.46-.3.93-.45 1.39 5.43-1.04 11.59-4.06 14.41-9.07 1.32-2.34.57-4.81-1.74-6.13-2.84-1.62-6.33-.74-9.27.11-.31.09-1.24.37-1.28.82-.04.45.49.53.85.51.44-.02-.47 2.1-.66 2.29-.91.93-2.58 1.46-3.79 1.88-2.94 1.02-6.07 1.24-9.14.81.08.29.15.58.23.87 2.24-1.52 4.77-2.23 7.47-2.18-.25-.23-.5-.47-.74-.7-3.05 3.28-6.8 5.89-10.99 7.5-1.83.71-3.93 1.39-5.89.84-2.01-.56-3.04-2.41-3.08-4.41-.05-2.14.83-4.26 1.63-6.2.8-1.94 1.71-3.83 2.72-5.67 2.08-3.78 4.63-7.32 7.52-10.52a55.18 55.18 0 0 1 11.21-9.52l-2.31-.12c-.14 1.01-.29 2.02-.43 3.03-.1.94 2.8.41 2.92-.45zM487.62 156.43a688.485 688.485 0 0 1-25.89 48l2.88-.63c.56-8.39 4.06-16.2 8.13-23.43 3.97-7.08 8.47-13.87 13.38-20.33 9.66-12.69 21.02-24.13 33.71-33.79 7.23-5.5 15.24-10.58 24.42-11.82l-1.18-.36c-.73 5.73-4.58 10.13-8.77 13.81-4.58 4.03-9.51 7.67-14.12 11.67a267.323 267.323 0 0 0-27.58 27.72c-4.2 4.89-8.23 9.93-12.07 15.12-3.71 5.01-7.87 10.22-9.71 16.26-1.58 5.19-.82 10.56 2.31 15.01 2.89 4.1 7.13 7.06 11.59 9.24 6.05 2.97 12.72 4.6 19.34 5.74 7.7 1.33 15.52 1.74 23.32 1.29.53-.03 1.63-.2 1.93-.72.3-.52-.26-.59-.71-.57-6.96.41-13.94.09-20.83-.98-6.07-.94-12.22-2.33-17.91-4.7-9.25-3.86-18.94-11.77-16.64-22.96 1.26-6.14 5.3-11.39 8.92-16.35 3.8-5.21 7.8-10.28 11.97-15.2 8.15-9.61 16.98-18.65 26.4-27.02 5.15-4.57 10.64-8.71 15.85-13.2 4.48-3.85 8.79-8.54 9.57-14.63.07-.55-.88-.4-1.18-.36-8.33 1.12-15.95 4.95-22.81 9.67-6.86 4.72-13.27 10.17-19.3 15.91a180.68 180.68 0 0 0-30.93 38.84c-4.91 8.29-9.34 17.16-10 26.93-.05.76 2.63-.2 2.88-.63 9.26-15.65 17.9-31.66 25.89-48 .27-.55-2.48-.32-2.86.47z"/><path class="st0" d="M504.49 192.03c-1.66.72-3.25 1.6-4.73 2.64-1.25.88-2.74 1.9-3.46 3.3-1.78 3.49 4.16 3.34 6.05 3.05 2.56-.38 5.96-1.73 6.37-4.66.35-2.51-1.27-4.51-3.78-4.5-.41.42-.82.85-1.23 1.27 2.61-.12 4.47 2.73 4.23 5.09-.07.68 2.63-.14 2.88-.63 1.41-2.69 3.56-4.99 6.25-6.44.64-.35 3.14-1.83 3.51-.59.2.68-.68 2-.94 2.58-.37.83-.74 1.66-1.11 2.5-.35.78 2.31.03 2.55-.15 4.57-3.39 9.47-6.25 14.66-8.57-.76 0-1.52 0-2.28-.01-1.36 2.33-2.77 4.64-4.07 7-.96 1.74-1.84 4.12-.13 5.71 1.25 1.16 3.26 1.23 4.85 1.12 2.46-.17 4.9-.8 7.23-1.6.33-.11 1.14-.45.84-.9-.28-.41-1.58.02-1.88.12-2.29.79-8.29 2.67-9.07-1.12-.39-1.91 1.06-3.86 1.96-5.42 1.05-1.8 2.09-3.59 3.14-5.39.41-.71-2.12-.08-2.28-.01a80.672 80.672 0 0 0-15.21 8.89l2.55-.15c.56-1.25 1.12-2.49 1.67-3.74.33-.75.76-1.66-.03-2.26-1.45-1.1-4.2.02-5.64.59-4.03 1.59-7.42 4.47-9.44 8.33l2.88-.63c.33-3.38-2.75-5.73-5.9-5.59-.52.02-1.65.21-1.93.71-.3.53.26.56.71.56 1.5 0 2.2 2.27 2.16 3.44-.07 2.06-1.8 3.25-3.73 3.31-.93.03-2.41.07-2.99-.77-.67-.95.22-2.08.92-2.74 1.75-1.66 3.93-2.9 6.12-3.86.41-.18.83-.55.33-.84-.5-.29-1.56.15-2.03.36z"/><path class="st0" d="M555.47 188.84c-7.49 1.19-14.45 4.83-19.53 10.49-.7.78.2 1.36 1.01 1.22 7.54-1.35 14.7-4.18 21.07-8.46-.7-.28-1.4-.56-2.11-.84-1.44 1.75-2.87 3.51-4.31 5.26-.4.49-.32.97.32 1.18.69.22 1.52-.1 2.05-.55 3.55-3.01 7.96-4.69 12.61-4.91-.4-.33-.8-.66-1.19-.99-1.33 2.13-2.82 4.7-1.94 7.29.78 2.3 2.9 3.25 5.21 2.87 2.68-.43 5.33-1.99 7.64-3.34 2.55-1.49 4.92-3.26 7.18-5.16 8.87-7.44 16.48-16.7 22.95-26.25 3.74-5.53 7.09-11.31 10.04-17.3.58-1.18-1.39-1.01-1.96-.78-5.38 2.13-8.75 7.03-11.68 11.78-3.38 5.48-6.24 11.27-8.59 17.26-2.25 5.75-4.35 11.89-5.29 18.01-.39 2.54.54 4.85 3.33 5.15 2.61.28 5.04-.98 7.25-2.19a59.389 59.389 0 0 0 16.07-12.87c1.13-1.28-1.39-1.38-2.11-.84-4.97 3.79-8.72 8.8-10.91 14.65-.14.38.33.62.59.71 2.04.73 4.25.52 6.2-.4.45-.21 1.15-.74.74-1.29-.39-.53-1.46-.33-1.94-.1-1.11.53-2.12.48-3.26.07l.59.71c1.96-5.24 5.39-9.91 9.84-13.3-.7-.28-1.4-.56-2.11-.84-3.58 4.07-7.68 7.62-12.26 10.52-1.95 1.23-4.24 2.9-6.56 3.31-3.24.58-2.66-3.26-2.23-5.24 2.37-10.91 6.47-21.42 12.11-31.06 2.8-4.78 5.99-10.5 11.41-12.64-.65-.26-1.31-.52-1.96-.78-4.64 9.41-10.27 18.34-16.84 26.52-3.26 4.07-6.75 7.96-10.44 11.64-3.65 3.64-7.55 7.06-12.01 9.67-1.24.73-2.52 1.37-3.84 1.94-1.24.54-2.56 1.16-3.61-.04-2.02-2.29-.2-5.41 1.12-7.51.5-.81-.69-1.01-1.19-.99-5.65.27-11.01 2.45-15.31 6.09.79.21 1.58.42 2.36.63 1.44-1.75 2.87-3.51 4.31-5.26 1.11-1.35-1.38-1.32-2.11-.84-5.7 3.83-12.12 6.49-18.88 7.69l1.01 1.22c4.39-4.89 10.31-8.27 16.82-9.31.55-.09 1.55-.37 1.63-1.06.07-.65-.8-.82-1.29-.74zM624.3 190.47c-2.32.8-4.86 1.74-6.15 3.99-1.06 1.86-.79 4.18 1.08 5.38 1.88 1.21 4.39 1.12 6.53 1.08 2.81-.06 5.61-.45 8.35-1.1.55-.13 1.36-.65 1.2-1.32-.17-.69-1.18-.67-1.7-.54-2.07.5-4.18.8-6.31.92-1.68.09-3.62.26-5.23-.35-1.44-.54-1.98-2.02-1.35-3.41.73-1.63 2.52-2.24 4.09-2.78.54-.18 1.37-.61 1.2-1.32-.17-.66-1.2-.73-1.71-.55zM625.13 176.28c.62 0 1.61-.18 1.9-.83.27-.59-.23-.99-.82-.99-.62 0-1.61.18-1.9.83-.27.59.23.99.82.99z"/><path class="st0" d="M500.11 170.32c32.9-1.19 65.83-1.8 98.75-1.81 32.92-.02 65.85.56 98.75 1.72 18.47.65 36.93 1.49 55.37 2.51.57.03 1.63-.22 1.91-.79.29-.6-.25-.8-.78-.83-32.87-1.82-65.78-3.05-98.7-3.7a2765.007 2765.007 0 0 0-154.18 1.28c-.58.02-1.62.18-1.91.79-.27.56.24.85.79.83z"/></svg>