<svg xmlns="http://www.w3.org/2000/svg" xmlns:xlink="http://www.w3.org/1999/xlink" viewBox="0 0 65 100" xmlns:v="https://vecta.io/nano"><style><![CDATA[.F{fill:#fff}.G{font-family:CormorantGaramond-Regular}]]></style><g class="F"><path d="M41.5 41.8c-.1 0-.1 0 0 0-.1.1-.2.1-.2.1s.1 0 .1.1h-.2c-.2.1-.5 0-.7 0l.1-.1h-.1c-.1.1-.1.2-.3.3H42c0-.1 0-.2-.1-.3 0 0-.1 0-.1-.1-.1.1-.2.1-.3 0zM44.7 24v.2c-.7 0-1.4 0-2.1-.1-.5 0-1.2 0-1.8.1h.8H45s.1-.1.2-.1c0 0-.1-.1-.2-.1h-.3zm-.1-15.6c-1.1 0-2.2-.1-3.3-.1h-6.4c-.7 0-.9.3-.9 1h.3v-.5c0-.1 2.5-.1 4.3 0h6v.3h.2l.1 5.9-.1 8.9c.1-.1.1-.2.2-.3.1 0 .2.1.3.1V9c-.1-.4-.2-.6-.7-.6zM34.1 24c.4-.7.5-1.4.6-2.1h-.5c-.1.8-.1 1.6-.1 2.1zm0 .2h0l3.8.1h-.3-.4-2.3c.1-.1-.6-.1-.8-.1zm-1.8 3.2v-.2-.1c-.2-.3-.3-.6 0-1-.4-.2-.2-.5-.2-.9-.1-.2-.3-.4-.5-.4h-1.5-2.5c-2.1 0-4.2-.1-6.3-.1-.7 0-.9.2-.9.9v.6-.8h.7v-.3c0-.1 4 0 5.7 0H32l-.2 5.3v2.9l-.1 5.9h0c.2 0 .4-.1.4-.4v-7.4c0-.1 0-.2.1-.4v.6c.2-.4.2-.6.2-.9 0-.7-.2-1.4 0-2.1a1.71 1.71 0 0 0-.1-1.2zm-.2 3.6h0v-2.5h0V31zm11.7 8.2h-.7-2.3-.2c-.1 0-.2 0-.4.1h3.1c.1 0 .3 0 .5-.1 0 .1 0 0 0 0z"/><path d="M44.2 24.7h-4.6c-1.1 0-2.2-.1-3.2-.1-.5 0-1 .1-1.5.1-.6 0-.8.2-.8.8v.2c.1 0 .3 0 .4.1v-.6H41v.1h.8c.3 0 3.2.2 3.2 0-.1.2-.1.3-.2.5.1 1.5.1 12.3 0 12.3h-.1v1.1h.1c.2 0 .4-.1.4-.4v-5.9-7.4c0-.7-.1-.8-1-.8z"/><path d="M45.1 39.6c-.8 0-1.4-.1-2.1 0-1 .1-2-.1-3-.2-.2 0-.4 0-.6.1-.2 0-.5.1-.8.2v-.3c-.5 0-.8 0-1-.1h-.2c-.2 0-1.6-.1-2.5-.1v.2c.3 0 .6 0 .9.1h-.1c-.1.2-.3.2-.5.2h-.5-.2 0c-.3 0-.6-.1-.9-.1-.1 0-.1-.1-.2-.1v.2h-.1c-.1-.2-.1-.4-.1-.5-.1.6-.5.8-1.1.4h-.3v.2c-.1 0-.3 0-.4-.1-.1.1-.2.1-.4.2v-.1s.1-.1.2-.1c-.5-.1-1.1-.1-1.6-.2v.2h-1.8c-.5.5-6.2-.5-6.5-.1h.9c.2 0 .4.1.6.1v.1c-.5 0-.9-.1-1.4-.1.1.1.2.1.2.1h-.1c-.5-.2-.9 0-1.4 0-.2 0-.3-.1-.5-.1v.2c0-.4-.5-.9 0-1.4 0 .2.1.4.1.6h0v-2.3-10-3.4c0-.1.1-.2.1-.4h.1c-.1.2-.2.2-.2.4-.1.6.1.7.6.7h0l-.1-7.3.1-7.6h.6c0-.1 0-.2-.1-.3.1.3 6.4-.4 6.5 0v.2h3.4v.2c.2-.1.5-.1.7-.2v.9.2h.1c.1 0 .1 3.6.1 6.9l-.1 7c.2 0 .3.2.3.3.1.6.1 1.3.2 2 0-.1.1-.1.1-.2h.1c.1.2.1.4.1.6 0 .1.1.3.1.4v.2s-.1 0-.2.1c.1.2.2.2.4.4-.2.5-.1 1.6.2 1.8 0-.4.1-.8.1-1.1v-1.2c-.1-1 0-1.9 0-2.9 0-.4 0-.5.5-.5h.1 0-.1s0-.1.1-.1v-1.3H33v-.4-6.9-4.7-.9s-.1 0-.1.1c.3-.6.1-1.3.1-2-.5 0-.9 0-1.4.1.2.8-.2 1.5.3 2.3-.2.1-.2.3-.2.6v2.1c0 .1 0 .2-.1.4V9c-.1-.5-.1-.6-.6-.6-.7 0-1.3-.1-2-.1h-5.6c-.5.1-1.5.2-2.5.2-.2 0-.5.1-.5.4v.6 12.7c.1.4.1.8-.5.8v-3.5-6l.1-5.1c0-.3-.1-.5-.3-.7l-2.1-2.1c-.2-.2-.5-.4-.8-.6-.1-.1-.2-.2-.2-.4-.2-.1-.4-.2-.6-.4s-.5-.4-.7-.6c0-.1-.2-.1-.3-.1-.1.4-.1.8-.1 1.1s-.1.6-.2.8c0-.1-.1-.1-.1-.1v-.5c-.1.2-.2.5-.2.8h0c.1-.6.2-1.2.2-1.9V3a.76.76 0 0 0-.2-.4l-1.5-1.5c-.3 0-.2.2-.2.3v45.2h.1l.1-3.2v-6.6-.7 1.7h.1v-.6c-.1-.5-.2-.9-.2-1.4v-1c0-.3.1-.6 0-.9-.2-1.3 0-2.6-.1-4 0-.5.1-.9.1-1.3 0-.1.2-.2.4-.4-.1 0-.1-.1-.4-.1.1-.2.2-.4.2-.7v-.7c.1 0 .2.1.3.1.6-.8.4-1.5.1-2.4-.1-.2-.1-.5-.1-.9h-.2v.8c0 .1.1.2.1.4s-.2.5 0 .8c0 .1-.1.2-.2.3v-.4c0-.2.1-.4-.2-.4-.1 0-.1-.1-.1-.2.1-.6.1-1.2.2-1.9.1.1.1.3.1.5.1-.3.1-.3 0-.7 0-.1.1-.4.1-.5.1 0 .2.1.3.2l.1.1c.1-.1.1-.1.1-.3.1.1.1.1.1.2h0c0-.2.1-.4.4-.5.1 0 .1-.2.1-.4-.1.1-.2.3-.3.4-.1 0-.1-.1-.4-.2.3-.1.5-.2.7-.3v-.1.1h0 0c.1.2.1.4.2.6 0-.3-.1-.7.1-.8 0-.4-.1-.6 0-.9.1-.4.2-.9.4-1.3.1-.4.1-.4-.2-.6 0 .1-.1.1-.3.2l.3-.9c-.2.3-.4.5-.6.9-.2-.5-.2-.8.2-1.1 0 0-.1-.1-.3-.1 0-.5.1-1 .5-1.5v.4c-.2.4-.2.4.2.5h.1c-.1.1-.2.2-.2.3.3 0 .4-.2.4-.4 0-.6-.1-1.2-.2-1.9v1.6h0v-.5-.5h-.1c-.2.3-.3.6-.5.9 0 .1-.1.3-.1.5v1c-.4-.2-.1-.5 0-.8-.2.1-.3.1-.5.1.1-.1.1-.2.2-.4.1 0 .1.1.1.1v-2c.2-.1.4-.2.6-.4 0 .2-.2.8.4.9 0-.4.1-.9-.1-1.3-.1 0-.2 0-.2.1 0-.1-.1-.2-.1-.3v-.2c.1 0 .2.1.2.1v.3c.2-.1.1-.5 0-.6-.2-.1-.4-.3-.6-.5 0 0-.1 0-.1.1-.2-.2.2-.6-.3-.6.1.4 0 .9-.2 1v-1.3s.2-.1.3-.1l.6-.9c.4.2.4.2.2.6.3-.2.5-.4.7-.6l.1.1v.9h0c.1-.2.2-.5.2-.8v-.9c.1.2.2.5.2.8h.1c0-.2.1-.5 0-.7-.1-.4.1-.4.4-.5 0 .3-.4.5-.1.9.1-.1.2-.3.3-.5.1.9.2 1.8-.3 2.5.1 0 .1.1.1.1.1-.1.3-.2.5-.4h0c0-.1.1-.3.2-.6-.1.2-.1.5 0 .8h-.1v.1c-.2.4.1.8.1 1.1 0 .1.2.1.2.2-.2.3-.1.6 0 .9v.1c-.4.2-.2.5-.2.8 0 .2.1.5-.4.5v.7h0c-.1.1-.2.2-.2.4v.1s-.1.1-.2.1c.1.1.1.2.2.3-.1.1-.2.4-.2.5h-.1c.1-.1.1-.3.1-.5h-.4v1.1c.2 0 .5 0 .6-.4l.3-.9h.1v.5l1-.6c0 .2.1.4.1.6l-.4.4c-.1 0-.2-.1-.4-.1.1.1.1.3.1.4l-.1.1c-.1.1-.2 0-.2 0h-.2V19l-.5.5s-.1 0-.1-.1c-.2.4-.2.9 0 1.4.1-.2.1-.3.2-.5.1.3.1.5.1.8 0-.1.1-.1.1-.2h.1c-.1.1-.1.4-.2.5.4.2.6.1.7-.4-.1-.1-.4-.1-.4-.2 0-.2.1-.4.1-.6.2.2.4.2.5.4 0 .2.1.4.1.6h.1v.8c.1-.1.1-.1.3-.2-.1.4-.1.7-.1 1-.2-.1-.2-.1-.5-.8-.1.4-.5.7-.4 1.1 0 .1.2.2.4.4.1-.2.2-.5.2-.6.2.2.2.5 0 .7-.3.2-.2.4.1.5a1.38 1.38 0 0 1-.4.3c.1.4.1.9.2 1.4v1c0 .2.2.5.2.6.5 0 .2.4.3.6-.1 0-.1-.1-.3-.2v.4c-.1 0-.1-.1-.2-.2l-.1.1c.2.2.4.5.6.7-.1-.1-.1-.1-.3-.1.1.4.2.8.2 1.1-.6.1-.2.5-.3.9 0 0 .1.1.3.2 0 .4-.1.8-.1 1.2.1 0 .2-.1.3-.1 0 .3-.1.6-.1 1 .1-.1.1-.2.3-.3-.1.6-.2 1.1-.2 1.6s.1 1 .3 1.6h.1v-.4c.1-.3.1-.6.2-.9.1-.2.2-.5 0-.8-.1-.1-.1-.4.1-.4 0 .5.1.9.1 1.4 0 0 .1-.1.2-.1a1.38 1.38 0 0 1 .3.4c-.1.1-.4.1-.5.2-.1.2 0 .4 0 .6v.4 1c0 .4.1.7.1 1.1v.4c0 .1-.1.2-.1.3-.1.1-.1.2 0 .4.2.4.2.6-.1 1l-1.5 1.7c.1 0 .2.1.3.1-.1-.1-.1-.1-.1-.2.4 0 .8 0 1.1-.1v-.1h-.8v-.1h1.1v.1c.2 0 .5.1.8.1v.1h-.8v.1c.1.1.1.1.2.1.8 0 1.6-.1 2.5-.2.2 0 .5-.1.7.1 0 0 .2-.1.4-.1h.8l-.2-.2c.2-.1.4-.1.5-.2l.2.2h-.5c.1 0 .1.1.1.1h0 .5c.1-.1.3-.4.5-.5.1 0 .1.1.1.1v.1c.4 0 .9 0 1.3.1v.1c-.1 0-.2 0-.4.1.3.1.5.2.7.2.1 0 .1-.2.2-.5h.3v-.1h.1c.5.2 1 .2 1.6.2.4 0 .8-.1 1.3-.1.9.1 1.8.2 2.8-.2.3-.1.6 0 .9 0 .2 0 .4.1.6.1.3 0 .6 0 .9.1a1.38 1.38 0 0 1-.3-.4c.5-.2 1 .1 1.6 0-.5-.2-.9-.2-1.3-.4.3-.1.5-.2.7-.3.1-.4 0-.9-.5-1 0-.1.1-.1.1-.2-.1 0-.1 0-.2-.1.5-.2.8.1 1.2.3h-.4c.2.2.4.5.6.7h0 .4 0c.1 0 .1-.1.2-.2-.1 0-.1-.1-.4 0 .1-.1.2-.1.2-.1h.4v.1c-.2.1-.3.1-.5.2h0c-.1.1-.2.1-.2.2.1.2.2.5.6.2 0 .2-.1.2-.1.4.6 0 1.2.4 1.9 0-.2 0-.3-.1-.5-.1v-.1h1.2c.2.4.6.2.9.2.1-.1.2 0 .4.1h.3s.1 0 .1-.1c-.1-.1-.1-.1-.2-.1.1-.1.2-.1.3-.2 0 .1.1.1.1.2h.2.1c.1 0 .1 0 .1.1.5.2.6.1 1-.4a1.38 1.38 0 0 1-.3-.4c.4-.1.2-.8.8-.7-.6-.1-1.2-.1-1.9-.1h-.8c.2-.5.6.1.9-.1-.1-.1-.1-.2-.2-.3h.6c0 .1.1.2.1.2.3 0 .6 0 .9.1.1 0 .2-.1.2-.1h.4v.2c.1-.1.2-.2.4-.3v-.1h-1 0c.5-.1.9-.2 1.4-.2h1.2v-.1c-.2.9-.3.8-.4.8zM32.3 24.1c0-.1.1-.1.1-.1 0 .2 0 .6.1.9h-.1c0-.3 0-.6-.1-.8zm.2 1.9c-.2-.4 0-.6.2-.8l.1.1c0 .2-.1.4-.3.7zm.1-6.5V19c.1.1.1.1 0 .7v.8c-.1.3-.1.6-.1.9-.2-.6-.2-1.3.1-1.9zm-.2 3.1c.9.1.5.8.6 1.1-.1.1-.2.1-.3.2-.1-.2-.1-.4-.2-.6-.1.1-.1.1-.1.2h-.1c0-.3 0-.6.1-.9zm-.2-4.5v2.4c-.2-.6-.1-2.2 0-2.4zm-18.4.8h0v1.9h0c-.1-.2-.2-.5-.2-.6 0-.6.1-.9.2-1.3zm-.3-4.5h.1c.1.2.1.2 0 .4 0 .3-.1.6-.1.9 0 .1-.1.2-.1.3v-.3c-.1-.4 0-.8.1-1.3zm.9-8.6c.1 0 .3.1.4.1-.3.7 0 1.4-.2 2.1V6.5c-.1 0-.1.1-.2.2v-.9zm-1.5 14.6c0 .1 0 .2-.1.4h-.1v-1.2h.2c.1.3.1.6.3 1-.2-.1-.2-.2-.3-.2zm.3-2.5c-.1.5-.1.9-.1 1.4h0v-1.4h.1zm.4-7.5c-.1 0-.1 0-.1.1.1.1.1.2.1.2-.2 0-.5.1-.7.2v-.2c.2 0 .4-.1.5-.1-.2-.3-.5-.6-.7-.9.4-.1 1.2.6 1.2 1l-.3-.3zm1.3.2c-.1-.3-.2-.6-.2-.9-.3.1-.6.2-.8.2 0-.1-.1-.2-.1-.4.6.1.9-.1.7-.7-.2.1-.2.1-.4.3 0-.1-.1-.1-.1-.2l.6-.3c.2.7.3 1.3.3 2h0zm.4-1h-.4v-.2c.4-.2.1-.6.4-.9h0v1.1zm1.2 1.8c-.1-.3-.1-.5-.1-.8.1.1.2.1.4.1-.1.3-.2.5-.3.7zm1 15v-.9c-.1.4.5.5 0 .9zm-.3-6.1c.4-.1.7-.1 1.1-.2-.3.4-.7.5-1.1.2zm1.2 12.3v-.7h.1c0 .5 0 1.1.1 1.8-.2-.4-.4-.7-.2-1.1zm.2-3.2c0 .2 0 .5-.1.6 0 .2 0 .4-.1.5 0-.1 0-.4-.1-.5-.1-.4-.1-.6.2-1 .1.1.1.2.2.4h-.1zm.5-10.4c-.3 0-.6.3-.9.4-.2.1-.4.1-.8.2.2-.2.3-.3.4-.5.2-.2.4-.4.8-.1.2.2.6-.1.7-.4.1.2.2.3-.2.4zm5.4 20.9h-1.6v-.1l1.6.1c0-.1 0-.1 0 0zm2.8 0h-1.5v-.1l1.5.1h0zm3 .2h-.9c-.3 0-.7 0-1-.1.1-.2.9-.2 1.9-.2v.3zm5.8-.2l2.1-.1v.1h-2.1zm3.9 1.2c-.5-.4-1-.1-1.5 0-.2.1-.4-.1-.6-.1v-.1c.5-.1 1-.1 1.5-.2s.5-.1.6.4c.1-.1 0 0 0 0zm1 .4c-.2.1-.5 0-.8 0 .4-.5.6 0 .8 0z"/></g><path d="M52.3 14.9v.4c-.1 0-.2-.1-.5-.2.1-.1.2-.3.4-.5 0-.1-.1-.2 0-.4.2-.4-.1-.5-.4-.6 0 .2-.2.5.1.6v.5c-.6-.9-.2-1.6-.2-2.5-.1 0-.2 0-.2-.1.2-.5-.2-.7-.2-1.1v-.4l.3.6c0-.6.2-1.2 0-1.6-.2-.5 0-.9 0-1.4V8c.1.1.2.1.2.2h.1c-.1-.1-.2-.2-.3-.4v-.4c0-.2.1-.2.2-.4h-.5V5h-.1v.9 1c0 .1-.1.1-.1.2.1.1.2.2.2.3 0 .6-.1 1.2-.2 1.8h-.2l.1-2.1-.1.1v.4.5.4c0 .4 0 .8-.1 1.1-.1.2-.2.4-.4.6.1.2.1.3.2.5-.4.1-.5.1-.7.1v-.1h0c-.1-.2-.1-.4-.1-.6-.1 0-.2-.1-.2-.1-.1.1-.1.1-.1.2s.1.3.1.4c0 0-.1.1-.2.1.1.5.1.6-.2.9.1.1.1.2.1.3h0v-.3h.1v.4c0 .2-.1.5.3.5 0 0 .1.2 0 .3s.1.5-.3.4c.1.2.2.4.1.8v.4c-.1.2-.2.5-.2.8.1 0 .2.1.4.1-.1 0-.1.1-.2.3.3.3.1.6 0 1h-.1c-.1-.3-.1-.5-.1-.8 0-.2-.1-.4-.1-.6v-.8c.1.1.1.2.1.2h.1c-.1-.2-.2-.4-.2-.5V14c0-.4.1-.8.1-1.2-.2.3-.4.2-.4 0 0-.4.1-.8.1-1.1-.2.1-.3.1-.5-.3-.3.4-.2.7.1 1.2-.4 0-.5.2-.5.5 0 .2-.1.5-.1.8v.8c-.2-.3-.4-.5-.2-.9.1-.1 0-.3 0-.5h-.1v2l.1.1c.2.1.2.2 0 .3-.1 0-.1.3-.1.5v.8c-.1-.2-.2-.4-.2-.6l-.1.1c.1.5.2.9.4 1.4.1.2-.2.6-.5.7v.4c0 .2 0 .3-.1.4v-.6c-.1 0-.2.1-.2.1v-.6h.2c0-.1-.1-.2-.1-.2-.4-.3-.3-.7-.1-1 .2-.5.1-1-.1-1.5h-.1c.1.2.2.5.2.6-.1 0-.2.1-.2.1l-.2.2c-.2 0-.3-.2-.2-.4 0 .1 0 .1.1.3 0-.2.1-.5.1-.6-.1-.1-.2-.1-.4-.2 0 .3-.1.6-.1.9V8.6h-2.8c-.2 0-.5-.1-.8-.1-.5 0-.9.1-1.4.1h-4l-8-.1h-8.5c-.2 0-.5-.1-.6-.2-.6-.5-1.2-1.1-1.8-1.7-.4-.5-.9-.8-1.4-1.2.1.1.1.3.2.4.2.2.5.4.8.6l2.1 2.1c.2.2.3.4.3.7l-.1 5.1v6 3.5c.6 0 .6-.4.5-.8V10.1v-.6c0-.2.2-.4.5-.4h.3v-.2c.1.3 6.4-.4 6.5 0h0 1.7c.7 0 1.3 0 2 .1.5 0 .6.1.6.6v4.2c.1-.1.1-.2.1-.4v-2.1c0-.2 0-.5.2-.6-.5-.8-.1-1.5-.3-2.3.5-.1.9-.1 1.4-.1 0 .7.1 1.4-.1 2 0-.1.1-.1.1-.1v1.2 4.7V23v.4c.2 0 .4-.1.5-.1v-.9V9.9c0-.2 0-.4.1-.5h0 0l.3-.3v-.2c0-.1 2.5-.1 4.3 0h6V9c.4 0 .5.2.5.6v14.9c-.1 0-.2-.1-.3-.1-.1.1-.2.1-.2.3h.2s.1.1.2.1c0 0-.1.1-.2.1h-3.4c-.4 0-.9-.1-1.2-.1h0l-.6-.3c-.2 0-.4 0-.5.1-.4.3-.6.2-.9.2h-4.6c-.5 0-.5.1-.5.5 0 1-.1 1.9 0 2.9v1.2c0 .3-.1.7-.1 1 0 .1.1.2.1.3.1.4.1.7.1 1.1v1.3V35c0 .1-.1.2-.2.4.4.7.1 1.5.2 2.2v.6h-.1v-.3c.1-.6-.1-1.4-.1-2-.1-.2 0-.4 0-.6 0-.3-.1-.6-.2-.9v-1.6c.1-.5.1-1 .1-1.5v-.9c-.3-.4-.3-1.3-.1-1.7l-.4-.4c.1-.1.2-.1.2-.1V28c0-.1-.1-.3-.1-.4-.1-.2-.1-.5-.1-.6h-.1s-.1.1-.1.2c-.1-.6-.2-1.4-.2-2 0-.2-.1-.4-.4-.4-.4 0-.8-.1-1.1-.1-1.6 0-3.2.1-4.8-.1-.2 0-.5.1-.7.1-.1 0-.1-.1-.1-.1-.2 0-.4.1-.6.1h-4c-.6 0-.7-.1-.6-.7.1-.1.2-.2.2-.4H20c0 .1-.1.2-.1.4v3.4 10 2.2h0c0-.2-.1-.4-.1-.6-.5.5 0 1 0 1.4v-.2c.2 0 .3.1.5.1.5 0 .9-.2 1.4 0 0 .1 0 0 .1 0-.1 0-.1 0-.2-.1.6 0 1 .1 1.4.1v-.1c-.2 0-.4-.1-.6-.1h-1.1c-.5-.1-.6-.1-.6-.6v-9.9-3.4c0-.3 0-.6.2-.7h0 0c.1-.1.4-.2.7-.2h0c0-.1 4 0 5.7 0h5.2v.4h0c.1.3-.1.7.2.9-.2.4-.2.6 0 1 .1 0 0 .1 0 .1v.2c.2.5.2 1 .1 1.4-.2.8 0 1.4 0 2.1 0 .3-.1.5-.2.9v-.6c-.7.1-.7.2-.7.4v7.4c0 .2-.1.4-.4.4h-.8l-.1.1c.1.1.1.1.2.1-.1.1-.2.1-.2.1v.1c.2 0 .3-.1.5-.2s.5-.1.6-.1c.6.3 1 .2 1.1-.4.1.2.1.4.1.5h.1v-.2c.1 0 .1.1.2.1.5.1 1 .1 1.5.2.2 0 .4 0 .5-.2h.1c-.4-.1-.8-.1-1.2-.1-.6-.1-.6-.1-.6-.7v-.9h-.1c-.1 0 0-1.6 0-1.8v-4.4-4.4h0 0v-1.9h.2c.1-.3.2-.4.5-.5h0 6.5 0 3.2c.5 0 .7 0 .8.1h.1v.1c.1.1.1.4.1.8v7.4 5.9c0 .2-.1.4-.4.4h-1.5-4.6v.4c.3-.1.5-.1.8-.2.2-.1.4-.1.6-.1 1 .1 2 .3 3 .2.7-.1 1.4 0 2.1 0h.2v.1c-.4 0-.9-.1-1.2 0-.5 0-.9.1-1.4.2h0 1v.1c-.1.1-.2.2-.4.3-.5 0-.3.6-1.1.8.1.1.2.2.3.4-.5.6-.6.6-1.2.3h-.3c-.2.3-.5.3-.9.2-.1.3-.3.3-.7-.1h.7s0-.1.1-.1c-.3-.1-.8.2-1-.2h-1.2v.1h.5c-.6.5-1.2.1-1.9.1 0-.2.1-.2.1-.4-.4.1-.5 0-.6-.2l.2-.2h-.5v-.1c-.1-.2-.4-.4-.6-.7.1 0 .2-.1.4-.1-.4-.2-.7-.5-1.2-.3.1 0 .2 0 .2.1 0 0-.1.1-.1.2.5.2.5.6.5 1.1-.2.1-.5.2-.7.3.4.1.8.2 1.3.4-.6.1-1.1-.2-1.6 0 .1.2.2.3.3.4-.4 0-.6 0-.9-.1h-.6c-.3-.1-.6-.2-.9-.1-.9.4-1.8.3-2.8.2-.4-.1-.8 0-1.3 0s-1.1 0-1.6-.2h-.1v.1h-.3l-.2.4c-.2 0-.4-.1-.7-.2.2 0 .3-.1.4-.1v-.1c-.4 0-.8 0-1.3-.1v-.1h-.1l-.5.5h-1.4c-.1 0-.4.1-.4 0-.2-.2-.5-.1-.7-.1l-2.5.2c-.1 0-.1-.1-.2-.1v-.1c.2 0 .5-.1.8-.1h0c-.2 0-.5-.1-.8-.1v-.1h-1.1v.1h.8v.1c-.4 0-.8 0-1.1.1.1 0 .1.1.1.2-.1 0-.2-.1-.3-.1l1.5-1.7c.3-.3.3-.5.1-.9-.1-.1-.1-.3 0-.5.1 0 .1-.2.1-.3v-.5-.6c0 .1-.1.1-.1.2v-1.5h0v-.1-.4c0-.2-.1-.5 0-.6s.4-.2.5-.2a1.38 1.38 0 0 1-.3-.4c-.1 0-.2.1-.2.1 0-.5-.1-1-.1-1.5-.3 0-.3.2-.1.4s.1.5 0 .8.2.5.2.8v.4h-.1c-.1-.5-.2-1-.2-1.6 0-.5.1-.9.2-1.5-.1.1-.1.1-.2.3 0-.4.1-.6.1-.9h-.2c0-.2.1-.5.1-.7 0 0 0-.1-.1-.1v-.4l.1-.1h0c-.1-.1-.3-.2-.3-.2.1-.3-.3-.7.3-.9-.1-.4-.2-.8-.2-1.1.1.1.1.1.2.1-.2-.2-.4-.4-.6-.7l.1-.1c.1 0 .2.1.2.2v-.4c.1.1.2.1.2.2 0-.2.2-.6-.2-.6-.1-.2-.2-.5-.2-.6v-1c-.1-.5-.2-1-.2-1.5.1-.1.2-.2.4-.3-.4-.1-.4-.2-.1-.5.2-.1.2-.5 0-.7-.3.2-.3.4-.4.7-.1-.1-.4-.2-.4-.4-.1-.4.2-.7.4-1.1.2.8.2.8.5.8.1-.3.1-.6.1-1-.1.1-.2.1-.3.2V22h-.2c0-.2-.1-.5-.1-.6-.1-.1-.2-.2-.5-.4-.1.2-.1.4-.1.5s.2.1.4.2c-.1.4-.4.5-.7.4 0-.1.1-.4.2-.5-.1 0-.1-.1-.1-.1 0 .1-.1.1-.1.2 0-.2-.1-.5-.1-.8-.1.2-.1.3-.2.5-.2-.6-.2-1 0-1.5l.1.1c.1-.2.3-.3.5-.5v.2c.1 0 .2.1.2.1h.2c.1 0 .1-.1.1-.1 0-.1-.1-.2-.1-.4.1 0 .2.1.4.1.1-.1.2-.4.4-.5 0-.2-.1-.4-.1-.6-.4.2-.7.4-1 .6v-.4h-.1l-.3.9c-.1.4-.4.4-.6.4v-1h.4c-.1.2-.1.4-.1.5h.1c.1-.2.2-.4.2-.6-.1-.1-.2-.2-.2-.3.1 0 .1-.1.2-.1v-.1c.1-.1.2-.2.2-.4h0V17c.5 0 .4-.3.4-.6s-.1-.6.2-.8v-.1c-.2-.4-.2-.6 0-1 0 0-.2-.1-.2-.2 0-.4-.3-.8-.1-1.1 0-.1-.1-.1-.1-.2-.1.2-.4.2-.5.4h-.1c.4-.8.4-1.7.3-2.6-.1.1-.2.3-.3.5-.2-.4.1-.5.1-.9-.2.2-.5.2-.4.6.1.2 0 .4 0 .7h-.1c-.1-.2-.2-.5-.2-.8v.9c0 .2-.1.6-.2.8v-.1-.9h-.1c-.2.2-.4.4-.7.6.2-.5.2-.5-.2-.6l-.6.9H13v1.3c.2-.1.4-.6.2-1 .5 0 .1.4.3.6.1 0 .1-.1.1-.1.2.1.4.3.6.4a.38.38 0 0 1 0 .6c.2.4.1.9.1 1.3-.6-.1-.4-.6-.4-.9-.2.1-.4.2-.6.4v2.2h-.1c0 .1-.1.2-.2.4.2-.1.3-.1.5-.1-.1.3-.4.5 0 .8v-3c.2.7 0 1.4 0 2 0-.1.1-.3.1-.4.1-.4.3-.6.5-1l.1.1v.5.4h0v-1.6c.1.6.2 1.2.2 1.9 0 .2-.1.4-.4.4.1-.1.1-.2.2-.3l-.1-.1c-.5 0-.5 0-.2-.4v-.4c-.4.4-.5.9-.5 1.4.1.1.2.1.3.1.1-.2.4.1.5 0v.3c-.1.2-.2.5-.3.9.1-.1.2-.2.3-.2.4.3.4.3.2.6-.1.4-.3.9-.4 1.3-.1.2 0 .5 0 .9-.3.1-.1.5-.1.8-.1-.2-.1-.4-.2-.7-.1.2-.1.5-.2.6-.2.1-.4.2-.4.5h0c0-.1-.1-.1-.1-.2-.1.1-.1.2-.1.3 0-.1-.1-.1-.1-.1-.1-.1-.2-.1-.3-.2 0 .1-.1.4-.1.5.1.4.1.4 0 .7-.1-.2-.1-.4-.1-.5-.1.6-.2 1.2-.2 1.9l.1.2c.4 0 .2.2.2.4v.4c.1-.1.2-.2.2-.3-.2-.2 0-.5 0-.8 0-.1-.1-.2-.1-.4v-.8h.2c.1.3 0 .6.1.9.2.8.5 1.6-.1 2.4-.1 0-.2-.1-.3-.1v.7c0 .2-.1.5-.2.7.2.1.2.1.4.1-.1.1-.4.2-.4.4-.1.4-.1.9-.1 1.3.1 1.4-.1 2.6.1 4 .1.3 0 .6 0 .9 0 .4-.1.7 0 1.1.1.5.2.9.2 1.4.1.2 0 .4 0 .6h-.1V37v.7 6.5 2.9h.3c-.3-.4-.1-.6 0-1v.8c.1-.1.3-.4.5-.5.1 0 .4 0 .6.1.1 0 .1 0 .2.1v-.5c-.1 0-.3.1-.5.1.9-.8 1.6-1.8 2.8-2.2v-.1c.3.1.5.1.8.2v.1c-.1 0-.2.1-.4.1v.1c.2.1.4.1.6.2.1 0 .1-.1.1-.3.1 0 .4 0 .2-.4.3.3.5.4.8.1.1-.1.3-.1.5 0l-.2.2v.1h.4c.1-.1.2-.2.1-.4s.1-.2.2-.2h.9v.4c.4-.2.8-.1 1.1 0h.2c.5.1.5.1.3.6.3 0 .7-.1 1-.1.1-.1.1-.2.2-.4-.1-.1-.2-.1-.4-.1.2-.2.2-.3.6-.2.2 0 .5.1.8.1.1.1.1.2.1.4.1 0 .1 0 .1-.1.1.1.2.1.4.1.1.1.2.1.2.1.5 0 .9-.1 1.4-.1.1-.2 0-.4.1-.5h.6c-.1.2-.2.3-.4.5.8.2 1.5.2 2.2-.1.1 0 .4 0 .5.1.2.1.5.1.7 0 .4-.1.9-.2 1.4-.1.1.1.1 0 .2 0v.1c.4-.1.8-.1 1.1-.2.4-.1.6.1.9.4.2-.1.5-.4.7 0 .2-.3.7-.1 1-.1.1 0 .2.1.4.1l1.3.3c0-.1-.1-.1-.1-.2.2 0 .4 0 .5.1.1.4.2.2.4.1 0-.1.1-.1.1-.1l.2.2h1.2c.1 0 .2.1.2.2-.3.1-.5.2-.9.1-.1 0-.4.1-.6.1-.4 0-.7-.1-1-.1h-.1 0c-.2.1-.2.1-.5.2 0 0-.1-.1-.3-.2-.2 0-.3 0-.5-.1h-.1-.1c-.3-.1-.4 0-.5.2-.2 0-.4-.1-.6-.1v.1c.2.1.5.1.7.3.1.1.1.2.1.4-.1 0-.1.1-.1.1-.1-.1-.2-.1-.3-.2-.1.1-.1.3-.2.5h-.1v-.4c-.1-.1-.5.3-.8-.1-.3.1-.8-.3-1 0l-1-.3c.2.2-.1.5.3.7-.1.2.1.4.2.6 0 0 .2.1.3.1-.1-.3-.2-.5-.3-.9a12.86 12.86 0 0 1 1.9.4c.1-.1.5-.2.8 0 0 .1-.1.1 0 .2 0 .1.2.1.2.1.2-.1.3-.2.5-.4.1 0 .1.1.1.1-.1.1-.1.3-.2.5.1 0 .3.1.5.2h0l-.1-.1v-.1a.9.9 0 0 1 .5.1h.4c.2-.2.5-.1.6.1h15.6V14.9h-.5zm-38.8 19h-.3c.1-.2.2-.5.4-.7 0 .3 0 .5-.1.7zm.2-4.1h-.1v-1.5h.1c.3.4-.1 1 0 1.5zm1.4-8H15c0-.3-.1-.6-.1-1 .4.3.1.7.2 1zm.8 12.7v.5c-.1.3-.1.5.1.7-.3 0-.4-.3-.5-.5-.1-.1-.2-.5.1-.6v-.3-.4h.3v.6c0-.3 0-.4.3-.4 0 0 .1.1.1.2 0 .2-.1.3-.4.2zm16.6 8.9h-.8v-.1c.2 0 .5 0 .8.1zm6.7.9c.2-.1.4-.1.6-.2-.1.4-.2.4-.6.2zm.4.4h0c.6-.2 1.2-.3 1.8-.3-.6.3-1.2.4-1.8.3zm2.6.8c-.1-.1-.1-.1-.1-.2.3-.1.6-.1.9-.2v.1l-.8.3zm1.3-1.1c-.3.1-.6.3-.9 0-.2.1-.5.1-.4.5-.2-.2-.3-.4-.5-.6.4 0 .6-.2.9.1h.9 0zm2.1-27.9h0c.2.6.2 1.2.2 1.9.1-.1.2-.1.2-.2.1.4.1.4-.5.4.1-.7-.2-1.4.1-2.1zm.1 2.4c.3 1.1.1 2.2-.1 3.3-.3-.4-.2-2.8.1-3.3zm.6 23.4c-.1 0-.2.1-.3 0-.1 0-.1-.1-.2-.1.1 0 .2-.1.3-.1s.1.1.2.2zm2.8-23.4c0-.4 0-.7.2-1 .1 0 .1.1.1.1l-.3.9zm.5.5h0c-.1-.2 0-.5 0-.6h.1c0 .2 0 .4-.1.6zm.6-7.2c.1.2.1.4.1.6h-.1c-.1 0-.2-.1-.4-.2.1-.4.2-.6.2-1-.1 0-.2-.1-.4-.1v-.4c.2.2.6.1.6.6-.1-.1-.1-.1-.2-.1.1.3.1.5.2.6zm.4 2.2c-.1 0-.1 0 0 0-.1-1.1 0-2.4 0-3.5h.1s.1.1.1.2c0 1.1-.1 2.2-.2 3.3zm1.1.7h0v1.4h0v-1.4zm.2 5v-1.6h.1c0 .5.1 1.1.1 1.6h-.2zm.1-2.9v.3c-.2-.4-.2-.6.2-.8v.6c-.1 0-.2 0-.2-.1z"/><path d="M52 14.1c0-.1-.1-.2 0-.4.2-.4 0-.4-.4-.6 0 .2-.2.4.1.6v.4c-.6-.9-.1-1.6-.2-2.4 0-.1-.1-.1-.2-.1.2-.4-.2-.7-.2-1.1v-.4c.1.2.1.4.3.6 0-.6.2-1.2 0-1.6-.2-.6 0-.9 0-1.4v-.2c0 .1.1.2.2.2 0 0 0-.1.1-.1-.1-.1-.2-.2-.3-.4v-.4c0-.2.2-.1.2-.4h-.5V4H51v.9 1c0 .1-.2.2-.2.4v.4.5.4c0 .4 0 .8-.1 1.1-.1.4-.5.6-.8 1.1 0-.2 0-.4-.1-.6 0-.1-.1-.1-.2-.1 0 .1-.1.1-.1.2s0 .2.1.4c0 0-.1.1-.2.1.1.5.1.6-.2.9h0c-.3.1-.4.1-.5-.3-.3.4-.3.7.1 1.2-.4.1-.5.2-.5.6 0 .2-.1.5-.1.8v.8c-.2-.3-.4-.6-.2-.9v-.4h-.1v1.9c0 .1 0 .1.1.1.1.1.2.2 0 .3-.1 0-.1.3-.1.4v.8c0-.2-.1-.4-.2-.6l-.1.1c.1.4.2.9.4 1.4 0 .2-.2.6-.5.7v.4c0 .2 0 .2-.1.4v-.6c-.1.1-.1.1-.2.1v-.6c.1 0 .1 0 .2.1 0-.1 0-.2-.1-.2-.5-.3-.3-.7-.1-1.1a1.65 1.65 0 0 0-.1-1.4H47c0 .2.1.4.2.6-.1.1-.1.1-.2.1l-1.1.5c-.2-.1-.4-.2-.2-.4 0 .1 0 .1.1.3 0-.2.1-.4.1-.6-.1-.1-.2-.1-.4-.2 0 .2-.1.6-.1.9V8h-2.8c-.2-.1-.5-.2-.7-.2-.5 0-.9.1-1.4.1h-4c-2.7 0-5.4-.1-8-.1H20c-.2 0-.5-.1-.6-.2l-1.8-1.7c-.4-.5-1-.8-1.4-1.2h0c0-.4-.5-.4-.6-.8.5.1 1 .1 1.5.1-.3-.5-.8-.1-1-.3 0-.1.1-.2.2-.3-.1-.1-.2-.1-.4-.1 0-.1.1-.1.1-.2l.1.1c.5.2 1 .4 1.5.1.2-.3.3-.6.3-.7s0-.3-.1-.4h-.2c-.2-.2-.4-.5-.6-.8-.1 0-.2-.1-.4-.1h32c-.2.1-.4.1-.5.1.5.1 1 .4 1.3-.1h2.8c.1 0 .2-.1.2.1h-1v.1c.3.1.6.1 1 .1v3.9c-.2-.1-.5.1-.6-.3-.2.4 0 .8.2 1.1.1-.1.3-.2.4-.4v7.4c0-.1-.1-.1-.1-.1-.1.4-.2.6-.3.9h0zm-2.4-9.9c-.2.1-.5.1-.7.1 0-.2.1-.4.1-.6s-.3-.1-.5-.1h-1.1v-.1c.4 0 .9-.1 1.2-.1v-.1h-1.2c-.2 0-.5.2-.7-.2 0-.1-.2-.1-.2 0v.2c.2.1.5.2.7.4l.3.3s-.1.1-.2.1c.1.1.2.1.3.1v.1c-.1.1-.3.1-.4.1-.1-.1-.2 0-.4.1-.3.1-.6.1-1 .1v-.1c.1 0 .3 0 .5-.1h0c-.2-.1-.5-.1-.8-.1.1-.1.1-.1.2-.1-.3.1-.5.1-.8.1h0c-.4.1-.9.1-1.3.2-.3-.4-.8-.4-1.3-.4v.5l-3.8-.4v-.1c.1-.1.2-.1.4-.1h0-2.3c0-.1.1-.1.2-.2-.3.1-.5.2-.6.3v.1h.6v.2c-.2-.1-.5-.1-.6-.1-.6.2-1.2-.1-1.8-.2-.2-.1-.5-.1-.9-.1-.2 0-.5 0-.8-.1-.4-.1-.7-.3-1-.4v.1c.2.3.5.6.8.9-.1-.1-.2-.1-.4-.1 0 0-.1.1-.2.1 0-.2-.1-.4-.1-.6-.1 0-.1.1-.2 0-.4 0-.7-.1-.9.2 0 .1-.1 0-.1 0-.4.1-.8.1-1.2.2.1.1.1.2.2.3-.2.1-.4.1-.5.1v.1c.1 0 .2 0 .4.1v.4h.8 0c-.2-.1-.4-.1-.6-.2.1-.1.2-.1.4-.2-.2-.1-.3-.2-.4-.2.2-.1.4-.3.5-.4v.1.1c.1.1.4.1.5.2.3.4.6.2.9.1l.1-.1c.2.1.2.1.2-.2.1.4.1.4-.2.4-.1 0-.1.1-.2.1v.1l2.5-.3c-.1-.2 0-.4.2-.4H36c.3 0 .5.1.8.1v.1h-2.2c.2.1.4.2.5.2l2.2-.1c.1 0 .2.1.4.1v.1c-.1-.1-.2-.1-.4-.1-.1.1-.2.1-.4.2.5.1 1 .1 1.4-.2.8.4 1.7.2 2.6.1-.1 0-.2-.1-.4-.1v-.1h.8c0 .1 0 .1-.1.2.4 0 .8-.1 1 0 .6.1 1.4-.2 2 .4 0 0 0 .1.1.1h1c.5 0 1-.1 1.5-.1v.1l.4.4c-.2.1-.5-.1-.8.2 0 .1-.2.1-.2 0-.1-.4-.5-.1-.6-.1.1.1.2.1.4.1-.5.1-.8.2-1.2.4.2.2.5.2.8.1.2-.1.5-.1.7-.2.4-.1.8 0 1-.4.9-.3 1.6-1 2.3-1.7 0 0 .1 0 .2-.1.1-.2.3-.4.5-.6h-1.1v.1c.1.1.3.1.5.2-.1.1-.3.1-.4.1l.3.3zm.8 2.6h0c.3-.9.3-1.8.4-2.8h-.1l-.3 2.8zM50 9l.1.1c0 .2-.1.6-.1.9.4-.7.4-1.3 0-1.7 0-.1-.2-.1-.3-.1-.1.1-.1.2-.1.3.1-.1.2-.1.4-.1 0 .1.1.2.1.3-.5.1-.5.2-.4.6L50 9zM39.7 3.6c.1.1.2.1.3.1-.1.1-.2.2-.4.3v.1c.1-.1.2-.1.4-.1.1-.1.3-.1.3 0 .1.4.5.1.7.3v-.1c-.1-.1-.2-.1-.2-.1v-.4c-.3-.3-.7-.1-1.1-.1zm4.4 2.3v.2h2.5 0l-2.5-.2zm-11.2-.4v.2c.8.1 1.4-.4 2.1-.4v-.1l-2.1.3zm-9.3-1.1c-.2 0-.4-.1-.5 0s-.2.2-.2.4c0 0 .2.1.3.1.3 0 .5-.2.4-.5zm20.1 1.5c-.2-.3-.7-.4-1.1-.2a.9.9 0 0 1 .5.1v.3c.2-.1.4-.1.6-.2zM19 6.5c.2.3.4.4 2 .2-.7 0-1.4-.1-2-.2zm25.4-.2c-.3.1-.9-.4-1.5 0h1.5zm-11.6-1c-.2.1-.5.1-.7.2s-.5 0-.8 0c.6.2 1.1.3 1.5-.2zm6-1.9c.6.2.6.2.9-.1-.3 0-.6 0-.9.1zm4-1.7v.1l1.3.2v-.1c-.4-.1-.8-.1-1.3-.2zm-2.9 4.2v-.2c-.5-.2-.5-.2-.6.2h.6zm10.2.7c-.2.2-.3.4-.5.7l.8-.3c-.2-.2-.3-.3-.3-.4zM48.9 8c.1-.3.5-.5.3-.9 0 0-.1 0-.1-.1-.1.4-.1.7-.2 1zM36.5 2.9c-.5 0-1-.3-1.5 0h1.5zm8.5.4h0c-.3-.1-.5-.2-.9-.2v.2h.9zm-2.6.7c0-.1 0-.1 0 0-.4-.1-.8-.1-1.1-.1V4c.3-.1.7-.1 1.1 0zm5.2 6.9c.2-.4.1-.6-.1-.9v.2c0 .4.1.5.1.7zm-5.1-4.4v-.2c-.2-.1-.5-.1-.7-.1v.1c.1 0 .3.1.5.1-.1.1-.1.1-.2.1v.1c.2-.1.3-.1.4-.1zm-24-.9c0 .1 0 .1 0 0h1.1v-.1c-.4.1-.7.1-1.1.1zm22.9-1.4c0 .1 0 .1 0 0 .2.1.4.1.6.1v-.1h-.6zm-.7-2.5v-.1c-.5-.1-.5-.1-.6.1h.6zm-8.1 42c.4-.1.6.1.9.4.2-.1.5-.4.7 0 .2-.4.6-.2 1-.1.1.1.2.1.4.1l1.3.3c0-.1 0-.1-.1-.2.2.1.4.1.5.1.1.4.2.2.4.1 0-.1.1-.1.1-.1.1.1.1.2.2.2.4.1.8.1 1.2.1.1 0 .2.1.2.2-.3.1-.5.3-.9.1-.1-.1-.5.1-.6.1-.3 0-.6-.1-1-.1-.2-.1-.4-.1-.6-.1.1.1.2.1.3.2v.1c-.4-.1-.9-.1-1.2-.2s-.4 0-.5.2c-.2-.1-.4-.1-.6-.1v.1c.2.1.5.1.7.3.1.1.1.2.1.4 0 0 0 .1-.1.1-.1-.1-.1-.1-.3-.2a.76.76 0 0 0-.2.4h-.1v-.4c-.1-.1-.5.3-.8-.1-.3.1-.8-.3-1 .1l-1-.3c.2.2 0 .6.3.7-.1.2 0 .4.2.6 0 .1.2.1.3.1-.1-.3-.1-.5-.3-.9a12.86 12.86 0 0 1 1.9.4c.1-.1.4-.2.8.1 0 .1-.1.2 0 .2 0 .1.2.1.2.1.1-.1.3-.2.5-.4 0 0 0 .1.1.1 0 .1-.1.3-.2.5.1.1.4.1.5.2V47c0-.1 0-.1-.1-.1v-.1c.1.1.3.1.5.1.1 0 .3.1.4 0 .3-.2.5-.1.6.1H13.9c.2-.1.4-.1.5-.1v-.1h-1.1 0l.5-.5c.1-.1.4 0 .6.1 0 0 .1.1.2.1v-.4c-.1 0-.3.1-.5.1.9-.8 1.6-1.8 2.8-2.2v-.1c.2.1.5.1.8.2v.1c-.1 0-.2.1-.4.1v.1c.2.1.4.1.6.2 0-.1 0-.2.1-.3.1 0 .4.1.2-.4.3.4.6.4.8.1.1-.1.3-.1.5.1-.5-.3-.6-.2-.6-.1v.1c.1 0 .3.1.4 0s.2-.2.1-.4c-.1-.3.1-.2.2-.2h.9v.4c.5-.2.8-.2 1.1-.1 0 0 .1.1.2.1.5.1.5.1.3.6.4-.1.7-.1 1-.1 0-.1.1-.2.2-.4-.1-.1-.2-.1-.4-.1.1-.3.2-.3.6-.2.2.1.5.1.8.1 0 .1 0 .2.1.4 0-.1 0-.1.1-.1.1.1.2.1.4.1 0 0 .1.1.2.1.5-.1 1-.1 1.4-.1 0-.2 0-.4.1-.5s.4 0 .6 0c-.1.2-.2.3-.4.5.8.2 1.5.2 2.2-.1.1-.1.4-.1.5.1.2.1.4.1.7.1.5-.1 1-.2 1.4-.1 0 0 .1-.1.2-.1v.1c.1-.4.5-.5.8-.5 0 .1-.1.3-.2.5.1.1.2.1.4.2.1-.1.3-.3.5-.4-.3-.1-.5-.2-.7-.3zm-8 2.3l-.1-.1c.2-.1.4-.1.5-.3.2-.1.3-.3.1-.4-.5.1-.8.1-1.1.1 0 .2-.1.5-.1.7h.7zm-6.2-.1c-.6-.1-1.3-.1-2-.2.1.1.2.2.3.2-.1.2-.2.4-.4.6h.6v-.1s-.1-.1-.2-.1c.1 0 .2-.1.4-.1-.1-.1-.2-.1-.3-.1V46c.2-.1.4-.2.5-.1.4.2.8.2 1.1 0zm11.9.4h0c.2 0 .4 0 .6-.1.4-.1.5-.6.2-.9 0-.1 0-.2-.1-.4-.2.1-.5.1-.8.2v.1c.2.1.4.1.6.2s.2.2 0 .4-.3.4-.5.5zm0-.3c-.5-.2-1-.6-1.4 0h1.4zm-7.3-.9a1.38 1.38 0 0 1 .3.4c-.1 0-.1 0-.2.1 0 0-.1 0-.2.1.5.2.7.1.8-.4-.2-.2-.4-.2-.7-.2zm-8 1.5c-.2-.5-.2-.5-.9-.1.1-.1.3-.1.5-.1 0 .1-.1.2-.1.4.2-.1.4-.2.5-.2zm4.6-.4h0c0-.1 0-.2-.1-.2.1-.1.1-.1.3-.2-.3 0-.5-.1-.6-.1v.1c.1.1.2.3.4.4zm-1.2-2c0-.1 0-.1 0 0h-.8v.1c.3-.1.6-.1.8-.1zm2.2 1.3c-.3.1-.6.1-.9.1.3-.1.6.3.9-.1z" class="F"/><path d="M16.7 1.2c.1.1.3.1.4.1.2.3.4.5.6.8h.3c0 .1.1.3.1.4a.55.55 0 0 1-.3.5c-.5.4-1 .1-1.5-.1 0 0 0-.1-.1-.1 0 .1-.1.1-.1.2.1.1.2.1.4.1 0 .1-.1.2-.2.3.3.2.8-.2 1 .3-.5-.1-1-.1-1.5-.1.2.4.6.4.6.8-.2-.1-.4-.2-.6-.4s-.5-.4-.7-.6c0-.1-.2-.1-.3-.1h0c.1-.3-.1-.4-.4-.6 0 .6-.1 1.2-.1 1.9h0c0 .2-.1.5-.2.8h0c0-.6.1-1.2.2-1.9 0-.2.1-.4 0-.7a.76.76 0 0 0-.2-.4L12.6.9h.2c.4.4.6.9 1.2 1l.1.1c0 .5.4.1.5.1 0 0 .1-.1.2-.1.4-.1.7-.2 1.1-.4-.2.2-.3.4-.5.7.2-.1.5-.3.6-.4 0-.1.1-.1.2-.1s.3 0 .4.1v-.6s0-.1-.1-.1c0 .1-.1.2-.2.3 0-.1-.1-.3-.1-.4s-.1-.2-.2-.3c.4.4.6.4.7.4zm-.9 2c-.2-.5-.2-.5-.8-.4.1 0 .3.1.4.1V3c.1.1.2.1.4.2zm-.5.2c0 .1 0 .1 0 0 .2.1.4.2.6.2-.2-.1-.3-.2-.5-.4 0 .1-.1.2-.1.2z"/><path d="M16.3 1.2c0 .1.1.2.2.3 0 .1.1.2.1.4.1-.1.1-.2.2-.3 0 0 0 .1.1.1v.6c-.1 0-.2-.1-.4-.1-.1 0-.2.1-.2.1-.2.1-.4.4-.6.4.1-.2.3-.4.5-.7-.5.1-.8.2-1.1.4 0 0-.1.1-.2.1-.2.1-.5.4-.5-.1 0-.1 0-.1-.1-.1-.5-.1-.9-.6-1.2-1 .9-.1 2-.1 3.2-.1zm-1.4.6v.1c.2-.1.5-.1.6-.2l.1-.1s-.1-.1-.2-.1c-.1.1-.3.2-.5.3z" class="F"/><path d="M52.5 6l-.4.4c-.2-.3-.5-.6-.2-1.1.1.4.5.1.6.3V6z"/><path d="M52.5 14.4h-.2v.4c-.1-.1-.3-.1-.5-.2.1-.1.2-.3.4-.5h0c.1-.1.3-.1.5-.1-.2.1-.2.2-.2.4z" class="F"/><path d="M49.5 1.2c-.4.6-.9.2-1.3.1.2-.1.4-.1.5-.1h.8zm3 12.7c-.1.1-.3.1-.5.1.1-.2.2-.5.3-.8l.1.1a1.76 1.76 0 0 1 .1.6z"/><path d="M12.8 46.8c-.4-.3-.1-.6 0-1v.8h0c.1.1.2.1.4.2h-.4z" class="F"/><path d="M13.2 46.8c-.1-.1-.2-.1-.4-.2h1.1v.1c-.2.1-.4.1-.5.1h-.2zM52.5 1.6c-.3-.1-.6-.1-1-.1v-.1h1v.2zM43.3 41h0c-.6 0-1.3-.1-2-.1h-.8c.2-.4.6.1.9-.1 0-.1-.1-.2-.2-.3h.6c0 .1.1.2.1.2.3.1.5.1.9.1 0 0 .1-.1.2-.1s.2.1.4.1c0 .1 0 .1-.1.2z"/><path d="M12.8 10.8c.1-.1.4-.1.5-.2-.2-.3-.5-.6-.7-.9.6-.1 1.3.5 1.3.9l-.3-.3c0 .1 0 .1-.1.1 0 .1 0 .2.1.2-.2.2-.4.2-.7.3 0 0 0-.1-.1-.1zm20.2 13c-.1.1-.2.1-.4.2 0-.2-.1-.4-.2-.6-.1.1-.1.1-.1.2h-.1c0-.3 0-.6.1-.9 1 0 .6.7.7 1.1zm-13.7-5.2c.1.2.1.4-.1.5s-.5.3-.9.4c-.2.1-.5.1-.8.2.1-.2.3-.4.4-.4.2-.3.4-.4.8-.1.1-.1.5-.3.6-.6zm-4.8-9.7c-.1.1-.2.1-.4.2 0-.1-.1-.1-.1-.2l.6-.3c.1.6.2 1.3.4 1.9h0c-.1-.3-.1-.6-.2-.9-.4.1-.6.2-.9.3 0-.1-.1-.2-.1-.4.5.2.8-.1.7-.6zm25.6 32.2h-.2c-.5-.4-1-.1-1.5 0-.2.1-.4-.1-.6-.1v-.1c.5-.1 1-.1 1.5-.2.6-.1.6-.1.8.4zm.1 1.1c.4-.4.4-.4.6-.2.1.1.2.1.5.1-.1-.1-.2-.1-.2-.2.1-.1.1-.1.3-.2.1.3.6.1.6.6-.6-.1-1.1-.1-1.8-.1zm-9.9-2.4c0 .1 0 .2-.1.3h-.9c-.3 0-.6-.1-1-.1.3-.2 1-.3 2-.2zM18.6 29.4v.6c0 .2 0 .4-.1.6 0-.2 0-.4-.1-.6-.1-.4-.1-.7.2-.9.1.1.1.2.2.4l-.2-.1zm13.9-8c-.2-.6-.2-1.3 0-1.9v-.4c.1.1.1.1 0 .7v.8a1.1 1.1 0 0 1 0 .8zm-17.7-3.1l-.6.9c-.2-.5-.2-.9.2-1.1h0v.2h.4 0zm3.8 13.6v1.9c-.2-.4-.4-.7-.2-1.1.1-.2 0-.4 0-.7.1-.1.1-.1.2-.1zM14.8 3.6c0 .4 0 .7-.1 1.1 0 .2-.2.6-.2.8 0 0-.1 0-.1-.1v-.6h0c.2-.1.3-.3.3-.6-.1-.1-.2-.4.1-.6h0z"/><path d="M14.8 5.9c-.3.6 0 1.4-.2 2V6.4c0 .1-.1.1-.2.2 0-.4 0-.6.1-.9.1.1.2.2.3.2zm23.4 34h-2.1v-.1l2.1.1zm-24.4-21v1.9h0c-.1-.2-.2-.5-.2-.6 0-.6.1-1 .2-1.3h0zm-.9.7c0 .3.1.6.2 1-.1-.1-.2-.1-.2-.2 0 .1 0 .3-.1.4h-.1v-1.2h.2zm.7-5.2v.4c0 .3 0 .6-.1.9 0 .1-.1.2-.1.3 0-.1-.1-.2 0-.3 0-.4.1-.8.2-1.3-.1 0 0 0 0 0zm18.6 3.7v2.4c-.2-.6-.1-2.2 0-2.4zM15.3 9.6h-.4v-.2c.4-.2.1-.6.4-.9h0v1.1zm1.9 10.7c.4-.1.8-.1 1.1-.2-.3.5-.7.5-1.1.2zm-4.2-1V18h.1c0 .4 0 .9-.1 1.3h0zm11.5 20.6h-1.6v-.1c.5 0 1.1 0 1.6.1h0zm7.6-11.4V31h0v-2.5h0zm.8-3.2c-.1.2-.2.4-.3.7-.2-.4-.1-.6.3-.7-.1 0-.1 0 0 0zm-19.3-3.5c.4-.1.5-.2.8-.3v.1c-.1.1-.2.4-.5.6 0-.2-.1-.3-.3-.4zm26.6 19.7c.4-.4.5.1.8 0v.1c-.2-.1-.5-.1-.8-.1zM16.9 12v.8c-.3-.1-.3-.1 0-.8zm10.4 27.9h-1.5v-.1c.5 0 1 0 1.5.1h0zm9.6.9c-.1 0-.2-.1-.3-.1.1-.1.2-.1.2-.1.1 0 .2.1.4.1v.1c-.1.1-.3.1-.5.2v-.1c.1.1.1 0 .2-.1zM14.5 14.3c0 .1-.1.1-.2.1 0-.1-.1-.2-.1-.3v-.2c0 .1.1.1.2.1.1.1.1.2.1.3h0zm3 12.1v-.9c-.1.3.5.5 0 .9zm-.8-15.6c0 .2-.1.4-.2.6 0-.3 0-.5-.1-.8.1.2.2.2.3.2zm7 31.2c0 .1.1.1.2.2-.2 0-.4.1-.5.1 0 .1 0 .1.1.1v.1c0-.1-.1-.1-.2-.2a1.38 1.38 0 0 1 .4-.3z"/><path d="M32.5 24c0 .2 0 .6.1.8h-.1c0-.2-.1-.6-.1-.8h.1z"/><g class="F"><path d="M33.2 35.3c0-.4-.1-.6-.1-1v-1.6c0-.5 0-1 .1-1.5v-.9s.1 0 .1-.1c0 .1.1.3.1.4 0 .4 0 .7.1 1.1V33v1.9c-.1.1-.3.2-.3.4h0zm16.2-22.5c.1.2.2.4.1.8v.4c0 .2-.1.5-.2.8.1.1.2.1.4.1 0 .1-.1.2-.2.3.3.3.1.6 0 1h-.1c0-.2 0-.5-.1-.8 0-.2-.1-.4-.1-.6V14c.1.1.1.2.1.2l.1-.1c0-.1-.1-.3-.2-.5v-.1c0-.4 0-.8.1-1.2 0 .3.1.4.1.5zm-3.8 9.4c-.3-.4-.2-2.8.1-3.3.4 1.1.1 2.2-.1 3.3z"/><use xlink:href="#B"/><path d="M15.9 34.5v.5c0 .2-.1.5.1.7-.4 0-.5-.4-.5-.6-.1-.2-.2-.4.1-.6v-.3-.4c0-.1.2 0 .3 0v.7h0zm34.9-23.6c0 .1.1.1.1.2l-.3 3.3h-.1l.1-3.5h.2zm-4.7 7.3c0 .4 0 .4-.4.4 0-.7-.4-1.4 0-2.1h.1c0 .6 0 1.2.1 1.9 0-.1.1-.2.2-.2zM33.2 35.3c.4.7.2 1.4.2 2.2v.6h-.1c0-.1-.1-.2 0-.3.1-.7 0-1.4-.1-2a.45.45 0 0 1 0-.5h0zm17-22.4c-.1-.1-.2-.1-.4-.2 0-.4.1-.6.2-1-.1 0-.2-.1-.4-.1v-.4c.2.2.6.1.6.6h-.1c0 .2.1.4.1.5h0v.6h0zm.8-5.8c.1.1.2.2.2.4 0 .6-.1 1.2-.2 1.8h-.1l.1-2.2zM39.6 44.6c.6-.1 1.1-.1 1.8-.2-.5.4-1.1.5-1.8.4v-.2zm-26-14.8v-1.6h.1c.3.5-.1 1.1 0 1.6h-.1zm38.5-9.7c-.1 0-.2-.1-.2-.1v-1.6h.1c0 .6 0 1.1.1 1.7zM18.5 37.2c-.1.5.2.9-.1 1.5v-1.5h.1zm-4.6-19.8v-2.1c.2.7 0 1.4 0 2.1h0zm28.7 27.1c-.2 0-.5.1-.4.4-.2-.2-.4-.4-.5-.6.4 0 .6-.2.9.2h0zm-6.7.8c.1-.1.2-.1.2-.2 0 .1.1.1.2.2h.4v.1c-.1.1-.2.1-.5.2 0-.1-.1-.2-.3-.3zm16-27.8c-.2-.4-.1-.6.1-.8v.6c-.1-.1-.1-.1-.2-.1.2.1.1.2.1.3z"/><path d="M42.1 45.2c.3-.1.5-.1.9-.2v.1c-.2.1-.5.2-.8.3-.1 0-.1-.1-.1-.2zm-2.7-2.6h.8c-.1.4-.3.4-.8 0z"/><use xlink:href="#C"/><path d="M17.5 32.3c0-.1-.1-.1-.1-.2v-.4c0-.1.1-.1.2-.1 0 .1.1.2.1.4-.1.1-.1.2-.2.3zm-1.6 2.2h0 0c0-.2 0-.4.3-.4 0 0 .1.1.1.2 0 .2-.1.3-.4.2zm30.4 7.8c-.1.1-.2.1-.2.1-.1 0-.1-.1-.2-.1.1-.1.2-.1.3-.1 0-.1 0 0 .1.1 0-.1 0 0 0 0zm5.5-27.2v1.4h0c-.1-.4-.1-.9 0-1.4-.1 0 0 0 0 0zM31.7 43.3c.2 0 .5.1.8.1v.1h-.8v-.2zM49.4 18c-.1.3-.2.6-.4.9 0-.4 0-.7.2-.9.1-.1.2-.1.2 0zm-6.8 26.5c.3-.1.5-.1.9-.1v.1c-.3.1-.6.2-.9 0h0zM14.8 20.8c.4.3.2.6.2.9h-.1c0-.2 0-.5-.1-.9zm0-2.5h-.4v-.2c.1-.2.3 0 .5-.1-.1.1-.1.2-.1.3zm25 25.7c0 .4-.1.4-.6.2.2 0 .4-.1.6-.2zm-4 1.3c-.2 0-.5.1-.5-.4.2.1.4.1.5.2v.2zM13.6 33.2c0 .3 0 .5-.1.7h-.3c.2-.3.3-.4.4-.7zm36.2-14.4c0 .2-.1.4-.1.6 0 0-.1 0-.1-.1 0-.2.1-.4.1-.6l.1.1z"/></g><path d="M47.3 6.3l-.4-.4v-.1c-.5 0-1 .1-1.5.1h-1s-.1 0-.1-.1c-.5-.6-1.3-.2-2-.4-.4-.1-.7 0-1 0 0-.1 0-.2.1-.2h-.8v.1c.1 0 .2.1.4.1-.9.1-1.8.3-2.6-.1-.5.1-1 0-1.5 0 .1-.1.2-.2.4-.2.1.1.2.1.4.1v-.1c-.1-.1-.2-.1-.4-.1l-2.2.1c-.2 0-.4-.1-.5-.2h2.2v-.1c-.2-.1-.5-.1-.8-.1-.6 0-1.1-.1-1.8 0-.2 0-.4.1-.2.4l-2.5.3v-.1c.1-.1.1-.1.2-.1.4-.4.4-.4.2-.8v-.1c0-.1.1-.1.2-.1s.2.1.4.1c-.2-.3-.5-.6-.8-.9v-.1c.4.1.7.3 1 .4s.6.1.9.1h.8c.6.1 1.1.4 1.8.2.2-.1.4.1.6.1v-.2h-.6 0c.2-.1.4-.2.7-.3-.1.1-.2.2-.3.2h2.3v.1c-.1.1-.2.1-.4.1v.1l3.8.4V4c.5-.1 1-.1 1.3.4l1.3-.2h0c.2-.1.5-.1.8-.1 0 .1-.1.1-.2.1.3.1.5.1.8.1v.1c-.1 0-.3 0-.5.1v.1c.3 0 .6.1 1-.1.1-.1.2-.1.4-.1.1.1.2-.1.4-.1v-.1c-.1-.1-.1-.1-.3-.1.1-.1.1-.1.2-.1l-.3-.3c-.2-.1-.5-.2-.7-.4v-.2c0-.1.2-.1.2 0 .1.4.5.2.7.2h1.2v.1c-.4 0-.9.1-1.2.1v.1h1.1c.1 0 .4.1.5.1 0 .1 0 .3-.1.6.2 0 .5-.1.7-.1h0l-2.3 2.1h0zm-6-1.4c.2.1.3.3.4.3h3v-.1h-1.9V5c.1-.1.1-.1.3-.1-.4-.1-.8.2-1.1-.2-.2.1-.4.1-.7.2zm-7.9-.3c0-.1 0-.1 0 0-.2-.1-.5-.2-.8-.1-.2.1-.4.3-.5.5v.1c.5-.2.9-.4 1.3-.5zm12.4.8c0 .1 0 .1 0 0 .6 0 1.3.4 2 0-.5.1-1.1.1-1.6-.1-.1 0-.3.1-.4.1zm-7.3-.7c0 .1 0 .1 0 0 .5-.1 1.1.3 1.6.1v-.1h-1.6zm6.5 0h0c.4.1.8.1 1.2.1v-.1H45zm-6.8-.4c0-.1 0-.1 0 0-.4-.1-.6 0-1 0v.1c.3-.1.6-.1 1-.1z"/><path d="M31.9 4.4c0 .1 0 .1 0 0 0 .3 0 .3-.2.3 0 0-.1 0-.1.1-.3.1-.6.2-.9-.1-.1-.1-.3-.1-.5-.2v-.1-.1c-.1.1-.3.2-.5.4.1 0 .2.1.3.1-.1.1-.2.1-.4.2.2.1.5.1.6.2v.1h-.8v-.4c-.1-.1-.2-.1-.4-.2h0c.1 0 .3-.1.5-.1 0-.1-.1-.2-.2-.3.5-.1.9-.1 1.2-.2h.1c.3-.3.6-.2.9-.2h.2c.1.1.1.3.2.5zm15.4 1.9c-.2.4-.6.3-1 .4-.2.1-.5.1-.7.2-.3.2-.5.1-.8-.1.4-.1.8-.2 1.2-.4-.1-.1-.3-.1-.4-.1.2 0 .5-.2.6.1 0 0 .2.1.2 0 .4-.1.7 0 .9-.1h0zm3.1.5l.3-3h.1c0 1-.1 2-.4 3h0z"/><use xlink:href="#D"/><path d="M39.7 3.6c.5 0 .8-.2 1.1.1v.4s.1.1.2.1v.1c-.2-.1-.5.1-.7-.3 0-.1-.2 0-.3 0-.1.1-.2.1-.4.1V4c.1-.1.2-.2.4-.3-.1 0-.2 0-.3-.1zm9.9.6c-.1-.1-.2-.1-.4-.2.1-.1.2-.1.4-.1-.1-.1-.3-.2-.5-.2v-.1h1.1l-.6.6h0 0zm-5.5 1.7c.8.1 1.6.1 2.5.1v.1h-2.5v-.2zm-11.2-.4l2.1-.4v.1c-.7.2-1.4.6-2.1.5v-.2z"/><use xlink:href="#E"/><path d="M43.7 5.9c-.2.1-.5.1-.7.1v-.3c-.1-.1-.3-.1-.5-.1.5-.1 1 0 1.2.3zM19 6.5c.6.1 1.3.1 2 .2-1.6.2-1.8.2-2-.2z"/><path d="M44.4 6.3h-1.5c.6-.3 1.2.1 1.5 0zm-11.6-1c-.4.5-.9.4-1.4.2.2 0 .5.1.8 0 .2 0 .4-.1.6-.2zm6-1.9c.4-.1.6-.1.9-.1-.3.3-.3.3-.9.1zm4-1.7l1.3.2V2c-.5-.1-.9-.1-1.3-.3 0 .1 0 0 0 0zm-2.9 4.2h-.6c.1-.4.1-.4.6-.2v.2zm10.2.7c0 .1.1.2.3.4-.2.1-.5.2-.8.3.2-.3.3-.5.5-.7z"/><use xlink:href="#F"/><path d="M36.5 2.9H35c.5-.3 1 0 1.5 0zm8.5.4c-.2 0-.5-.1-.9-.1V3c.4.1.7.2.9.3h0zm-2.6.7c-.4-.1-.8-.1-1.1-.1v-.1h1.1V4zm5.2 6.9c0-.2-.1-.4-.1-.6v-.2c.2.3.4.5.1.8zm-5.1-4.4c-.1 0-.2.1-.4.1v-.1c0-.1.1-.1.2-.1-.2-.1-.4-.1-.5-.1v-.1c.2.1.5.1.7.1v.2zm-24-.9h1.1v.1c-.4.1-.8.1-1.1.1v-.2z"/><path d="M41.4 4.2h.6v.1c-.2 0-.4 0-.6-.1zm-.7-2.5c-.2 0-.4 0-.6-.1.2-.2.2-.2.6-.1v.2zM24.6 46c-.2 0-.5.1-.8.1 0-.2.1-.5.1-.7.4-.1.8-.1 1.1-.1.1.1 0 .2-.1.4-.1.1-.4.2-.5.3.1-.1.2 0 .2 0zm-6.2-.1c-.4.2-.7.2-1.1.1-.1-.1-.4.1-.5.1v.1c.1.1.1.1.3.1-.1 0-.2.1-.4.1.1.1.2.1.2.1v.1h-.6c.1-.2.2-.4.4-.6 0-.1-.1-.1-.3-.2.7-.1 1.4 0 2 .1zm11.9.4c.1-.1.4-.2.5-.4.2-.1.3-.2 0-.4-.2-.1-.4-.1-.6-.2v-.1c.2-.1.5-.1.8-.2 0 .2 0 .4.1.4.3.3.2.8-.2.9h-.6 0zm2.3-2.6l.6.3c-.1.1-.3.3-.5.4-.1-.1-.2-.2-.4-.2.2-.2.3-.4.3-.5h0z"/><path d="M30.3 46h-1.4c.4-.6.8-.2 1.4 0zm-7.3-.9c.2.1.5.1.6.1-.1.4-.2.5-.8.4.1 0 .2-.1.2-.1s.1 0 .2-.1c0-.1 0-.2-.2-.3zm-8 1.5c-.1 0-.3.1-.5.1 0-.1.1-.2.1-.4-.2.1-.4.1-.5.1.7-.3.7-.2.9.2zm4.6-.4c-.1-.1-.4-.2-.5-.4v-.1c.2 0 .4 0 .6.1-.1.1-.2.1-.3.2.1 0 .2.1.2.2h0zm-1.2-2c-.2 0-.5.1-.8.1v-.1a1.1 1.1 0 0 1 .8 0c0-.1 0-.1 0 0zm2.2 1.3c-.3.4-.6 0-.9.1.3 0 .6-.1.9-.1z"/><g class="F"><path d="M14.9 3.6c-.3.1-.2.5-.2.8s0 .4-.3.6c0-.6.1-1.2.1-1.9.2.1.5.2.4.5zm.9-.4c-.2-.1-.3-.1-.5-.2v-.1c-.1 0-.2-.1-.4-.1.6 0 .6 0 .9.4z"/><path d="M15.3 3.4c0-.1.1-.1.2-.1.1.1.2.2.5.4-.2 0-.5-.1-.6-.1-.1-.1-.1-.1-.1-.2z"/></g><path d="M14.9 1.8l.6-.3s.1.1.2.1c0 .1-.1.1-.1.1-.3.1-.5.2-.7.1 0 .1 0 0 0 0z"/><g class="F"><path d="M41.3 4.9c.3-.1.5-.2.6-.2.4.4.8.1 1.1.2-.1.1-.2.1-.3.1v.1h1.9v.1h-3c0 0-.1-.2-.3-.3z"/><use xlink:href="#G"/><path d="M45.8 5.4c.1 0 .2-.1.3-.1.5.2 1.1.2 1.6.1-.6.4-1.3.1-2 .1.1 0 .1 0 .1-.1zm-7.3-.7h1.6v.1c-.5.2-1.1-.2-1.6-.1 0 .1 0 .1 0 0zm6.5 0h1.2v.1c-.4-.1-.8-.1-1.2-.1h0zm-6.8-.4h-1 0c.4 0 .6-.1 1 0h0z"/></g><path d="M49.6 23.2a1.76 1.76 0 0 0 .1.6c.3-.4.6-.7.8-1.1m-1.3 5.5c0-.2.1-.5.2-.8V27c.1-.3 0-.6-.1-.8.4.1.1-.3.3-.4v-.3c-.4 0-.3-.3-.3-.5v-.4h-.1v.3h0c0-.1 0-.2-.1-.3.4-.3.4-.4.2-.9.1 0 .2-.1.2-.1 0-.1-.1-.3-.1-.4s0-.1.1-.2"/><path d="M47.6 28.3c0-.1-.1-.1-.1-.1v-1.9h.1c0 .1.1.4 0 .4-.2.4 0 .6.2.9v-.8c0-.3.1-.5.1-.8s.1-.5.5-.6c-.4-.6-.5-.8-.1-1.2.2.4.3.4.5.3 0 .4-.1.8-.1 1.1 0 .2.1.3.4.1 0 .4-.1.8-.1 1.2v.1c0 .1.1.3.2.5l-.1.1c0-.1 0-.1-.1-.2v.8m1.5-4.3l-.1 3.5h.1l.3-3.3"/><use xlink:href="#H"/><path d="M50 23.1c-.1.2-.1.4-.2.6.2 0 .4 0 .5.1"/><g class="F"><path d="M49.2 22.7c0 .1 0 .2.1.4 0 0-.1.1-.2.1.1.5.1.6-.2.9h0c-.3.1-.4.1-.5-.3-.3.4-.3.7.1 1.2-.4.1-.5.2-.5.6 0 .2-.1.5-.1.8v.8c-.2-.3-.4-.6-.2-.9v-.4h-.1v1.9c0 .1 0 .1.1.1.1.1.2.2 0 .3-.1 0-.1.3-.1.4m-.1-4.7c.2-.4.1-.6-.1-.9v.2c0 .3 0 .5.1.7zm1.6 4.4c0-.2-.1-.4-.1-.6v-.8c.1.1.1.2.1.2l.1-.1c0-.1-.1-.3-.2-.5v-.1c0-.4 0-.8.1-1.2.1.2.2.3.2.4.1.2.2.4.1.8v.4c0 .2-.1.5-.2.8.1.1.2.1.4.1"/><use xlink:href="#I"/><path d="M50.8 24.1l-.3 3.3h-.1l.1-3.5m-.5 2c-.1-.1-.2-.1-.4-.2 0-.4.1-.6.2-1-.1 0-.2-.1-.4-.1v-.4c.2.2.6.1.6.6.1 0 0 0-.1-.1 0 .2.1.4.1.5h0c0 .2 0 .4.1.6 0 .1 0 .1-.1.1zm.3-2.1c-.2 0-.4 0-.5-.1.1-.2.2-.4.2-.6"/></g><path d="M47.5 23.9c0-.2-.1-.4-.1-.6v-.2c.2.2.3.5.1.8zm3 4.9c0-.1-.1-.2-.2-.2v.2c0 .4-.3.9 0 1.4"/><path d="M50.1 25.3v2.4h.5c-.1.1-.2.2-.2.4v.4c0 .1.2.2.3.4m-2.4 5.5c.1-.3 0-.6-.1-.8.4.1.1-.3.3-.4v-.3c-.4 0-.3-.3-.3-.5V32h-.1v.3h0c0-.1 0-.2-.1-.3.4-.3.4-.4.2-.9.1 0 .2-.1.2-.1 0-.1-.1-.3-.1-.4s0-.1.1-.2c0 .1.1.1.2.1a1.76 1.76 0 0 0 .1.6c.3-.4.6-.7.8-1.1s.1-.8.1-1.1v-.4-.5-.4c0-.1.2-.2.2-.4v-1"/><path d="M46.8 35v-.8c0-.3.1-.5.1-.8s.1-.5.5-.6c-.4-.6-.5-.8-.1-1.3.2.4.3.4.5.3 0 .4-.1.8-.1 1.1 0 .2.1.3.4.1 0 .4-.1.8-.1 1.2"/><path d="M46.3 35.5v-1.9h.1c0 .1.1.4 0 .4-.2.4 0 .6.2.9m2.7-.1l.3-3.3c0-.1-.1-.2-.1-.2l-.1.1-.1 3.4"/><path d="M48.9 33.3s0-.1 0 0c.1-.3.1-.5 0-.7h0c0-.1-.1-.3-.1-.5.1.1.1.1.2.1 0-.5-.5-.3-.6-.6v.4c.1 0 .2.1.4.1 0 .4-.1.6-.2 1 .1.1.2.1.3.2zm.8-5.8l-.1 2.1h.1c.1-.6.2-1.2.2-1.8.1-.1 0-.2-.2-.3z"/><use xlink:href="#J"/><g class="F"><path d="M46.7 34.5c-.2-.3-.4-.6-.2-.9v-.4h-.1v1.9m3.4-9.4v1c0 .1-.2.2-.2.4v.4.5.4c0 .4 0 .8-.1 1.1-.1.4-.5.6-.8 1.1 0-.2 0-.4-.1-.6 0-.1-.1-.1-.2-.1 0 .1-.1.1-.1.2s0 .2.1.4c0 0-.1.1-.2.1.1.5.1.6-.2.9h0c-.3.1-.4.1-.5-.3-.3.4-.3.7.1 1.2-.4.1-.5.2-.5.6 0 .2-.1.5-.1.8v.8m3.5-7.5H50v-2.4"/><path d="M50.2 29.6c-.2-.6 0-.9 0-1.4V28c0 .1.1.2.2.2 0 0 0-.1.1-.1-.1-.1-.2-.2-.3-.4v-.4c0-.2.2-.1.2-.4m-.4 5.2c.2-.4-.2-.7-.2-1.1v-.4c.1.2.1.4.3.6m-.7-7l-.3 2.9s.1 0 .1.1c.2-1 .2-1.9.3-2.9"/><use xlink:href="#K"/><use xlink:href="#L"/><use xlink:href="#M"/><path d="M46.3 31.3c.2-.4.1-.6-.1-.9v.2c0 .3.1.5.1.7zm1.8 3.3c0-.1-.1-.3-.2-.5V34c0-.4 0-.8.1-1.2.1.2.2.3.2.4.1.2.2.4.1.8v.4"/><use xlink:href="#B" x="-1.3" y="20.4"/><path d="M49.2 34.8l.1-3.5.1-.1c0 .1.1.1.1.2l-.3 3.4"/><use xlink:href="#N"/><path d="M49.7 27.5c.1.1.2.2.2.4 0 .6-.1 1.2-.2 1.8h-.1l.1-2.2z"/><use xlink:href="#C" x="-1.3" y="20.3"/></g><path d="M49.6 24.2c0 1-.1 2-.3 2.9-.1.1-.1.1-.1 0l.4-2.9"/><use xlink:href="#D" x="-1.3" y="20.4"/><path d="M48.8 27c0 .1.1.2.3.4-.2.1-.5.2-.8.3.2-.4.3-.5.5-.7z"/><use xlink:href="#F" x="-1.3" y="20.4"/><path d="M46.3 31.3c0-.2-.1-.4-.1-.6v-.2c.2.2.4.5.1.8z"/><g class="F"><path d="M47.7 32.9c.2-.4.5-.6.6-.9-.1.2-.2.6-.3.9.1-.1.2-.1.3-.3.4.3.4.3.2.6-.1.4-.3.9-.4 1.3v.9c-.3.1-.1.5-.1.8"/><path d="M47.6 31.7c.1.1.2.1.3.1-.4.3-.4.6-.2 1.1"/><use xlink:href="#O"/><path d="M48.2 30.3v.4h0v-1.6m2.7 11c-.1-.5-.1-1-.2-1.4.1-.1.2-.2.4-.3-.4-.1-.5-.2-.1-.5.2-.1.1-.4 0-.7 0 .2-.1.4-.2.6-.1-.1-.4-.2-.4-.4-.1-.4.2-.7.4-1.1.2.7.2.7.5.8 0-.3 0-.6.1-1-.1.1-.2.1-.3.2v-.8H51c0-.2-.1-.4-.1-.6-.1-.1-.2-.2-.5-.4 0 .2-.1.4-.1.6 0 .1.2.1.4.2-.1.4-.4.6-.7.4.1-.1.1-.4.2-.5 0 0 0-.1-.1-.1 0 .1-.1.1-.1.2 0-.2 0-.4-.1-.8-.1.2-.1.3-.2.5-.2-.6-.2-1 0-1.4 0 .1.1.1.1.1l.5-.5v.2c.1.1.1.1.2.1 0 0 .1.1.2 0l.1-.1c0-.1 0-.2-.1-.4.1.1.2.1.4.1.1-.2.2-.4.4-.4 0-.2-.1-.4-.1-.6-.4.2-.6.4-1 .6v-.4h-.1l-.3.9c-.1.3-.4.4-.6.4v-1.1h.4c0 .2 0 .4-.1.5h.1c0-.2.1-.4.2-.6-.1-.1-.1-.2-.2-.3.1-.1.2-.1.2-.1v-.1c0-.1.1-.2.2-.4h0v-.8c.5 0 .4-.3.4-.6s-.1-.6.2-.8v-.1c-.1-.3-.2-.6 0-.9"/><use xlink:href="#P"/><path d="M50.6 34.4c.5.3.8.2 1.1-.2-.4.1-.7.2-1.1.2z"/></g><path d="M50.1 28.8c-.2.3-.2.6 0 .9v.1c-.4.2-.2.5-.2.8 0 .2.1.6-.4.6v.8h0c0 .1-.1.2-.2.4v.1c-.1.1-.1.1-.2.1 0 .1.1.2.2.3 0 .2-.1.4-.2.6H49c0-.1 0-.3.1-.5h-.4v1.1c.2.1.5 0 .6-.4l.3-.9h.1v.4l1-.6c0 .3.1.4.1.6-.1.1-.2.3-.4.4-.1-.1-.2-.1-.4-.1 0 .1.1.3.1.4s0 .1-.1.1h-.2s-.1-.1-.2-.1v-.2c-.2.2-.4.3-.5.5 0 0 0-.1-.1-.1-.2.5-.2.9 0 1.4.1-.2.1-.3.2-.5 0 .3.1.5.1.8 0-.1.1-.1.1-.2 0 0 0 .1.1.1-.1.1-.2.4-.2.5.4.1.6.1.7-.4-.1-.1-.4-.1-.4-.2s0-.4.1-.6c.2.1.4.3.5.4 0 .2.1.4.1.6h.1v.8c.1-.1.1-.1.3-.2 0 .4 0 .7-.1 1-.2 0-.2 0-.5-.8-.1.4-.5.7-.4 1.1 0 .1.2.2.4.4.1-.2.1-.4.2-.6.2.2.2.6 0 .7-.3.2-.2.4.1.5a1.38 1.38 0 0 1-.4.3c0 .4.1.9.2 1.4m-2.3-10.9v1.6"/><path d="M47.7 31.9c.3.1.4-.1.4-.4 0-.6-.1-1.3-.2-1.9"/><path d="M47.8 31.6l.1.1c-.1.1-.1.2-.2.3"/><use xlink:href="#Q"/><use xlink:href="#R"/><path d="M48.3 34.9c0 .4.1.7.1 1h.1c0-.3.2-.7-.2-1z"/><use xlink:href="#S"/><path d="M47.8 32.4h.4 0l-.6.9m3 1.1c.4-.1.8-.1 1.1-.2-.3.5-.6.5-1.1.2z"/><g class="F"><path d="M48.3 34.9c.4.3.2.6.2.9h-.1c0-.2-.1-.5-.1-.9zm-.5-2.8c.1-.2.3 0 .5-.1-.1.1-.1.2-.1.3h-.4"/><use xlink:href="#T"/><path d="M48 16.2c.1.1.2.1.3.1-.4.3-.4.6-.2 1.1"/><use xlink:href="#O" x="0.4" y="-15.4"/><path d="M48.6 14.8v.4h0v-1.6m2.7 11.1c-.1-.5-.1-1-.2-1.4a1.38 1.38 0 0 1 .4-.3c-.4-.1-.5-.2-.1-.5.2-.1.1-.4 0-.7 0 .2-.1.4-.2.6-.1-.1-.4-.2-.4-.4-.1-.4.2-.7.4-1.1.2.7.2.7.5.8 0-.3 0-.6.1-1-.1.1-.2.1-.3.2v-.8h-.1c0-.2-.1-.4-.1-.6-.1-.1-.2-.2-.5-.4 0 .2-.1.4-.1.6 0 .1.2.1.4.2-.1.4-.4.6-.7.4.1-.1.1-.4.2-.5 0 0 0-.1-.1-.1 0 .1-.1.1-.1.2 0-.2 0-.4-.1-.8-.1.2-.1.3-.2.5-.2-.6-.2-1 0-1.4 0 .1.1.1.1.1l.5-.5v.2c.1.1.1.1.2.1 0 0 .1.1.2 0l.1-.1c0-.1 0-.2-.1-.4.1.1.2.1.4.1.1-.2.2-.4.4-.4 0-.2-.1-.4-.1-.6-.4.2-.6.4-1 .6v-.4h-.1l-.3.9c-.1.3-.4.4-.6.4v-1.1h.4c0 .2 0 .4-.1.5h.1c0-.2.1-.4.2-.6-.1-.1-.1-.2-.2-.3.1-.1.2-.1.2-.1v-.1c0-.1.1-.2.2-.4h0v-.8c.5 0 .4-.3.4-.6s-.1-.6.2-.8v-.1c-.1-.3-.2-.6 0-.9"/><use xlink:href="#P" x="0.4" y="-15.4"/><path d="M51 19c.5.3.8.2 1.1-.2-.4.1-.7.1-1.1.2z"/></g><path d="M50.5 13.3c-.2.3-.2.6 0 .9v.1c-.4.2-.2.5-.2.8 0 .2.1.6-.4.6v.8h0c0 .1-.1.2-.2.4v.1c-.1.1-.1.1-.2.1 0 .1.1.2.2.3 0 .2-.1.4-.2.6h-.1c0-.1 0-.3.1-.5h-.4v1.1c.2.1.5 0 .6-.4l.3-.9h.1v.4l1-.6c0 .2.1.4.1.6-.1.1-.2.3-.4.4-.1-.1-.2-.1-.4-.1 0 .1.1.3.1.4s0 .1-.1.1h-.2s-.1-.1-.2-.1v-.2c-.2.2-.4.3-.5.5 0 0 0-.1-.1-.1-.2.5-.2.9 0 1.4.1-.2.1-.3.2-.5 0 .3.1.5.1.8 0-.1.1-.1.1-.2 0 0 0 .1.1.1-.1.1-.2.4-.2.5.4.1.6.1.7-.4-.1-.1-.4-.1-.4-.2s0-.4.1-.6c.2.1.4.3.5.4 0 .2.1.4.1.6h.1v.8c.1-.1.1-.1.3-.2 0 .4 0 .7-.1 1-.2 0-.2 0-.5-.8-.1.4-.5.7-.4 1.1 0 .1.2.2.4.4.1-.2.1-.4.2-.6.2.2.2.6 0 .7-.3.2-.2.4.1.5-.1.1-.2.2-.4.3 0 .4.1.9.2 1.4m-2.3-10.9v1.6"/><path d="M48.1 16.5c.3.1.4-.1.4-.4 0-.6-.1-1.3-.2-1.9"/><path d="M48.2 16.1l.1.1c-.1.1-.1.2-.2.3"/><use xlink:href="#Q" x="0.4" y="-15.4"/><use xlink:href="#R" x="0.4" y="-15.4"/><path d="M48.7 19.5c0 .4.1.7.1 1h.1c0-.4.2-.7-.2-1z"/><use xlink:href="#S" x="0.4" y="-15.5"/><path d="M48.2 17h.4 0l-.6.9m3 1.1c.4-.1.8-.1 1.1-.2-.3.4-.6.5-1.1.2z"/><g class="F"><path d="M48.7 19.5c.4.3.2.6.2.9h-.1c0-.2-.1-.5-.1-.9zm-.5-2.8c.1-.2.3 0 .5-.1-.1.1-.1.2-.1.3h-.4"/><use xlink:href="#T" x="-35.2" y="16.9"/><path d="M12.8 33.1c.1.1.2.1.3.1-.4.3-.4.6-.2 1.1"/><use xlink:href="#O" x="-34.7" y="1.4"/><path d="M13.5 31.7v.4h0v-1.6"/><use xlink:href="#U"/><use xlink:href="#P" x="-34.8" y="1.4"/><path d="M15.9 35.8c.5.3.8.2 1.1-.2-.4.1-.7.2-1.1.2z"/></g><path d="M15.3 30.2c-.2.3-.2.6 0 .9v.1c-.4.2-.2.5-.2.8 0 .2.1.6-.4.6v.8h0c0 .1-.1.2-.2.4v.1c-.1.1-.1.1-.2.1 0 .1.1.2.2.3 0 .2-.1.4-.2.6h-.1c0-.1 0-.3.1-.5h-.4v1.1c.2.1.5 0 .6-.4l.3-.9h.1v.4l1-.6c0 .2.1.4.1.6-.1.1-.2.3-.4.4-.1-.1-.2-.1-.4-.1 0 .1.1.3.1.4s0 .1-.1.1H15s-.1-.1-.2-.1v-.2c-.2.2-.4.3-.5.5 0 0 0-.1-.1-.1-.2.5-.2.9 0 1.4.1-.2.1-.3.2-.5 0 .3.1.5.1.8 0-.1.1-.1.1-.2 0 0 0 .1.1.1-.1.1-.2.4-.2.5.4.1.6.1.7-.4-.1-.1-.4-.1-.4-.2s0-.4.1-.6c.2.1.4.3.5.4 0 .2.1.4.1.6h.1v.8c.1-.1.1-.1.3-.2 0 .4 0 .7-.1 1-.2 0-.2 0-.5-.8-.1.4-.5.7-.4 1.1 0 .1.2.2.4.4.1-.2.1-.4.2-.6.2.2.2.6 0 .7-.3.2-.2.4.1.5-.1.1-.2.2-.4.3 0 .4.1.9.2 1.4m-2.3-10.9v1.6m-.1.6c.3.1.4-.1.4-.4 0-.6-.1-1.3-.2-1.9"/><path d="M13.1 33l.1.1c-.1.1-.1.2-.2.3"/><use xlink:href="#Q" x="-34.7" y="1.4"/><use xlink:href="#R" x="-34.7" y="1.4"/><path d="M13.5 36.3c0 .4.1.7.1 1h.1c0-.3.3-.7-.2-1z"/><use xlink:href="#S" x="-34.7" y="1.4"/><path d="M13.1 33.8h.4 0l-.6.9m3 1.1c.4-.1.8-.1 1.1-.2-.3.5-.7.5-1.1.2z"/><g class="F"><path d="M13.5 36.3c.4.3.2.6.2.9h-.1c0-.2 0-.5-.1-.9zm-.5-2.8c.1-.2.3 0 .5-.1-.1.1-.1.2-.1.3H13"/><use xlink:href="#T" x="-35.1" y="13.3"/><path d="M12.9 29.5c.1.1.2.1.3.1-.4.3-.4.6-.2 1.1"/><use xlink:href="#O" x="-34.6" y="-2.1"/><path d="M13.6 28.1v.4h0v-1.6"/><use xlink:href="#U" x="0.1" y="-3.5"/><use xlink:href="#P" x="-34.7" y="-2.1"/><path d="M16 32.3c.5.3.8.2 1.1-.2-.4.1-.7.1-1.1.2z"/></g><path d="M15.4 26.6c-.2.3-.2.6 0 .9v.1c-.4.2-.2.5-.2.8 0 .2.1.6-.4.6v.8h0c0 .1-.1.2-.2.4v.1c-.1.1-.1.1-.2.1 0 .1.1.2.2.3 0 .2-.1.4-.2.6h-.1c0-.1 0-.3.1-.5H14v1.1c.2.1.5 0 .6-.4l.3-.9h.1v.4l1-.6c0 .2.1.4.1.6-.1.1-.2.3-.4.4-.1-.1-.2-.1-.4-.1 0 .1.1.3.1.4s0 .1-.1.1h-.2s-.1-.1-.2-.1v-.2c-.2.2-.4.3-.5.5 0 0 0-.1-.1-.1-.2.5-.2.9 0 1.4.1-.2.1-.3.2-.5 0 .3.1.5.1.8 0-.1.1-.1.1-.2 0 0 0 .1.1.1-.1.1-.2.4-.2.5.4.1.6.1.7-.4-.1-.1-.4-.1-.4-.2s0-.4.1-.6c.2.1.4.3.5.4 0 .2.1.4.1.6h.1v.8c.1-.1.1-.1.3-.2 0 .4 0 .7-.1 1-.2 0-.2 0-.5-.8-.1.4-.5.7-.4 1.1 0 .1.2.2.4.4.1-.2.1-.4.2-.6.2.2.2.6 0 .7-.3.2-.2.4.1.5a1.38 1.38 0 0 1-.4.3c0 .4.1.9.2 1.4m-2.3-10.9v1.6m-.1.7c.3.1.4-.1.4-.4 0-.6-.1-1.3-.2-1.9"/><path d="M13.2 29.4l.1.1c-.1.1-.1.2-.2.3"/><use xlink:href="#Q" x="-34.6" y="-2.1"/><use xlink:href="#R" x="-34.6" y="-2.1"/><path d="M13.6 32.8c0 .4.1.7.1 1h.1c0-.4.3-.7-.2-1z"/><use xlink:href="#S" x="-34.6" y="-2.2"/><path d="M13.2 30.3h.4 0l-.6.9m3 1.1c.4-.1.8-.1 1.1-.2-.3.4-.7.5-1.1.2z"/><g class="F"><path d="M13.6 32.8c.4.3.2.6.2.9h-.1c0-.2 0-.5-.1-.9zm-.5-2.8c.1-.2.3 0 .5-.1-.1.1-.1.2-.1.3h-.4"/><use xlink:href="#T" x="-2.9" y="16.5"/><path d="M45.1 32.7c.1.1.2.1.3.1-.4.3-.4.6-.2 1.1"/><use xlink:href="#O" x="-2.4" y="1.1"/><path d="M45.8 31.3v.4h0v-1.6m2.6 11.1c-.1-.5-.1-1-.2-1.4.1-.1.2-.2.4-.3-.4-.1-.5-.2-.1-.5.2-.1.1-.4 0-.7 0 .2-.1.4-.2.6-.1-.1-.4-.2-.4-.4-.1-.4.2-.7.4-1.1.2.7.2.7.5.8 0-.3 0-.6.1-1-.1.1-.2.1-.3.2v-.8h-.1c0-.2-.1-.4-.1-.6-.1-.1-.2-.2-.5-.4 0 .2-.1.4-.1.6 0 .1.2.1.4.2-.1.4-.4.6-.7.4.1-.1.1-.4.2-.5 0 0 0-.1-.1-.1 0 .1-.1.1-.1.2 0-.2 0-.4-.1-.8-.1.2-.1.3-.2.5-.2-.6-.2-1 0-1.4 0 .1.1.1.1.1l.5-.5v.2c.1.1.1.1.2.1 0 0 .1.1.2 0l.1-.1c0-.1 0-.2-.1-.4.1.1.2.1.4.1.1-.2.2-.4.4-.4 0-.2-.1-.4-.1-.6-.4.2-.6.4-1 .6v-.4h-.1l-.3.9c-.1.3-.4.4-.6.4v-1.1h.4c0 .2 0 .4-.1.5h.1c0-.2.1-.4.2-.6-.1-.1-.1-.2-.2-.3.1-.1.2-.1.2-.1V33c0-.1.1-.2.2-.4h0v-.8c.5 0 .4-.3.4-.6s-.1-.6.2-.8v-.1c-.1-.3-.2-.6 0-.9"/><use xlink:href="#P" x="-2.5" y="1.1"/><path d="M48.2 35.5c.5.3.8.2 1.1-.2-.4.1-.7.1-1.1.2z"/></g><path d="M47.6 29.8c-.2.3-.2.6 0 .9v.1c-.4.2-.2.5-.2.8 0 .2.1.6-.4.6v.8h0c0 .1-.1.2-.2.4v.1c-.1.1-.1.1-.2.1 0 .1.1.2.2.3 0 .2-.1.4-.2.6h-.1c0-.1 0-.3.1-.5h-.4v1.1c.2.1.5 0 .6-.4l.3-.9h.1v.4l1-.6c0 .2.1.4.1.6-.1.1-.2.3-.4.4-.1-.1-.2-.1-.4-.1 0 .1.1.3.1.4s0 .1-.1.1h-.2s-.1-.1-.2-.1v-.2c-.2.2-.4.3-.5.5 0 0 0-.1-.1-.1-.2.5-.2.9 0 1.4.1-.2.1-.3.2-.5 0 .3.1.5.1.8 0-.1.1-.1.1-.2 0 0 0 .1.1.1-.1.1-.2.4-.2.5.4.1.6.1.7-.4-.1-.1-.4-.1-.4-.2s0-.4.1-.6c.2.1.4.3.5.4 0 .2.1.4.1.6h.1v.8c.1-.1.1-.1.3-.2 0 .4 0 .7-.1 1-.2 0-.2 0-.5-.8-.1.4-.5.7-.4 1.1 0 .1.2.2.4.4.1-.2.1-.4.2-.6.2.2.2.6 0 .7-.3.2-.2.4.1.5a1.38 1.38 0 0 1-.4.3c0 .4.1.9.2 1.4m-2.3-10.9v1.6m-.1.7c.3.1.4-.1.4-.4 0-.6-.1-1.3-.2-1.9"/><path d="M45.4 32.6l.1.1c-.1.1-.1.2-.2.3"/><use xlink:href="#Q" x="-2.4" y="1.1"/><use xlink:href="#R" x="-2.4" y="1.1"/><path d="M45.8 36c0 .4.1.7.1 1h.1c0-.4.3-.7-.2-1z"/><use xlink:href="#S" x="-2.4" y="1"/><path d="M45.4 33.5h.4 0l-.6.9m3 1.1c.4-.1.8-.1 1.1-.2-.3.4-.7.5-1.1.2z"/><g class="F"><path d="M45.8 36c.4.3.2.6.2.9h-.1c0-.2 0-.5-.1-.9zm-.5-2.8c.1-.2.3 0 .5-.1-.1.1-.1.2-.1.3h-.4m3.8 12.5c0 .1 0 .1-.1.2.4 0 .8-.1 1 0"/><use xlink:href="#V"/><use xlink:href="#W"/><use xlink:href="#X"/><path d="M40.6 46.3v.2c.8.1 1.4-.4 2.1-.4V46c-.7 0-1.4.1-2.1.3z"/><use xlink:href="#Y"/><path d="M47.6 46.7v-.2c-.5-.2-.5-.2-.6.2"/></g><use xlink:href="#Z"/><use xlink:href="#a"/><path d="M50 46.1c-.4-.1-.7 0-1 0 0-.1 0-.2.1-.2m-8.7-.7c-.2.1-.4.3-.5.5v.1c.5-.1.9-.3 1.2-.4"/><path d="M46.2 45.5c0 .1 0 .1 0 0 .5-.1 1.1.3 1.6.1"/><use xlink:href="#b"/><path d="M40.6 46.3l2.1-.4v.1c-.7.1-1.4.5-2.1.3h0z"/><path d="M40.5 46.1c-.4.5-.9.4-1.5.2.2 0 .5.1.8 0s.5-.2.7-.2zm6.5.6c.1-.4.1-.4.6-.2v.2"/><g class="F"><path d="M41.1 45.3c-.4.1-.9.3-1.2.4v-.1c.2-.1.4-.4.5-.5m7.5.5c-.5.2-1.1-.2-1.6 0v-.1m3.1.1c0 .1 0 .1-.1.2.4 0 .8-.1 1 0"/><use xlink:href="#V" x="0.4" y="-0.3"/><use xlink:href="#W" x="0.4" y="-0.4"/><use xlink:href="#c"/><use xlink:href="#d"/><use xlink:href="#e"/><path d="M47.9 46.3v-.2c-.5-.2-.5-.2-.6.2"/></g><use xlink:href="#Z" x="0.3" y="-0.3"/><use xlink:href="#a" x="0.3" y="-0.3"/><path d="M50.4 45.7c-.4-.1-.7 0-1 0 0-.1 0-.2.1-.2m-8.8-.7c-.2.1-.4.3-.5.5v.1c.5-.1.9-.3 1.2-.4"/><path d="M46.6 45.1c0 .1 0 .1 0 0 .5-.1 1.1.3 1.6.1"/><use xlink:href="#b" x="0.4" y="-0.4"/><use xlink:href="#f"/><use xlink:href="#g"/><path d="M47.3 46.3c.1-.4.1-.4.6-.2v.2"/><g class="F"><path d="M41.5 45c-.4.1-.9.3-1.2.4v-.1c.2-.1.4-.4.5-.5m7.4.5c-.5.2-1.1-.2-1.6 0v-.1m.7.7c0 .1 0 .1-.1.2.4 0 .8-.1 1 0"/><use xlink:href="#V" x="-1.8"/><use xlink:href="#W" x="-1.8"/><use xlink:href="#X" x="-1.8"/><path d="M38.8 46.3v.2c.8.1 1.4-.4 2.1-.4V46c-.7 0-1.4.1-2.1.3z"/><use xlink:href="#Y" x="-1.8"/><path d="M45.8 46.7v-.2c-.5-.2-.5-.2-.6.2"/></g><use xlink:href="#Z" x="-1.8"/><use xlink:href="#a" x="-1.8"/><path d="M48.2 46.1c-.4-.1-.7 0-1 0 0-.1 0-.2.1-.2m-8.7-.7c-.2.1-.4.3-.5.5v.1c.5-.1.9-.3 1.2-.4"/><path d="M44.4 45.5c0 .1 0 .1 0 0 .5-.1 1.1.3 1.6.1"/><use xlink:href="#b" x="-1.8"/><path d="M38.8 46.3l2.1-.4v.1c-.7.1-1.4.5-2.1.3h0z"/><path d="M38.7 46.1c-.4.5-.9.4-1.5.2.2 0 .5.1.8 0s.5-.2.7-.2zm6.5.6c.1-.4.1-.4.6-.2v.2"/><g class="F"><path d="M39.3 45.3c-.4.1-.9.3-1.2.4v-.1c.2-.1.4-.4.5-.5m7.5.5c-.5.2-1.1-.2-1.6 0v-.1m2 .2c0 .1 0 .1-.1.2.4 0 .8-.1 1 0"/><use xlink:href="#V" x="-2.5" y="-0.2"/><use xlink:href="#W" x="-2.5" y="-0.2"/><use xlink:href="#c" x="-2.9" y="0.1"/><path d="M38 46.1v.2c.8.1 1.4-.4 2.1-.4v-.1c-.7 0-1.4.1-2.1.3z"/><use xlink:href="#e" x="-2.9" y="0.2"/><path d="M45 46.5v-.2c-.5-.2-.5-.2-.6.2"/></g><use xlink:href="#Z" x="-2.6" y="-0.2"/><use xlink:href="#a" x="-2.6" y="-0.2"/><path d="M47.5 45.9c-.4-.1-.7 0-1 0 0-.1 0-.2.1-.2m-8.8-.7c-.2.1-.4.3-.5.5v.1c.5-.1.9-.3 1.2-.4"/><path d="M43.7 45.3c0 .1 0 .1 0 0 .5-.1 1.1.3 1.6.1m-10.4-.2c.1.1.2.1.3.2-.1.1-.2.1-.4.2.2.1.5.1.6.2h0-.8v-.4c-.1-.1-.3-.1-.5-.1v-.1c.1 0 .3-.1.5-.1m3.4 1l2.1-.4v.1c-.7.1-1.4.5-2.1.3.1.1 0 0 0 0z"/><path d="M38 45.9c-.4.5-.9.4-1.5.2.2 0 .5.1.8 0 .2-.1.4-.2.7-.2zm6.4.6c.1-.4.1-.4.6-.2v.2"/><g class="F"><path d="M38.6 45.1c-.4.1-.9.3-1.2.4v-.1c.2-.1.4-.4.5-.5m7.4.5c-.5.2-1.1-.2-1.6 0v-.1"/><use xlink:href="#h"/><path d="M48.5 23.6c-.3.7-.3.7 0 .8v-.8z"/></g><use xlink:href="#i"/><path d="M48.5 23.6v.8c-.3-.1-.3-.1 0-.8z"/><g class="F"><use xlink:href="#h" x="0.4" y="-2.9"/><path d="M49 20.7c-.3.7-.3.7 0 .8-.1-.3-.1-.6 0-.8z"/></g><use xlink:href="#i" x="0.4" y="-2.9"/><path d="M49 20.7v.8c-.3-.1-.3-.1 0-.8z"/><g class="F"><use xlink:href="#h" x="3.2" y="2.5"/><path d="M51.7 26c-.3.7-.3.7 0 .8V26z"/></g><use xlink:href="#i" x="3.2" y="2.5"/><path d="M51.7 26v.8c-.3-.1-.3-.1 0-.8z"/><g class="F"><use xlink:href="#h" x="-15.2" y="-2.5"/><path d="M33.4 21.1c-.3.7-.3.7 0 .8-.1-.3-.1-.6 0-.8z"/></g><use xlink:href="#i" x="-4.3" y="18"/><path d="M33.4 21.1v.8c-.3-.1-.3-.1 0-.8z"/><use xlink:href="#j"/><path d="M49 32.7c.1-.4.3-.7 0-1 .1-.1.1-.2.2-.3-.1-.1-.2-.1-.4-.1 0-.2.1-.5.2-.8v-.4c.1-.3 0-.6-.1-.8.4.1.1-.3.3-.4v-.3c-.4 0-.3-.3-.3-.5v-.4h-.1v.3h0c0-.1 0-.2-.1-.3.4-.3.4-.4.2-.9.1 0 .2-.1.2-.1 0-.1-.1-.3-.1-.4s0-.1.1-.2c0 .1.1.1.2.1 0 .1 0 .3.1.6.3-.4.6-.7.8-1.1s.1-.8.1-1.1v-.4-.5-.4c0-.1.2-.2.2-.4"/><path d="M47.1 32.1c0-.1 0-.4.1-.4.3-.1.2-.1 0-.3 0-.1-.1-.1-.1-.1v-1.9h.1c0 .1.1.4 0 .4-.2.4 0 .6.2.9v-.8c0-.3.1-.5.1-.8s.1-.5.5-.6c-.4-.6-.5-.8-.1-1.2.2.4.3.4.5.3 0 .4-.1.8-.1 1.1 0 .2.1.3.4.1 0 .4-.1.8-.1 1.2v.1c0 .1.1.3.2.5l.1.2c0-.1 0-.1-.1-.2v.8c0 .2.1.4.1.6s0 .5.1.8m1.3-5.9l-.1.1-.1 3.5h.1l.3-3.3c0-.2-.1-.3-.2-.3z"/><use xlink:href="#k"/><path d="M50.6 23.1l-.1 2.1h.1c.1-.6.2-1.2.2-1.8m-1.1 2.8c-.1.2-.1.4-.2.6.2 0 .4 0 .5.1-.1-.3-.2-.5-.3-.7z"/><g class="F"><path d="M46 32.3a1.65 1.65 0 0 0-.1-1.4h-.1"/><use xlink:href="#l"/><use xlink:href="#m"/><path d="M51.5 29.7c.2-.4 0-.4-.4-.6 0 .2-.2.4.1.6"/><use xlink:href="#n"/><path d="M49.6 22.6c-.1.2-.2.4-.5.6l.8-.3-.3-.3z"/><path d="M48.5 24c.1-.3.5-.5.3-.9 0 0-.1 0-.1-.1-.1.4-.2.7-.2 1zm-1.3 2.9c.2-.4.1-.6-.1-.9v.2c0 .4 0 .5.1.7zm1.8 1.9c.1.2.2.4.1.8v.4c0 .2-.1.5-.2.8.1.1.2.1.4.1 0 .1-.1.2-.2.3.3.3.1.6 0 1H49c0-.2 0-.5-.1-.8 0-.2-.1-.4-.1-.6V30c.1.1.1.2.1.2l.1-.1c0-.1-.1-.3-.2-.5v-.1c0-.4 0-.8.1-1.2 0 .3 0 .4.1.5z"/><use xlink:href="#I" x="-0.3" y="3"/><path d="M50.3 26.9c0 .1.1.1.1.2l-.3 3.3H50l.1-3.5h.2zm-.6 2c-.1-.1-.2-.1-.4-.2 0-.4.1-.6.2-1-.1 0-.2-.1-.4-.1v-.4c.2.2.6.1.6.6.1 0 0 0-.1 0 0 .2.1.4.1.5h0v.6h0zm1.1-5.4c0 .6-.1 1.2-.2 1.8h-.1l.1-2.2"/><path d="M49.7 26.2l.3.6c-.2 0-.4 0-.5-.1 0-.1.1-.3.2-.5z"/></g><path d="M49.6 25l-.4.4c-.1-.5 0-.6.4-.6 0-.1-.1-.2-.1-.3-.1.1-.2.1-.4.1 0-.1 0-.2.1-.3 0-.1.2 0 .3.1.4.4.3 1 0 1.7 0-.4.1-.6.1-.9V25zm0-2.4c0 .1.1.2.3.4-.2.1-.5.2-.8.3.2-.3.4-.5.5-.7zM48.5 24c0-.3.1-.6.1-.9 0 0 .1 0 .1.1.3.3-.2.5-.2.8h0zm-1.3 2.9c0-.2-.1-.4-.1-.6v-.2c.2.3.3.5.1.8z"/><g class="F"><use xlink:href="#O" y="0.6"/><path d="M48.2 30.8v.4h0v-1.6"/><use xlink:href="#o"/></g><use xlink:href="#p"/><path d="M47.8 30.2v1.6"/><path d="M48 32.1c0-.6-.1-1.3-.2-1.9"/><use xlink:href="#j" x="0.7" y="-3.2"/><path d="M49.8 29.4c.1-.4.3-.7 0-1 .1-.1.1-.2.2-.3-.1-.1-.2-.1-.4-.1 0-.2.1-.5.2-.8v-.4c.1-.3 0-.6-.1-.8.4.1.1-.3.3-.4v-.3c-.4 0-.3-.3-.3-.5v-.4h-.1v.3h0c0-.1 0-.2-.1-.3.4-.3.4-.4.2-.9.1 0 .2-.1.2-.1 0-.1-.1-.3-.1-.4s0-.1.1-.2c0 .1.1.1.2.1a1.76 1.76 0 0 0 .1.6c.3-.4.6-.7.8-1.1s.1-.8.1-1.1v-.4-.5-.4c0-.1.2-.2.2-.4"/><use xlink:href="#q"/><path d="M51.1 23.6l-.1.1-.1 3.5h.1l.3-3.3c-.1-.1-.2-.2-.2-.3z"/><use xlink:href="#H" x="0.5" y="-0.2"/><path d="M51.3 19.9l-.1 2.1h.1c.1-.6.2-1.2.2-1.8"/><use xlink:href="#J" x="1.6" y="-7.6"/><g class="F"><path d="M46.7 29.1a1.65 1.65 0 0 0-.1-1.4h-.1"/><use xlink:href="#l" x="0.8" y="-3.2"/><path d="M52 27c-.6-.9-.1-1.6-.2-2.4 0-.1-.1-.1-.2-.1.2-.4-.2-.7-.2-1.1V23c.1.2.1.4.3.6 0-.6.2-1.2 0-1.6-.2-.6 0-.9 0-1.4m.6 5.9c.2-.4 0-.4-.4-.6 0 .2-.2.4.1.6m-1.7-4.7l.1.1c0 .2-.1.6-.1.9.4-.7.4-1.2 0-1.7 0-.1-.2-.1-.3-.1s-.1.1-.1.2c.1-.1.2-.1.4-.1 0 .1.1.2.1.3-.5.1-.5.2-.4.6.1 0 .2-.1.3-.2z"/><use xlink:href="#L" x="1.6" y="-7.6"/><use xlink:href="#M" x="1.6" y="-7.6"/><path d="M47.9 23.7c.2-.4.1-.6-.1-.9v.2c0 .3.1.5.1.7z"/><use xlink:href="#r"/><path d="M49.7 25.6c0-.1-.1-.2-.2-.4-.2.1-.4.1-.4-.1 0-.4.1-.8.1-1.1h0c0 .1 0 .2.1.3h0V24h.1v.4c0 .2 0 .5.3.5 0 0 .1.3 0 .3.2.1.4.5 0 .4zm1.4-2c0 .1.1.1.1.2l-.3 3.3h-.1l.1-3.5c.1.1.1 0 .2 0zm-.6 2.1c-.1-.1-.2-.1-.4-.2 0-.4.1-.6.2-1-.1 0-.2-.1-.4-.1V24c.2.2.6.1.6.6-.1-.1-.1-.1-.2-.1 0 .2.1.4.1.5h0c0 .2 0 .4.1.6.1.1 0 .1 0 .1zm1.1-5.5c0 .6-.1 1.2-.2 1.8h-.1l.1-2.2"/><use xlink:href="#C" x="0.3" y="12.7"/></g><use xlink:href="#D" x="0.3" y="12.8"/><path d="M50.4 19.4c0 .1.1.2.3.4-.2.1-.5.2-.8.3.2-.4.3-.5.5-.7z"/><use xlink:href="#F" x="0.3" y="12.8"/><path d="M47.9 23.7c0-.2-.1-.4-.1-.6v-.2c.2.2.4.5.1.8z"/><g class="F"><use xlink:href="#O" x="0.7" y="-2.7"/><path d="M48.9 27.6v.4h0v-1.6m1.2 3.7c0-.2.1-.4.2-.6-.1-.1-.1-.2-.2-.3.1-.1.2-.1.2-.1V29c0-.1.1-.2.2-.4h0v-.8c.5 0 .4-.3.4-.6s-.1-.6.2-.8v-.1c-.1-.3-.2-.6 0-.9"/></g><use xlink:href="#p" x="0.8" y="-3.2"/><path d="M48.6 27v1.6"/><path d="M48.8 28.9c0-.6-.1-1.3-.2-1.9"/><use xlink:href="#j" x="0.4" y="-6.6"/><path d="M49.5 26.1c.1-.4.3-.7 0-1 .1-.1.1-.2.2-.3-.1-.1-.2-.1-.4-.1 0-.2.1-.5.2-.8v-.4c.1-.3 0-.6-.1-.8.4.1.1-.3.3-.4V22c-.4 0-.3-.3-.3-.5v-.4h-.1v.3h0c0-.1 0-.2-.1-.3.4-.3.4-.4.2-.9.1 0 .2-.1.2-.1 0-.1-.1-.3-.1-.4s0-.1.1-.2c0 .1.1.1.2.1a1.76 1.76 0 0 0 .1.6c.3-.4.6-.7.8-1.1s.1-.8.1-1.1v-.4-.5-.4c0-.1.2-.2.2-.4"/><use xlink:href="#q" x="-0.3" y="-3.3"/><path d="M50.8 20.3l-.1.1-.1 3.5h.1l.3-3.3c-.1-.2-.2-.3-.2-.3z"/><use xlink:href="#k" x="0.5" y="-6.6"/><path d="M51 16.5l-.1 2.1h.1c.1-.6.2-1.2.2-1.8m-1.1 2.8c-.1.2-.1.4-.2.6.2 0 .4 0 .5.1-.1-.3-.2-.5-.3-.7z"/><g class="F"><path d="M46.4 25.7a1.65 1.65 0 0 0-.1-1.4h-.1"/><use xlink:href="#l" x="0.5" y="-6.6"/><use xlink:href="#m" x="0.4" y="-6.6"/><path d="M52 23.1c.2-.4 0-.4-.4-.6 0 .2-.2.4.1.6"/><use xlink:href="#K" x="1.3" y="-11"/><use xlink:href="#L" x="1.3" y="-11"/><use xlink:href="#M" x="1.3" y="-11"/><path d="M47.6 20.3c.2-.4.1-.6-.1-.9v.2c0 .4.1.5.1.7z"/><use xlink:href="#r" x="-0.3" y="-3.4"/><use xlink:href="#B" y="9.4"/><path d="M50.8 20.3c0 .1.1.1.1.2l-.3 3.3h-.1l.1-3.5h.2z"/><use xlink:href="#N" x="1.3" y="-11"/><path d="M51.3 16.9c0 .6-.1 1.2-.2 1.8H51l.1-2.2"/><use xlink:href="#C" y="9.4"/></g><use xlink:href="#D" y="9.4"/><path d="M50.1 16c0 .1.1.2.3.4-.2.1-.5.2-.8.3.2-.3.3-.5.5-.7z"/><use xlink:href="#F" y="9.4"/><path d="M47.6 20.3c0-.2-.1-.4-.1-.6v-.2c.2.3.4.5.1.8z"/><g class="F"><use xlink:href="#O" x="0.4" y="-6"/><path d="M48.6 24.2v.4h0V23m1.2 3.8c0-.2.1-.4.2-.6-.1-.1-.1-.2-.2-.3.1-.1.2-.1.2-.1v-.1c0-.1.1-.2.2-.4h0v-.8c.5 0 .4-.3.4-.6s-.1-.6.2-.8V23c-.1-.3-.2-.6 0-.9"/></g><use xlink:href="#p" x="0.5" y="-6.6"/><path d="M48.3 23.6v1.6"/><path d="M48.5 25.5c0-.6-.1-1.3-.2-1.9"/><use xlink:href="#j" x="-0.9" y="-2.4"/><path d="M48.2 30.2c.1-.4.3-.7 0-1 .1-.1.1-.2.2-.3-.1-.1-.2-.1-.4-.1 0-.2.1-.5.2-.8v-.4c.1-.3 0-.6-.1-.8.4.1.1-.3.3-.4v-.3c-.4 0-.3-.3-.3-.5v-.4H48v.3h0c0-.1 0-.2-.1-.3.4-.3.4-.4.2-.9.1 0 .2-.1.2-.1 0-.1-.1-.3-.1-.4s0-.1.1-.2c0 .1.1.1.2.1a1.76 1.76 0 0 0 .1.6c.3-.4.6-.7.8-1.1s.1-.8.1-1.1v-.4-.5-.4c0-.1.2-.2.2-.4"/><use xlink:href="#q" x="-1.6" y="0.8"/><path d="M49.5 24.4l-.1.1-.1 3.5h.1l.3-3.3c-.1-.1-.2-.2-.2-.3z"/><use xlink:href="#H" x="-1.1" y="0.6"/><path d="M49.7 20.7l-.1 2.1h.1c.1-.6.2-1.2.2-1.8"/><use xlink:href="#J" y="-6.8"/><g class="F"><path d="M45.1 29.9a1.65 1.65 0 0 0-.1-1.4h-.1"/><use xlink:href="#l" x="-0.8" y="-2.4"/><use xlink:href="#m" x="-0.9" y="-2.5"/><path d="M50.7 27.3c.2-.4 0-.4-.4-.6 0 .2-.2.4.1.6"/><use xlink:href="#K" y="-6.8"/><use xlink:href="#L" y="-6.8"/><use xlink:href="#M" y="-6.8"/><path d="M46.3 24.5c.2-.4.1-.6-.1-.9v.2c0 .3.1.5.1.7z"/><use xlink:href="#r" x="-1.6" y="0.8"/><use xlink:href="#B" x="-1.3" y="13.6"/><path d="M49.5 24.4c0 .1.1.1.1.2l-.3 3.3h-.1l.1-3.5c.1.1.1 0 .2 0z"/><use xlink:href="#N" y="-6.8"/><path d="M50 21c0 .6-.1 1.2-.2 1.8h-.1l.1-2.2"/><use xlink:href="#C" x="-1.3" y="13.5"/></g><use xlink:href="#D" x="-1.3" y="13.6"/><path d="M48.8 20.2c0 .1.1.2.3.4-.2.1-.5.2-.8.3.2-.4.3-.5.5-.7z"/><use xlink:href="#F" x="-1.3" y="13.6"/><path d="M46.3 24.5c0-.2-.1-.4-.1-.6v-.2c.2.2.4.5.1.8z"/><g class="F"><use xlink:href="#O" x="-0.9" y="-1.9"/><path d="M47.3 28.4v.4h0v-1.6"/><use xlink:href="#o" x="-0.9" y="-2.5"/></g><use xlink:href="#p" x="-0.8" y="-2.4"/><path d="M47 27.8v1.6"/><path d="M47.2 29.7c0-.6-.1-1.3-.2-1.9"/><use xlink:href="#j" x="0.9" y="-2.2"/><path d="M49.9 30.5c.1-.4.3-.7 0-1 .1-.1.1-.2.2-.3-.1-.1-.2-.1-.4-.1 0-.2.1-.5.2-.8v-.4c.1-.3 0-.6-.1-.8.4.1.1-.3.3-.4v-.3c-.4 0-.3-.3-.3-.5v-.4h-.1v.3h0c0-.1 0-.2-.1-.3.4-.3.4-.4.2-.9.1 0 .2-.1.2-.1 0-.1-.1-.3-.1-.4s0-.1.1-.2c0 .1.1.1.2.1a1.76 1.76 0 0 0 .1.6c.3-.4.6-.7.8-1.1s.1-.8.1-1.1V22v-.5-.4c0-.1.2-.2.2-.4"/><use xlink:href="#q" x="0.1" y="1.1"/><path d="M51.2 24.7l-.1.1-.1 3.5h.1l.3-3.3c0-.2-.1-.3-.2-.3z"/><use xlink:href="#k" x="0.9" y="-2.2"/><path d="M51.5 20.9l-.1 2.1h.1c.1-.6.2-1.2.2-1.8M50.6 24c-.1.2-.1.4-.2.6.2 0 .4 0 .5.1-.1-.3-.2-.5-.3-.7z"/><g class="F"><path d="M46.9 30.1a1.65 1.65 0 0 0-.1-1.4h-.1"/><use xlink:href="#l" x="0.9" y="-2.2"/><use xlink:href="#m" x="0.9" y="-2.2"/><path d="M52.4 27.5c.2-.4 0-.4-.4-.6 0 .2-.2.4.1.6"/><use xlink:href="#n" x="0.9" y="-2.2"/><path d="M50.5 20.4c-.1.2-.2.4-.5.6l.8-.3-.3-.3z"/><path d="M49.4 21.8c.1-.3.5-.5.3-.9 0 0-.1 0-.1-.1-.1.4-.2.7-.2 1zm-1.3 2.9c.2-.4.1-.6-.1-.9v.2c0 .4 0 .5.1.7zm1.8 1.9c.1.2.2.4.1.8v.4c0 .2-.1.5-.2.8.1.1.2.1.4.1 0 .1-.1.2-.2.3.3.3.1.6 0 1h-.1c0-.2 0-.5-.1-.8 0-.2-.1-.4-.1-.6v-.8c.1.1.1.2.1.2l.1-.1c0-.1-.1-.3-.2-.5v-.1c0-.4 0-.8.1-1.2 0 .3 0 .4.1.5z"/><path d="M49.9 26.6c0-.1-.1-.2-.2-.4-.2.1-.4.1-.4-.1 0-.4.1-.8.1-1.1h0c0 .1 0 .2.1.3h0V25h.1v.4c0 .2 0 .5.3.5 0 0 .1.3 0 .3.1.1.4.5 0 .4zm1.3-1.9c0 .1.1.1.1.2l-.3 3.3h-.1l.1-3.5h.2zm-.6 2c-.1-.1-.2-.1-.4-.2 0-.4.1-.6.2-1-.1 0-.2-.1-.4-.1V25c.2.2.6.1.6.6-.1-.1-.1-.1-.2-.1 0 .2.1.4.1.5h0c0 .2 0 .4.1.6.1.1.1.1 0 .1zm1.1-5.4c0 .6-.1 1.2-.2 1.8h-.1l.1-2.2m-.9 3.1l.3.6c-.2 0-.4 0-.5-.1 0-.1.1-.3.2-.5z"/></g><path d="M50.5 22.8l-.4.4c-.1-.5 0-.6.4-.6 0-.1-.1-.2-.1-.3-.1.1-.2.1-.4.1 0-.1 0-.2.1-.3 0-.1.2 0 .3.1.4.4.3 1 0 1.7 0-.4.1-.6.1-.9v-.2zm0-2.4c0 .1.1.2.3.4-.2.1-.5.2-.8.3.2-.3.4-.5.5-.7zm-1.1 1.4c0-.3.1-.6.1-.9 0 0 .1 0 .1.1.3.3-.2.5-.2.8h0zm-1.3 2.9c0-.2-.1-.4-.1-.6v-.2c.2.3.3.5.1.8z"/><g class="F"><use xlink:href="#O" x="0.9" y="-1.6"/><path d="M49.1 28.6v.4h0v-1.6"/><use xlink:href="#o" x="0.9" y="-2.2"/></g><use xlink:href="#p" x="0.9" y="-2.2"/><path d="M48.7 28v1.6"/><path d="M48.9 29.9c0-.6-.1-1.3-.2-1.9"/><g class="F"><path d="M45.5 44.2h-2.2c.2.1.4.2.5.2l2.2-.1"/><use xlink:href="#s"/><use xlink:href="#t"/><path d="M41.6 44.9v.2c.8.1 1.4-.4 2.1-.4v-.1c-.7 0-1.4.1-2.1.3zm-9.2-1.2c-.2 0-.4-.1-.5 0s-.2.2-.2.4c.1.1.2.1.4.1.1 0 .3-.1.3-.5z"/><use xlink:href="#e" x="0.7" y="-1"/></g><use xlink:href="#u"/><use xlink:href="#v"/><path d="M46 44.3l-2.2.1c-.2 0-.4-.1-.5-.2h2.2m-3.3-.3c0-.1 0-.1 0 0-.2-.1-.5-.2-.8-.1-.2.1-.4.3-.5.5v.1l1.3-.5zm-1.6-.2c0 .1 0 .1 0 0 0 .3 0 .3-.2.3 0 0-.1 0-.1.1-.3.1-.6.2-.9-.1-.1-.1-.3-.1-.5-.2v-.1-.1c-.1.1-.3.2-.5.4.1.1.2.1.3.2-.1.1-.2.1-.4.2.2.1.5.1.6.2v.1h-.8v-.4c-.1-.1-.3-.1-.5-.1v-.1c.1 0 .3-.1.5-.1 0-.1-.1-.2-.2-.3.5-.1.9-.1 1.2-.2h.1c.2-.3.5-.2.8-.2h.2c.3.1.4.3.4.4z"/><path d="M41.6 44.9l2.1-.4v.1c-.7.1-1.4.5-2.1.3.1.1 0 0 0 0zm-9.2-1.2c0 .4-.2.5-.5.5-.1 0-.2-.1-.4-.1.1-.1.1-.3.2-.4h.7z"/><path d="M41.6 44.7c-.4.5-.9.4-1.5.2.2 0 .5.1.8 0 .2-.1.4-.2.7-.2z"/><g class="F"><path d="M42.2 43.9c-.4.1-.9.3-1.2.4v-.1c.2-.1.4-.4.5-.5.2-.1.5 0 .8 0-.1.1-.1.2-.1.2zm3.1-.4h-2.2c.2.1.4.2.5.2l2.2-.1"/><use xlink:href="#s" x="-0.2" y="-0.7"/><use xlink:href="#t" x="-0.2" y="-0.7"/><use xlink:href="#d" x="0.5" y="-1.7"/><use xlink:href="#w"/><use xlink:href="#e" x="0.5" y="-1.7"/></g><use xlink:href="#u" x="-0.2" y="-0.6"/><use xlink:href="#v" x="-0.2" y="-0.6"/><path d="M45.8 43.6l-2.2.1c-.2 0-.4-.1-.5-.2h2.2"/><use xlink:href="#x"/><path d="M40.4 43.1c0 .1 0 .1 0 0 0 .3 0 .3-.2.3 0 0-.1 0-.1.1-.3.1-.6.2-.9-.1-.1-.1-.3-.1-.5-.2v-.1-.1c-.1.1-.3.2-.5.4.1.1.2.1.3.2-.1.1-.2.1-.4.2.2.1.5.1.6.2v.1h-.8v-.4c-.1-.1-.3-.1-.5-.1v-.1c.1 0 .3-.1.5-.1 0-.1-.1-.2-.2-.3.5-.1.9-.1 1.2-.2h.1c.2-.3.5-.2.8-.2h.2c.3 0 .4.2.4.4z"/><use xlink:href="#f" x="0.5" y="-1.7"/><use xlink:href="#E" x="8.6" y="38.7"/><use xlink:href="#g" x="0.5" y="-1.7"/><g class="F"><use xlink:href="#G" x="8.6" y="38.7"/><path d="M46.5 46.3h-2.2c.2.1.4.2.5.2l2.2-.1M41.5 45c.2.3.5.6.8.9-.1-.1-.2-.1-.4-.1 0 0-.1.1-.2.1 0-.2-.1-.4-.1-.6-.1 0-.1.1-.2 0-.3-.1-.6-.1-.8.2 0 .1-.1 0-.1 0-.4.1-.8.1-1.2.2.1.1.1.2.2.3-.2.1-.4.1-.5.1v.1c.1.1.3.1.5.1v.4h.8v.1c-.2-.1-.4-.1-.6-.2.1-.1.2-.1.4-.2-.1-.1-.2-.1-.3-.2.2-.1.4-.3.5-.4v.1.1c.1.1.4.1.5.2.3.4.6.2.9.1l.1-.1c.2.1.2.1.2-.2.1.4.1.4-.2.4-.1 0-.1.1-.2.1v.1l2.5-.3c-.1-.2 0-.4.2-.4h1.8"/><use xlink:href="#t" x="1" y="2.1"/><use xlink:href="#d" x="1.7" y="1.1"/><use xlink:href="#w" x="1.2" y="2.8"/><use xlink:href="#e" x="1.7" y="1.1"/></g><use xlink:href="#u" x="1" y="2.2"/><path d="M45.7 46c-.6 0-1.1-.1-1.8 0-.2 0-.4.1-.2.4l-2.5.3v-.1c.1-.1.1-.1.2-.1.4-.1.4-.1.2-.4V46c0-.1.1-.1.2-.1s.2.1.4.1c-.2-.3-.5-.6-.8-.9m5.6 1.3l-2.2.1c-.2 0-.4-.1-.5-.2h2.2"/><use xlink:href="#x" x="1.2" y="2.8"/><path d="M41.6 45.9c0 .1 0 .1 0 0 0 .3 0 .3-.2.3 0 0-.1 0-.1.1-.3.1-.6.2-.9-.1-.1-.1-.3-.1-.5-.2v-.1-.1c-.1.1-.3.2-.5.4.1.1.2.1.3.2-.1.1-.2.1-.4.2.2.1.5.1.6.2h0-.8v-.4c-.1-.1-.3-.1-.5-.1v-.1c.1 0 .3-.1.5-.1 0-.1-.1-.2-.2-.3.5-.1.9-.1 1.2-.2h.1c.2-.3.5-.2.8-.2h.2c.3.1.4.3.4.5z"/><use xlink:href="#f" x="1.7" y="1.1"/><use xlink:href="#E" x="9.8" y="41.5"/><use xlink:href="#g" x="1.7" y="1.1"/><g class="F"><use xlink:href="#G" x="9.8" y="41.5"/><path d="M46 44.9h-2.2c.2.1.4.2.5.2l2.2-.1M41 43.6c.2.3.5.6.8.9-.1-.1-.2-.1-.4-.1 0 0-.1.1-.2.1 0-.2-.1-.4-.1-.6-.1 0-.1.1-.2 0-.3-.1-.6-.1-.8.2 0 .1-.1 0-.1 0-.4.1-.8.1-1.2.2.1.1.1.2.2.3-.4.2-.5.2-.7.2h0c.1.1.3.1.5.1v.4h.8v-.1c-.2-.1-.4-.1-.6-.2.1-.1.2-.1.4-.2-.1-.1-.2-.1-.3-.2.2-.1.4-.3.5-.4v.1.1c.1.1.4.1.5.2.3.4.6.2.9.1l.1-.1c.2.1.2.1.2-.2.1.4.1.4-.2.4-.1 0-.1.1-.2.1v.1l2.5-.3c-.1-.2 0-.4.2-.4h1.8"/><use xlink:href="#t" x="0.6" y="0.7"/><path d="M42.2 45.6v.2c.8.1 1.4-.4 2.1-.4v-.1c-.7 0-1.4.1-2.1.3zm-9.3-1.2c-.2 0-.4-.1-.5 0s-.2.2-.2.4c.1.1.2.1.4.1s.4-.1.3-.5z"/><use xlink:href="#Y" x="1.6" y="-0.7"/></g><path d="M41 43.3c.4.1.7.3 1 .4s.6.1.9.1.5 0 .9.1"/><use xlink:href="#v" x="0.5" y="0.7"/><path d="M46.6 45l-2.2.1c-.2 0-.4-.1-.5-.2h2.2m-3.4-.3c0-.1 0-.1 0 0-.2-.1-.5-.2-.8-.1-.2.1-.4.3-.5.5v.1l1.3-.5zm-1.5-.2c0 .1 0 .1 0 0 0 .3 0 .3-.2.3 0 0-.1 0-.1.1-.3.1-.6.2-.9-.1-.1-.1-.3-.1-.5-.2v-.1-.1c-.1.1-.3.2-.5.4.1.1.2.1.3.2-.1.1-.2.1-.4.2.2.1.5.1.6.2v.1h-.8V45c-.1-.2-.2-.2-.4-.2v-.1c.1 0 .3-.1.5-.1 0-.1-.1-.2-.2-.3.5-.1.9-.1 1.2-.2h.1c.2-.3.5-.2.8-.2h.2c.2.2.2.4.3.5z"/><path d="M42.2 45.6l2.1-.4v.1c-.7.1-1.4.5-2.1.3 0 .1 0 0 0 0zm-9.3-1.2c0 .4-.2.5-.5.5-.1 0-.2-.1-.4-.1.1-.1.1-.3.2-.4h.7z"/><path d="M42.1 45.4c-.4.5-.9.4-1.5.2.2 0 .5.1.8 0s.5-.2.7-.2z"/><g class="F"><path d="M42.7 44.6c-.4.1-.9.3-1.2.4v-.1c.2-.1.4-.4.5-.5.2-.1.5 0 .8 0-.1.1-.1.2-.1.2zm3.8.8h-2.2c.2.1.4.2.5.2l2.2-.1"/><path d="M41.5 44.1c.2.3.5.6.8.9-.1-.1-.2-.1-.4-.1 0 0-.1.1-.2.1 0-.2-.1-.4-.1-.6-.1 0-.1.1-.2 0-.3-.1-.6-.1-.8.2 0 .1-.1 0-.1 0-.4.1-.8.1-1.2.2.1.1.1.2.2.3-.2.1-.4.1-.5.1v.1c.1.1.3.1.5.1v.4h.8v-.1c-.4.1-.6.1-.8 0 .1-.1.2-.1.4-.2-.1-.1-.2-.1-.3-.2.2-.1.4-.3.5-.4v.1.1c.1.1.4.1.5.2.3.4.6.2.9.1l.1-.1c.2.1.2.1.2-.2.1.4.1.4-.2.4-.1 0-.1.1-.2.1v.1l2.5-.3c-.1-.2 0-.4.2-.4h1.8"/><use xlink:href="#t" x="1.1" y="1.2"/><use xlink:href="#d" x="1.8" y="0.2"/><path d="M33.4 45c-.2 0-.4-.1-.5 0s-.2.2-.2.4c.1.1.2.1.4.1s.4-.2.3-.5z"/><use xlink:href="#Y" x="2.1" y="-0.2"/></g><use xlink:href="#u" x="1" y="1.3"/><use xlink:href="#v" x="1" y="1.3"/><path d="M47.1 45.5l-2.2.1c-.2 0-.4-.1-.5-.2h2.2"/><use xlink:href="#x" x="1.2" y="1.9"/><path d="M41.7 45c0 .1 0 .1 0 0 0 .3 0 .3-.2.3 0 0-.1 0-.1.1-.3.1-.6.2-.9-.1-.1-.1-.3-.1-.5-.2V45v-.1c-.1.1-.3.2-.5.4.1.1.2.1.3.2-.1.1-.2.1-.4.2.2.1.5.1.6.2v.1h-.8v-.4c-.1-.1-.3-.1-.5-.1v-.1c.1 0 .3-.1.5-.1 0-.1-.1-.2-.2-.3.5-.1.9-.1 1.2-.2h.1c.2-.3.5-.2.8-.2h.2c.3 0 .3.2.4.4zm1 1.1l2.1-.4v.1c-.7.1-1.4.5-2.1.3 0 .1 0 .1 0 0z"/><use xlink:href="#E" x="9.8" y="40.6"/><path d="M42.6 45.9c-.4.5-.9.4-1.5.2.2 0 .5.1.8 0 .3 0 .5-.1.7-.2z"/><g class="F"><use xlink:href="#G" x="9.8" y="40.6"/><path d="M44.4 44.5h-2.2c.2.1.4.2.5.2l2.2-.1m-5.5-1.4c.2.3.5.6.8.9-.1-.1-.2-.1-.4-.1 0 0-.1.1-.2.1 0-.2-.1-.4-.1-.6-.1 0-.1.1-.2 0-.3-.1-.6-.1-.8.2 0 .1-.1 0-.1 0-.4.1-.8.1-1.2.2.1.1.1.2.2.3-.2.1-.4.1-.5.1v.1c.1.1.3.1.5.1v.4h.8v-.1c-.2-.1-.4-.1-.6-.2.1-.1.2-.1.4-.2-.1-.1-.2-.1-.3-.2.2-.1.4-.3.5-.4v.1.1c.1.1.4.1.5.2.3.4.6.2.9.1l.1-.1c.2.1.2.1.2-.2.1.4.1.4-.2.4-.1 0-.1.1-.2.1v.1l2.5-.3c-.1-.2 0-.4.2-.4H44"/><use xlink:href="#t" x="-1.1" y="0.3"/><use xlink:href="#d" x="-0.4" y="-0.7"/><use xlink:href="#w" x="-0.9" y="1"/><use xlink:href="#e" x="-0.4" y="-0.7"/></g><use xlink:href="#u" x="-1.1" y="0.4"/><use xlink:href="#v" x="-1.1" y="0.4"/><path d="M44.9 44.6l-2.2.1c-.2 0-.4-.1-.5-.2h2.2"/><use xlink:href="#x" x="-0.9" y="1"/><path d="M39.5 44.1c0 .1 0 .1 0 0 0 .3 0 .3-.2.3 0 0-.1 0-.1.1-.3.1-.6.2-.9-.1-.1-.1-.3-.1-.5-.2v-.1-.1c-.1.1-.3.2-.5.4.1.1.2.1.3.2-.1.1-.2.1-.4.2.2.1.5.1.6.2v.1H37v-.4c-.1-.1-.3-.1-.5-.1v-.1c.1 0 .3-.1.5-.1 0-.1-.1-.2-.2-.3.5-.1.9-.1 1.2-.2h.1c.2-.3.5-.2.8-.2h.2c.3 0 .4.2.4.4z"/><use xlink:href="#f" x="-0.4" y="-0.7"/><use xlink:href="#E" x="7.7" y="39.7"/><use xlink:href="#g" x="-0.4" y="-0.7"/><g class="F"><use xlink:href="#G" x="7.7" y="39.7"/><path d="M48.1 23.9c0 .3-.1.6-.2.8v-1"/><use xlink:href="#y"/><path d="M49.6 24.6c-.3.7-.3.7 0 .8v-.8zm-.5-1.3c0 .2 0 .4.1.8.1-.3.2-.4.2-.6"/></g><use xlink:href="#z"/><path d="M48.5 23.1c0 .3-.4.5-.1.9.1-.2.2-.4.3-.5m-1 .1c0 .2.1.5.2.8h.1c0-.2.1-.5 0-.7m-.6 1.5h0c.1-.2.3-.5.3-.8m1.9.2v.8c-.3-.1-.3-.1 0-.8z"/><path d="M49.5 23.4c0 .2-.1.4-.2.6 0-.3 0-.5-.1-.8"/><g class="F"><path d="M32.9 21c0 .3-.1.6-.2.8v-1m1.4 5v-.2c0-.3-.1-.6.2-.8v-.1c-.1-.2-.1-.3-.1-.5h-.1v.5-.5H34s0-.1.1-.1v-1c-.1-.2-.1-.4 0-.7h0s0-.1-.1-.2c-.1.1-.2.1-.2.2v3.3c0 .1.1.1.3.1z"/><path d="M33.7 20v1.7c.1-.6 0-1.2 0-1.7z"/></g><path d="M33.6 26.7v-.9h0a.76.76 0 0 1 .2-.4v-.1c-.2-.3-.2-.6 0-.9 0 0-.2-.1-.2-.2 0-.4-.2-.8-.1-1.1 0 0 0-.1-.1-.2l-.2.2v3.7c.3-.1.4-.1.4-.1zm-.4-6.5c0 .3-.3.5-.1.9.1-.2.2-.4.2-.5m-.7.1c0 .2.1.5.2.8h.1c0-.2.1-.5 0-.7m-.5 1.5h0c.1-.2.2-.5.2-.8"/><path d="M32.6 21c0 .3-.1.6-.2.8v-1m1.1-.8v1.7c.1-.6.1-1.2 0-1.7zm.1 6.2v-.4c.1 0 .2 0 .4.1v-.2c0-.3-.1-.6.2-.8v-.1c-.1-.2-.1-.3-.1-.5h0v.5-.5H34s0-.1.1-.1v-.8c-.1-.3-.3-.6-.1-.9 0-.1 0-.1-.1-.2-.1.1-.2.1-.3.2V27v-.8h0z" class="F"/><use xlink:href="#z" x="-15.6" y="-3"/><path d="M32.9 20.2c0 .3-.4.5-.1.9.1-.2.2-.4.3-.5m-.9.1c0 .2.1.5.2.8h.1c0-.2.1-.5 0-.7m-.6 1.5h0c.1-.2.3-.5.3-.8"/><g class="F"><path d="M48.6 21.5c0 .3-.1.6-.2.8v-1"/><use xlink:href="#y" x="0.5" y="-2.4"/><path d="M50.1 22.2c-.3.7-.3.7 0 .8-.1-.3-.1-.6 0-.8zm-.5-1.3c0 .2 0 .4.1.8.1-.3.2-.4.2-.6"/></g><use xlink:href="#z" x="0.4" y="-2.4"/><path d="M48.9 20.7c0 .3-.4.5-.1.9.1-.2.2-.4.3-.5m-.9.1c0 .2.1.5.2.8h.1c0-.2.1-.5 0-.7m-.6 1.5h0c.1-.2.3-.5.3-.8m1.9.2v.8c-.3-.1-.3-.1 0-.8z"/><path d="M49.9 21c0 .2-.1.4-.2.6 0-.3 0-.5-.1-.8"/><g class="F"><path d="M45.9 44c-1 .4-1.9.3-2.8.2-.5-.1-.9.1-1.3.1-.6.1-1.1.1-1.6-.2h-.1v.1h-.3c-.1.2-.1.4-.2.4-.2-.1-.4-.1-.7-.2.2-.1.3-.1.4-.1v-.1c-.4-.1-.9-.1-1.3-.1V44s0-.1-.1-.1c-.2.1-.4.4-.5.5H36c-.1 0-.4.1-.4.1-.2-.2-.5-.1-.7-.1l-2.5.2"/><path d="M37.1 43.9c-.1.1-.3.1-.5.2l.2.2v-.1c0-.1 0-.1-.1-.1.2 0 .4-.1.5-.1 0 0-.1 0-.1-.1z"/></g><path d="M32 45l2.5-.2c.2 0 .5-.1.7.1 0 .1.2-.1.4-.1H37c.1-.1.4-.3.5-.5 0 0 0 .1.1.1v.1c.5.1.9.1 1.3.1v.1c-.1.1-.2.1-.4.1.3.1.5.2.7.2l.2-.4h.3v-.1h.1c.5.2 1.1.2 1.6.2s.9-.1 1.3-.1c1 .1 1.9.1 2.8-.2"/><path d="M36.4 45.7c.1-.3.2-.3.6-.2.2.1.5.1.8.1 0 .1 0 .2.1.4m-4.8-.7h.9v.4" class="F"/><path d="M37.1 43.9c0 .1.1.1.2.2-.2 0-.4.1-.5.1 0 .1 0 .1.1.1v.1c0-.1-.1-.1-.2-.2.1-.2.2-.2.4-.3z"/><g class="F"><path d="M44.9 44c-1 .4-1.9.3-2.8.2-.5-.1-.9.1-1.3.1-.6.1-1.1.1-1.6-.2h-.1v.1h-.3c-.1.2-.1.4-.2.4-.2-.1-.4-.1-.7-.2.2-.1.3-.1.4-.1v-.1c-.4-.1-.9-.1-1.3-.1V44s0-.1-.1-.1c-.2.1-.4.4-.5.5H35c-.1 0-.4.1-.4.1-.2-.2-.5-.1-.7-.1l-2.5.2"/><path d="M36.1 43.9c-.1.1-.3.1-.5.2l.2.2v-.1c0-.1 0-.1-.1-.1.2 0 .4-.1.5-.1 0 .1-.1 0-.1-.1z"/></g><path d="M31 45.1l2.5-.2c.2 0 .5-.1.7.1 0 .1.2-.1.4-.1H36c.1-.1.4-.3.5-.5 0 0 0 .1.1.1v.1c.5.1.9.1 1.3.1v.1c-.1.1-.2.1-.4.1.3.1.5.2.7.2l.2-.4h.3v-.1h.1c.5.2 1.1.2 1.6.2s.9-.1 1.3-.1c1 .1 1.9.1 2.8-.2"/><path d="M35.4 45.8c.1-.3.2-.3.6-.2.2.1.5.1.8.1 0 .1 0 .2.1.4m-4.8-.7h.9v.4" class="F"/><path d="M36.1 43.9c0 .1.1.1.2.2-.2 0-.4.1-.5.1 0 .1 0 .1.1.1v.1c0-.1-.1-.1-.2-.2.1-.1.2-.2.4-.3z"/><g class="F"><path d="M43.1 42.6c-1 .4-1.9.3-2.8.2-.5-.1-.9.1-1.3.1-.6.1-1.1.1-1.6-.2h-.1v.1H37c-.1.2-.1.4-.2.4-.2-.1-.4-.1-.7-.2.2-.1.3-.1.4-.1v-.1c-.4-.1-.9-.1-1.3-.1v-.1s0-.1-.1-.1c-.2.1-.4.4-.5.5h-1.4c-.1 0-.4.1-.4.1-.2-.2-.5-.1-.7-.1l-2.5.2"/><path d="M34.3 42.5c-.1.1-.3.1-.5.2l.2.2v-.1c0-.1 0-.1-.1-.1.2 0 .4-.1.5-.1.1.1 0 0-.1-.1z"/></g><path d="M29.3 43.7l2.5-.2c.2 0 .5-.1.7.1 0 .1.2-.1.4-.1h1.4c.1-.1.4-.3.5-.5 0 0 0 .1.1.1v.1c.5.1.9.1 1.3.1v.1c-.1.1-.2.1-.4.1.3.1.5.2.7.2l.2-.4h.3v-.1h.1c.5.2 1.1.2 1.6.2s.9-.1 1.3-.1c1 .1 1.9.1 2.8-.2"/><path d="M33.7 44.4c.1-.3.2-.3.6-.2.2.1.5.1.8.1 0 .1 0 .2.1.4m-4.9-.7h.9v.4" class="F"/><path d="M34.3 42.5c0 .1.1.1.2.2-.2 0-.4.1-.5.1 0 .1 0 .1.1.1v.1c0-.1-.1-.1-.2-.2.1-.1.3-.2.4-.3z"/><g class="F"><path d="M42.7 45.3c0 .1 0 .1-.1.2.4 0 .8-.1 1 0 .6.1 1.4-.2 2 .4"/><use xlink:href="#AA"/><path d="M38.2 43.8c-.3.1-.5.2-.6.3v.1h.6v.2c-.2-.1-.5-.1-.6-.1-.6.2-1.2-.1-1.8-.2"/><path d="M40.3 44.1H38c0-.1.1-.1.2-.2"/><use xlink:href="#d" x="-6.7" y="-0.3"/><path d="M45 46c-.2-.3-.7-.4-1.1-.2.2.1.4.1.5.1v.3c.2-.1.4-.1.6-.2z"/><path d="M45.7 46.4c-.3.1-.9-.4-1.5 0h1.5m-13-.8c.5.2 1.1.3 1.5-.2-.2.1-.5.1-.7.2s-.6 0-.8 0"/><path d="M41.2 46v-.2c-.5-.2-.5-.2-.6.2h.6zm2.6.6v-.2c-.2-.1-.5-.1-.7-.1v.1c.1 0 .3.1.5.1-.1.1-.1.1-.2.1v.1c.2-.1.3-.1.4-.1z"/></g><path d="M38.1 44h-.6v-.1"/><path d="M35.7 43.9c.6.1 1.1.4 1.8.2.2-.1.4.1.6.1V44m4.6 1.2h-.8v.1c.1 0 .2.1.4.1-.9.1-1.8.3-2.6-.1-.5.3-.9.2-1.4.2.1-.1.2-.2.4-.2.1.1.2.1.4.1v-.1c-.1-.1-.2-.1-.4-.1l-2.2.1c-.2 0-.4-.1-.5-.2h2.2V45c-.2-.1-.5-.1-.8-.1-.6 0-1.1-.1-1.8 0-.2 0-.4.1-.2.4l-2.5.3m12.7.2c-.5-.6-1.3-.2-2-.4-.4-.1-.7 0-1 0 0-.1 0-.2.1-.2"/><path d="M46 45.2h-1.9v-.1"/><path d="M42.6 45c.2.1.3.3.4.3h3M33.4 45h0c.5-.1.9-.2 1.3-.4v-.1c-.2 0-.5-.1-.8 0"/><path d="M41.5 44.8h-1.6v.1c.5-.2 1.1.2 1.6-.1m-2-.5c-.4 0-.6.1-1 .1v.1h1m-5.3 1.1l2.1-.4v.1c-.7.1-1.4.5-2.1.3 0 .1 0 .1 0 0zM45 46c-.2.1-.5.1-.7.1v-.3h-.4c.4-.2.9-.1 1.1.2z"/><path d="M45.7 46.4h-1.5c.6-.3 1.2.1 1.5 0m-13-.8c.2 0 .5.1.8 0s.5-.2.7-.2c-.5.5-1 .4-1.5.2"/><path d="M41.2 46h-.6c.1-.4.1-.4.6-.2v.2zm2.6.6c-.1 0-.2.1-.4.1v-.1c0-.1.1-.1.2-.1-.2-.1-.4-.1-.5-.1v-.1c.2.1.5.1.7.1v.2z"/><g class="F"><path d="M46 45.3h-3c-.1 0-.2-.2-.4-.4"/><path d="M44.1 45.1c0 .1 0 .1 0 0 .6.1 1.2.1 1.9.1m-12-.7c.2-.1.5 0 .8 0v.2c-.4.1-.9.3-1.2.4V45"/><path d="M41.5 45c-.5.2-1.1-.2-1.6 0v-.1c.5 0 1.1 0 1.6.1m-2-.6h-1v-.1c.4 0 .6-.1 1-.1m2.8.7c0 .1 0 .1-.1.2.4 0 .8-.1 1 0 .6.1 1.4-.2 2 .4"/><use xlink:href="#AA" x="-0.4" y="-0.3"/><path d="M37.9 43.5c-.3.1-.5.2-.6.3h0 .6v.2c-.2-.1-.5-.1-.6-.1-.6.2-1.2-.1-1.8-.2"/><path d="M39.9 43.7h-2.3c0-.1.1-.1.2-.2m-4 1.8v.2c.8.1 1.4-.4 2.1-.4V45c-.7 0-1.4.1-2.1.3zm10.9.4c-.2-.3-.7-.4-1.1-.2.2.1.4.1.5.1v.3c.1-.1.3-.1.6-.2z"/><path d="M45.4 46.1c-.3.1-.9-.4-1.5 0h1.5m-13.1-.8c.5.2 1.1.3 1.5-.2-.2.1-.5.1-.7.2s-.5 0-.8 0"/><path d="M40.8 45.7v-.2c-.5-.2-.5-.2-.6.2h.6zm2.7.6v-.2c-.2-.1-.5-.1-.7-.1v.1c.1 0 .3.1.5.1-.1.1-.1.1-.2.1v.1c.1-.1.2-.1.4-.1z"/></g><path d="M37.8 43.7h-.6v-.1"/><path d="M35.4 43.6c.6.1 1.1.4 1.8.2.2-.1.4.1.6.1v-.2m4.5 1.1h-.8v.1c.1 0 .2.1.4.1-.9.1-1.8.3-2.6-.1-.5.3-.9.2-1.4.2.1-.1.2-.2.4-.2.1.1.2.1.4.1v-.1c-.1-.1-.2-.1-.4-.1l-2.2.1c-.2 0-.4-.1-.5-.2h2.2v-.1c-.2-.1-.5-.1-.8-.1-.6 0-1.1-.1-1.8 0-.2 0-.4.1-.2.4l-2.5.3m12.7.3c-.5-.6-1.3-.2-2-.4-.4-.1-.7 0-1 0 0-.1 0-.2.1-.2"/><path d="M45.6 44.8h-1.9v-.1"/><path d="M42.3 44.6c.2.1.3.3.4.3h3m-12.6-.2h0c.5-.1.9-.2 1.3-.4v-.1c-.2 0-.5-.1-.8 0"/><path d="M41.1 44.5h-1.6v.1c.5-.2 1.1.2 1.6-.1m-2-.5c-.4 0-.6.1-1 .1v.1h1m-5.3 1.1l2.1-.4v.1c-.7.1-1.4.5-2.1.3.1.1 0 0 0 0zm10.9.4c-.2.1-.5.1-.7.1v-.3c-.1-.1-.3-.1-.5-.1.4-.1.9 0 1.2.3z"/><path d="M45.4 46.1h-1.5c.6-.4 1.2.1 1.5 0m-13.1-.8c.2 0 .5.1.8 0s.5-.2.7-.2c-.4.5-.9.4-1.5.2"/><path d="M40.8 45.7h-.6c.1-.4.1-.4.6-.2.1 0 0 .1 0 .2zm2.7.6c-.1 0-.2.1-.4.1v-.1c0-.1.1-.1.2-.1-.2-.1-.4-.1-.5-.1V46c.2.1.5.1.7.1v.2z"/><g class="F"><path d="M45.6 45h-3c-.1 0-.2-.2-.4-.4"/><path d="M43.7 44.8c0 .1 0 .1 0 0 .6.1 1.2.1 1.9.1m-12-.7c.2-.1.5 0 .8 0v.2c-.4.1-.9.3-1.2.4v-.1"/><path d="M41.1 44.6c-.5.2-1.1-.2-1.6 0v-.1c.5 0 1.1 0 1.6.1m-2-.5h-1V44c.4 0 .6-.1 1-.1m2.6.5v.2h.4c.3.1.6-.2.8.4"/><path d="M37.6 44.5l1-.3c-.1-.2 0-.3.1-.3h.7c.1 0 .2.1.3.1v.1h-.9c.1.1.1.2.2.2h.9c.1 0 .1.1.2.1v.1l-.1-.1s-.1.1-.1.2c.2 0 .4.1.6-.2.3.4.7.2 1.1.1h-.1v-.1h.3m-2-1.3l-.3.3h0 .2v.2c-.1 0-.2-.1-.2-.1-.3.2-.5-.1-.7-.2"/><path d="M40.7 43.3h-.9c0-.1 0-.1.1-.2m-1.7 1.7v.2c.3.1.6-.3.9-.4v-.1c-.3 0-.6.1-.9.3zm4.4.3c-.1-.3-.3-.4-.5-.2.1 0 .1 0 .2.1v.3c.1-.1.2-.1.3-.2zm.3.4c-.1 0-.4-.3-.6 0h.6"/><path d="M37.6 44.8c.2.2.4.3.6-.2-.1 0-.2.1-.3.2s-.2 0-.3 0m3.5.3v-.2c-.2-.1-.2-.1-.3.2h.3zm1 .6v-.2c-.1 0-.2-.1-.3-.1v.1h.2l-.1.1h0c.1.1.2.1.2.1z"/></g><path d="M39.8 43.3h-.2m-.8-.1c.2.1.5.4.7.2.1 0 .2 0 .2.1v-.2"/><path d="M41.7 44.3h-.3v.1h.1c-.4 0-.7.3-1.1-.1-.2.3-.4.2-.6.2.1-.1.1-.2.1-.2l.1.1v-.1c-.1 0-.1-.1-.2-.1h-.9c-.1 0-.1-.1-.2-.2h.9v-.1c-.1 0-.2-.1-.3-.1h-.7c-.1 0-.2.1-.1.3l-1 .3m5.4.6c-.2-.6-.5-.2-.8-.4h-.4v-.2"/><path d="M43 44.3h-.8v-.1"/><path d="M41.6 44.2c.1.1.1.3.2.3H43m-5.1-.3h0c.2 0 .4-.2.5-.3v-.1h-.3"/><path d="M41.2 44h-.7v.1c.2-.2.5.2.7-.1m-.8-.4H40h0c.1.1.2.1.4 0m-2.2 1.2l.9-.3v.1c-.3 0-.6.5-.9.4v-.2zm4.4.3c-.1 0-.2.1-.3.1v-.3c-.1 0-.1 0-.2-.1a.55.55 0 0 1 .5.3zm.3.4h-.6c.2-.3.5.1.6 0"/><path d="M37.6 44.8h.3c.1 0 .2-.1.3-.2-.2.4-.4.4-.6.2m3.5.3h-.2c.1-.4.1-.4.3-.2-.1.1-.1.2-.1.2zm1 .6h-.2 0l.1-.1h-.2v-.1c.1 0 .2.1.3.2 0-.1 0-.1 0 0z"/><g class="F"><path d="M43 44.5h-1.2s-.1-.2-.2-.3"/><path d="M42.2 44.3h0c.3.1.5.1.8.1m-4.9-.7c.1-.1.2 0 .3 0v.1c-.2.1-.3.3-.5.4h0"/><path d="M41.2 44.2c-.2.2-.5-.2-.7 0v-.1c.2 0 .5 0 .7.1m-.8-.5H40h0c.1-.1.2-.1.4 0m-1.3 1.2v.2c.1 0 .2-.1.3 0 .2.1.4-.2.5.4"/><path d="M36.5 44.9c.2-.1.4-.2.7-.3 0-.2 0-.4.1-.4h.5c.1 0 .1.1.2.1v.1h-.6c.1.1.1.2.1.2.2 0 .4-.1.6-.1l.1.1v.1c0-.1-.1-.1-.1-.1 0 .1-.1.1-.1.2.1.1.3.1.4-.2.2.4.5.2.7.1l-.1-.1v-.1h.2"/><path d="M37.9 43.4c-.1.1-.1.2-.2.3v.1h.2v.2c-.1-.1-.1-.1-.2-.1-.2.2-.3-.1-.5-.2m1.3 0h-.6c0-.1 0-.1.1-.2m-1.2 1.7v.2c.2.1.4-.4.6-.4v-.1l-.6.3zm3 .4c-.1-.3-.2-.4-.3-.2l.1.1v.3l.2-.2zm.2.4c-.1.1-.2-.4-.4 0h.4"/><path d="M36.4 45.2c.1.2.3.3.4-.2l-.2.2c0 .1-.1 0-.2 0m2.3.4v-.2c-.1-.2-.1-.2-.2.2h.2zm.8.6V46c-.1-.1-.1-.1-.2-.1v.1l.1.1c0 .1 0 .1-.1.1 0 0 0 .1.2 0-.1 0-.1 0 0 0z"/></g><path d="M37.9 43.6h-.2v-.1"/><path d="M37.3 43.5c.2.1.3.4.5.2.1-.1.1.1.2.1v-.2m1.1 1.2h-.2v.1l.1.1c-.2.1-.5.3-.7-.1-.1.3-.2.2-.4.2 0-.1.1-.2.1-.2 0 .1.1.1.1.1v-.1c0-.1-.1-.1-.1-.1-.2 0-.4.1-.6.1-.1 0-.1-.1-.1-.2h.6v-.1c-.1-.1-.1-.1-.2-.1-.2 0-.3-.1-.5 0-.1 0-.1.1-.1.4-.2.1-.4.2-.7.3m3.5.2c-.1-.6-.4-.2-.5-.4-.1-.1-.2 0-.3 0v-.2"/><path d="M40 44.8h-.5v-.1"/><path d="M39.1 44.6c.1.1.1.3.1.3h.8m-3.4-.3h0l.4-.4v-.1c-.1 0-.1-.1-.2 0"/><path d="M38.8 44.4h-.4v.1c.1-.2.3.2.4-.1m-.5-.5c-.1 0-.2.1-.3.1v.1h.3m-1.5 1.1c.2-.1.4-.2.6-.4v.1c-.2.1-.4.5-.6.3.1.1 0 .1 0 0zm3 .4c-.1.1-.1.1-.2.1v-.3c0-.1-.1-.1-.1-.1.1-.1.2 0 .3.3zm.2.4h-.4c.1-.3.3.1.4 0"/><path d="M36.4 45.2c.1 0 .1.1.2 0s.1-.2.2-.2c-.1.5-.2.4-.4.2m2.3.4h-.2c0-.4 0-.4.2-.2.1.1 0 .2 0 .2zm.8.6h0 0c-.1-.1-.1-.1 0 0l-.1-.2v-.1c.1.1.1.1.2.1-.1.1-.1.1-.1.2z"/><g class="F"><path d="M40 44.9h-.8s-.1-.2-.1-.4"/><path d="M39.5 44.7c0 .1 0 .1 0 0a.9.9 0 0 0 .5.1m-3.2-.7c.1-.1.1 0 .2 0v.2c-.1.1-.2.3-.3.4v-.1"/><path d="M38.8 44.6c-.1.2-.3-.2-.4 0v-.1c.1 0 .3 0 .4.1m-.5-.6H38v-.1c.1 0 .2-.1.3-.1"/><text transform="translate(19.736 58.344)" font-size="8" class="G">A Room</text><text transform="matrix(.9351 0 0 1 6.9047 70.2237)" font-size="8.555" class="G">Without A View</text><text transform="translate(25.392 83.912)" font-size="6" class="G">@2023</text></g><defs ><path id="B" d="M49.4 12.8c0-.1-.1-.2-.2-.4-.2.1-.4.1-.4-.1 0-.4.1-.8.1-1.1h0c0 .1 0 .2.1.3h0v-.3h.1v.4c0 .2 0 .5.3.5 0 0 .1.3 0 .3.2.1.4.5 0 .4z"/><path id="C" d="M50.1 10.2l.3.6c-.2 0-.4 0-.5-.1.1-.1.2-.3.2-.5z"/><path id="D" d="M50 9l-.4.4c-.1-.5 0-.6.4-.6 0-.1-.1-.2-.1-.3-.1.1-.2.1-.4.1 0-.1 0-.2.1-.3 0-.1.2 0 .3.1.4.4.3 1 0 1.7 0-.4.1-.6.1-.9.1-.2 0-.2 0-.2z"/><path id="E" d="M23.6 4.4c0 .4-.2.5-.5.5-.1 0-.2-.1-.4-.1.1-.1.1-.3.2-.4.3-.1.5 0 .7 0z"/><path id="F" d="M48.9 8c0-.3.1-.6.1-.9 0 0 .1 0 .1.1.3.3-.1.5-.2.8h0z"/><path id="G" d="M33.4 4.6c-.4.1-.9.3-1.2.4v-.1c.2-.1.4-.4.5-.5.2-.1.5 0 .8 0-.1.1-.1.1-.1.2z"/><path id="H" d="M50 25.9s0-.1.1-.1c0-.2 0-.4-.1-.6h0c0-.1-.1-.3-.1-.5.1.1.1.1.2.1 0-.5-.5-.3-.6-.6v.4c.1 0 .2.1.4.1 0 .4-.1.6-.2 1 .1.1.2.1.3.2z"/><path id="I" d="M49.3 25.8c0-.1-.1-.2-.2-.4-.2.1-.4.1-.4-.1 0-.4.1-.8.1-1.1h0c0 .1 0 .2.1.3h0v-.3h.1v.4c0 .2 0 .5.3.5 0 0 .1.3 0 .3.1.1.4.5 0 .4z"/><path id="J" d="M48.8 30.5c-.1.2-.1.4-.2.6.2 0 .4 0 .5.1-.1-.2-.2-.4-.3-.7z"/><path id="K" d="M48.7 29.4l.1.1c0 .2-.1.6-.1.9.4-.7.4-1.2 0-1.7 0-.1-.2-.1-.3-.1-.1.1-.1.2-.1.3.1-.1.2-.1.4-.1 0 .1.1.2.1.3-.5.1-.5.2-.4.6l.3-.3z"/><path id="L" d="M48.8 27c-.1.2-.2.4-.5.6l.8-.3c-.2-.1-.3-.2-.3-.3z"/><path id="M" d="M47.6 28.4c.1-.3.5-.5.3-.9 0 0-.1 0-.1-.1-.1.4-.1.7-.2 1z"/><path id="N" d="M48.9 33.3c-.1-.1-.2-.1-.4-.2 0-.4.1-.6.2-1-.1 0-.2-.1-.4-.1v-.4c.2.2.6.1.6.6-.1-.1-.1-.1-.2-.1 0 .2.1.4.1.5h0c0 .2 0 .4.1.6.1.1 0 .1 0 .1z"/><path id="O" d="M48.3 29.1c.1.6.2 1.3.2 1.9 0 .2 0 .4-.4.4 0-.1.1-.2.2-.3l-.1-.1c-.5-.1-.5-.1-.2-.4"/><path id="P" d="M52.1 33.1c-.4-.3-.5-.1-.8.1l-.4.4.8-.2c.3-.1.5-.4.9-.4"/><path id="Q" d="M47.6 33.4c.1-.4.2-.6.3-.9h0v-.3c-.1.1-.4-.2-.5.1"/><path id="R" d="M47.7 35.1c.1-.4.2-.9.4-1.3.1-.4.1-.4-.2-.6-.1.1-.1.1-.3.2"/><path id="S" d="M52.6 33.2c-.3.1-.5.3-.9.4-.2.1-.5.1-.8.2.1-.2.3-.4.4-.4.2-.3.4-.4.8-.1"/><path id="T" d="M48.1 17.4c.2-.4.5-.6.6-.9-.1.2-.2.6-.3.9.1-.1.2-.1.3-.2.4.3.4.3.2.6-.1.4-.3.9-.4 1.3v.9c-.3.1-.1.5-.1.8"/><path id="U" d="M16.1 41.5c-.1-.5-.1-1-.2-1.4.1-.1.2-.2.4-.3-.4-.1-.5-.2-.1-.5.2-.1.1-.4 0-.7 0 .2-.1.4-.2.6-.1-.1-.4-.2-.4-.4-.1-.4.2-.7.4-1.1.2.7.2.7.5.8 0-.3 0-.6.1-1-.1.1-.2.1-.3.2v-.8h-.1c0-.2-.1-.4-.1-.6-.1-.1-.2-.2-.5-.4 0 .2-.1.4-.1.6 0 .1.2.1.4.2-.1.4-.4.6-.7.4.1-.1.1-.4.2-.5 0 0 0-.1-.1-.1 0 .1-.1.1-.1.2 0-.2 0-.4-.1-.8-.1.2-.1.3-.2.5-.2-.6-.2-1 0-1.4 0 .1.1.1.1.1l.5-.5v.2c.1.1.1.1.2.1 0 0 .1.1.2 0l.1-.1c0-.1 0-.2-.1-.4.1.1.2.1.4.1.1-.2.2-.4.4-.4 0-.2-.1-.4-.1-.6-.4.2-.6.4-1 .6v-.4h-.1l-.3.9c-.1.3-.4.4-.6.4v-1.1h.4c0 .2 0 .4-.1.5h.1c0-.2.1-.4.2-.6-.1-.1-.1-.2-.2-.3.1-.1.2-.1.2-.1v-.1c0-.1.1-.2.2-.4h0v-.8c.5 0 .4-.3.4-.6s-.1-.6.2-.8v-.1c-.1-.3-.2-.6 0-.9"/><path id="V" d="M44.4 45.4c0 .1 0 .1 0 0-.8.1-1.5.1-2.2.1.2.1.4.2.5.2l2.2-.1c.1 0 .2.1.4.1v.1c-.1-.1-.2-.1-.4-.1-.1.1-.2.1-.4.2.5.1 1 .1 1.4-.2.8.4 1.7.2 2.6.1-.1 0-.2-.1-.4-.1v-.1"/><path id="W" d="M39.6 45.3c.1.4.1.4-.2.4-.1 0-.1.1-.2.1v.1l2.5-.3c-.1-.2 0-.4.2-.4"/><path id="X" d="M37.2 45.4c-.2.1-.4.1-.5.1v.1c.1.1.3.1.5.1v.4h.8V46c-.2-.1-.4-.1-.6-.2.1-.1.2-.1.4-.2-.1-.1-.2-.1-.3-.2"/><path id="Y" d="M40.5 46.1c-.2.1-.5.1-.7.2s-.5 0-.8 0c.6.2 1.1.3 1.5-.2z"/><path id="Z" d="M41.9 45.2c-.2 0-.4.1-.2.4l-2.5.3v-.1c.1-.1.1-.1.2-.1.4-.1.4-.1.2-.4"/><path id="a" d="M48.3 45.9c.1 0 .2.1.4.1-.9.1-1.8.3-2.6-.1-.5.3-.9.2-1.4.2.1-.1.2-.2.4-.2.1.1.2.1.4.1v-.1c-.1-.1-.2-.1-.4-.1l-2.2.1c-.2 0-.4-.1-.5-.2"/><path id="b" d="M37.4 45.4c.1.1.2.1.3.2-.1.1-.2.1-.4.2.2.1.5.1.6.2v.1h-.8v-.4c-.1-.1-.3-.1-.5-.1v-.1c.1 0 .3-.1.5-.1"/><path id="c" d="M37.6 45.1c-.2.1-.4.1-.5.1v.1c.1.1.3.1.5.1v.4h.8v-.1c-.2-.1-.4-.1-.6-.2.1-.1.2-.1.4-.2-.1-.1-.2-.1-.3-.2"/><path id="d" d="M40.9 45.9v.2c.8.1 1.4-.4 2.1-.4v-.1l-2.1.3z"/><path id="e" d="M40.9 45.7c-.2.1-.5.1-.7.2s-.5 0-.8 0c.5.2 1.1.3 1.5-.2z"/><path id="f" d="M40.9 45.9l2.1-.4v.1c-.7.1-1.4.5-2.1.3.1.1 0 .1 0 0z"/><path id="g" d="M40.9 45.7c-.4.5-.9.4-1.5.2.2 0 .5.1.8 0 .2 0 .4-.1.7-.2z"/><path id="h" d="M48.1 28.1c.5 0 .4-.3.4-.6s-.1-.6.2-.8v-.1c-.1-.3-.2-.6 0-.9 0-.1-.2-.1-.2-.2 0-.4-.4-.8-.1-1.1"/><path id="i" d="M48 24.9c-.2.4.1.8.1 1.1 0 .1.2.2.2.2-.2.3-.2.6 0 .9v.1c-.4.2-.2.5-.2.8"/><path id="j" d="M51.2 24.2v.2c0 .4-.3.9 0 1.4.2.4 0 1.1 0 1.6-.1-.3-.2-.4-.3-.6v.4c0 .4.5.6.2 1.1 0 .1.1.1.2.1 0 .8-.4 1.6.2 2.4"/><path id="k" d="M49.7 28.9s0-.1.1-.1c0-.2 0-.4-.1-.6h0c0-.1-.1-.3-.1-.5.1.1.1.1.2.1 0-.5-.5-.3-.6-.6v.4c.1 0 .2.1.4.1 0 .4-.1.6-.2 1 .1.1.2.2.3.2z"/><path id="l" d="M50.3 23.1v.5.4c0 .4 0 .8-.1 1.1-.1.4-.5.6-.8 1.1 0-.2 0-.4-.1-.6 0-.1-.1-.1-.2-.1 0 .1-.1.1-.1.2s0 .2.1.4c0 0-.1.1-.2.1.1.5.1.6-.2.9h0c-.3.1-.4.1-.5-.3-.3.4-.3.7.1 1.2-.4.1-.5.2-.5.6 0 .2-.1.5-.1.8v.8c-.2-.3-.4-.6-.2-.9v-.4h-.1v1.9c0 .1 0 .1.1.1.1.1.2.2 0 .3-.1 0-.1.3-.1.4v.8"/><path id="m" d="M51.3 30.3c-.6-.9-.1-1.6-.2-2.4 0-.1-.1-.1-.2-.1.2-.4-.2-.7-.2-1.1v-.4c.1.2.1.4.3.6 0-.6.2-1.2 0-1.6-.2-.6 0-.9 0-1.4"/><path id="n" d="M49.6 25l.1.1c0 .2-.1.6-.1.9.4-.7.4-1.2 0-1.7 0-.1-.2-.1-.3-.1-.1.1-.1.2-.1.3.1-.1.2-.1.4-.1 0 .1.1.2.1.3-.5.1-.5.2-.4.6 0-.1.2-.2.3-.3z"/><path id="o" d="M49.4 33.4c0-.2.1-.4.2-.6-.1-.1-.1-.2-.2-.3.1-.1.2-.1.2-.1v-.1c0-.1.1-.2.2-.4h0v-.8c.5 0 .4-.3.4-.6s-.1-.6.2-.8v-.1c-.1-.3-.2-.6 0-.9"/><path id="p" d="M50 29.3c-.2.3-.2.6 0 .9v.1c-.4.2-.2.5-.2.8 0 .2.1.6-.4.6v.8h0c0 .1-.1.2-.2.4"/><path id="q" d="M47.9 28.8c0-.1 0-.4.1-.4.3-.1.2-.1 0-.3 0-.1-.1-.1-.1-.1v-1.9h.1c0 .1.1.4 0 .4-.2.4 0 .6.2.9v-.8c0-.3.1-.5.1-.8s.1-.5.5-.6c-.4-.6-.5-.8-.1-1.2.2.4.3.4.5.3 0 .4-.1.8-.1 1.1 0 .2.1.3.4.1 0 .4-.1.8-.1 1.2v.1c0 .1.1.3.2.5l-.1.1c0-.1 0-.1-.1-.2v.8c0 .2.1.4.1.6s0 .5.1.8"/><path id="r" d="M49.7 25.6c.1.2.2.4.1.8v.4c0 .2-.1.5-.2.8.1.1.2.1.4.1 0 .1-.1.2-.2.3.3.3.1.6 0 1h-.1c0-.2 0-.5-.1-.8 0-.2-.1-.4-.1-.6v-.8c.1.1.1.2.1.2l.1-.1c0-.1-.1-.3-.2-.5v-.1c0-.4 0-.8.1-1.2 0 .3.1.4.1.5z"/><path id="s" d="M40.5 42.9c.2.3.5.6.8.9-.1-.1-.2-.1-.4-.1 0 0-.1.1-.2.1 0-.2-.1-.4-.1-.6-.1 0-.1.1-.2 0-.3-.1-.6-.1-.8.2 0 .1-.1 0-.1 0-.4.1-.8.1-1.2.2.1.1.1.2.2.3-.2.1-.4.1-.5.1v.1c.1.1.3.1.5.1v.4h.8v-.1c-.2-.1-.4-.1-.6-.2.1-.1.2-.1.4-.2-.1-.1-.2-.1-.3-.2.2-.1.4-.3.5-.4v.1.1c.1.1.4.1.5.2.3.4.6.2.9.1l.1-.1c.2.1.2.1.2-.2.1.4.1.4-.2.4-.1 0-.1.1-.2.1v.1l2.5-.3c-.1-.2 0-.4.2-.4h1.8"/><path id="t" d="M45 43.6c-.6.2-1.2-.1-1.8-.2-.2-.1-.5-.1-.9-.1-.2 0-.5 0-.8-.1-.4-.1-.7-.3-1-.4"/><path id="u" d="M40.5 42.6c.4.1.7.3 1 .4.2.1.5.1.8.1s.5 0 .9.1"/><path id="v" d="M44.7 43.8c-.6 0-1.1-.1-1.8 0-.2 0-.4.1-.2.4l-2.5.3v-.1c.1-.1.1-.1.2-.1.4-.1.4-.1.2-.4v-.1c0-.1.1-.1.2-.1s.2.1.4.1c-.2-.3-.5-.6-.8-.9"/><path id="w" d="M32.2 43.1c-.2 0-.4-.1-.5 0s-.2.2-.2.4c.1.1.2.1.4.1.1 0 .3-.2.3-.5z"/><path id="x" d="M42 43.3c0-.1 0-.1 0 0-.2-.1-.5-.2-.8-.1-.2.1-.4.3-.5.5v.1c.5-.2.9-.4 1.3-.5z"/><path id="y" d="M49.1 29.9v-.8c.5 0 .4-.3.4-.6s-.1-.6.2-.8v-.1c-.1-.3-.2-.6 0-.9 0-.1-.2-.1-.2-.2 0-.4-.4-.8-.1-1.1 0-.1 0-.1-.1-.2-.2.1-.4.2-.5.4 0 0 0-.1-.1-.1.5-.8.4-1.6.3-2.6"/><path id="z" d="M48.7 23.5c.1.9.1 1.8-.3 2.6 0 0 0 .1.1.1.1-.1.4-.2.5-.4 0 .1.1.1.1.2-.2.4.1.8.1 1.1 0 .1.2.2.2.2-.2.3-.2.6 0 .9v.1c-.4.2-.2.5-.2.8 0 .2.1.6-.4.6"/><path id="AA" d="M32.8 45.3l2.5-.3c-.1-.2 0-.4.2-.4h1.8c.3 0 .5.1.8.1v.1h-2.2c.2.1.4.2.5.2l2.2-.1c.1 0 .2.1.4.1v.1c-.1-.1-.2-.1-.4-.1-.1.1-.2.1-.4.2.5.1 1 .1 1.4-.2.8.4 1.7.2 2.6.1-.1 0-.2-.1-.4-.1v-.1h.8"/></defs></svg>